<svg xmlns="http://www.w3.org/2000/svg" xmlns:xlink="http://www.w3.org/1999/xlink" width="296.143" height="339.152" viewBox="0 0 296.143 339.152">
  <defs>
    <linearGradient id="linear-gradient" y1="0.5" x2="1" y2="0.5" gradientUnits="objectBoundingBox">
      <stop offset="0" stop-color="#2a5580"/>
      <stop offset="1" stop-color="#3e6970"/>
    </linearGradient>
  </defs>
  <g id="Group_14" data-name="Group 14" transform="translate(-813.308 -335.542)">
    <path id="Path_1" data-name="Path 1" d="M1199.5,1018.329c14.452,56,76.474,117.859,175.87,100.748S1508.658,994.815,1477.028,924.7s-143.457-167.044-215.753-88.068S1184.035,958.411,1199.5,1018.329Z" transform="translate(-379.029 -471.59)" fill="#ffe7e3"/>
    <g id="Group_13" data-name="Group 13" transform="translate(842.262 393.177)">
      <g id="Group_2" data-name="Group 2" transform="translate(39.852 265.302)">
        <ellipse id="Ellipse_2" data-name="Ellipse 2" cx="107.918" cy="8.107" rx="107.918" ry="8.107" opacity="0.17" fill="url(#linear-gradient)"/>
      </g>
      <path id="Path_515" data-name="Path 515" d="M2701.2,1807.07s2.551,3.866,4.442,5.214,11.872,6.836,13.577,7.105,10.789,1.257,11.332,4.314-6.836,4.588-15.825,4.136-21.5,1.144-22.661.08-1.8-7.991-.809-12.389a27.793,27.793,0,0,0,.539-8.319Z" transform="translate(-2521.867 -1567.388)" fill="#eea886"/>
      <path id="Path_516" data-name="Path 516" d="M2719.232,1840.88a17.587,17.587,0,0,1-11.059,1.888c-6.384-.987-14.979-2.339-17.381-1.53,0,0-.15,6.559,1.286,8.173s18.794-.182,20.041-.157,18.794,1.877,18.438-4.059C2730.583,1845.194,2732.269,1842.137,2719.232,1840.88Z" transform="translate(-2521.878 -1588.878)" fill="#dbdff0"/>
      <path id="Path_517" data-name="Path 517" d="M2565.319,1784.644a25.688,25.688,0,0,0,1.483,4.9c.721,1.257,6.114,10.789,8.271,11.507s9.619,1.53,8.723,5.4-16.725,3.866-18.478.729-15.329-13.846-15.96-17.53,2.788-10.7,7.652-13.037C2562.021,1774.176,2565.319,1784.644,2565.319,1784.644Z" transform="translate(-2431.935 -1547.793)" fill="#eea886"/>
      <path id="Path_518" data-name="Path 518" d="M2583.795,1806.452c-.9,3.866-16.725,3.866-18.477.729s-15.33-13.846-15.96-17.53a10.961,10.961,0,0,1,1.268-6.056,14.906,14.906,0,0,1,6.366-6.982c5.029-2.427,8.326,8.045,8.326,8.045a25.7,25.7,0,0,0,1.483,4.9c.721,1.257,6.114,10.789,8.271,11.507S2584.691,1802.586,2583.795,1806.452Z" transform="translate(-2431.933 -1547.797)" fill="#eea886"/>
      <path id="Path_519" data-name="Path 519" d="M2583.795,1819.267c-.9,3.866-16.725,3.866-18.477.729s-15.33-13.846-15.96-17.53a10.961,10.961,0,0,1,1.268-6.056c1.9.146,16.357,16.663,19.312,18.1a4.613,4.613,0,0,0,5.123-.63C2577.236,1814.593,2584.691,1815.4,2583.795,1819.267Z" transform="translate(-2431.933 -1560.612)" fill="#dbdff0"/>
      <path id="Path_520" data-name="Path 520" d="M2524.3,1484.593s9.386,1.3,12.389.026,18.926,9.532,18.9,11.219a4.7,4.7,0,0,1-.525,2.412l-34.273-7.448Z" transform="translate(-2413.823 -1362.365)" fill="#eea987"/>
      <path id="Path_521" data-name="Path 521" d="M2608.328,1591.646s-8.311,18.7-14.247,32.047c-.994,2.248-1.924,4.34-2.736,6.165L2589.06,1635c-3.779,8.5-10.589,29.4-10.589,29.4s-10.52-1.957-10.931-7.892c0,0,7.758-13.012,7.758-22.048s1.213-35.651,9.838-41.4C2595.677,1586.038,2602.513,1584.712,2608.328,1591.646Z" transform="translate(-2443.538 -1427.55)" fill="#ef8737"/>
      <path id="Path_522" data-name="Path 522" d="M2392.179,1490.684a9.731,9.731,0,0,0,3.24,2.161c1.483.408,26.3,2.292,37.76,6.067s26.705,6.194,29.537,9.441,7.553,21.039,7.419,24.413,12.935,64.619,14.211,69.053c.674,2.35-10.79,1.665-10.79,1.665s-15.38-38.216-18.386-44.417c-5.527-11.394-5.8-25.354-7.823-27.514s-24.552-7.011-37.513-7.011-41.944,1.093-45.044-.674-22.526-14.575-14.433-31.7S2392.179,1490.684,2392.179,1490.684Z" transform="translate(-2304.248 -1362.133)" fill="#ef8737"/>
      <path id="Path_523" data-name="Path 523" d="M2511.463,1218.129s-10.931,29.8-18.146,38.828-4.267-24.486-4.267-24.486S2501.559,1212.981,2511.463,1218.129Z" transform="translate(-2393.27 -1192.494)" fill="#fac794"/>
      <path id="Path_524" data-name="Path 524" d="M2469.276,1172.946s6.581-22.176-18.583-23.619c-24.92-1.425-15.69,33.756-21.276,39.936s-11.529,11.175-13.548,18.066a36.44,36.44,0,0,0,.667,22.245C2422.242,1245.912,2451.272,1163.774,2469.276,1172.946Z" transform="translate(-2346.24 -1149.285)" fill="#fac794"/>
      <path id="Path_525" data-name="Path 525" d="M2492.342,1163.627c4.8,1.148,14.619,6.588,12.586,19.611a40.513,40.513,0,0,1-2.959,5.7c-1.592,2.42-1.49,10.953-2.226,11.161a17.772,17.772,0,0,1-3.447-.047s-5.254,7.761-8.239,6.814-13.686-6.61-15.949-18.824S2472.943,1158.992,2492.342,1163.627Z" transform="translate(-2382.475 -1157.901)" fill="#eea886"/>
      <path id="Path_526" data-name="Path 526" d="M2481.484,1245.8s-.729,1.093-1.658,2.751c-.481.849-1.016,1.844-1.545,2.915-1.457,2.966-2.835,6.526-2.732,9.193,0,0-7.317.364-9.838-10.567,0,0,5.2-9.474,4.052-16.459S2481.484,1245.8,2481.484,1245.8Z" transform="translate(-2378.813 -1201.926)" fill="#eea886"/>
      <path id="Path_527" data-name="Path 527" d="M2503.32,1179.292s-9.215,3.006-17.155,1.847-15.107,5.3-15.107,5.3-7.378-17.964,5.418-27.03S2509.238,1165.143,2503.32,1179.292Z" transform="translate(-2380.867 -1153.951)" fill="#fac794"/>
      <path id="Path_528" data-name="Path 528" d="M2498.331,1214.784c.39-1.49-.608-4.183-3.618-2.868s-1.8,9.284.39,9.175S2497.93,1216.326,2498.331,1214.784Z" transform="translate(-2396.105 -1188.872)" fill="#eea886"/>
      <path id="Path_529" data-name="Path 529" d="M2489.93,1262.478c-.481.849-1.017,1.844-1.545,2.915a34.363,34.363,0,0,1-6.756-11.383C2484.232,1258.229,2489.93,1262.478,2489.93,1262.478Z" transform="translate(-2388.932 -1215.85)" fill="#a77860"/>
      <path id="Path_530" data-name="Path 530" d="M2416.391,1315.158c-3.279,6.081-7.211,5.334-8.381,10.2s.138,5.684-4.536,12.516a38.389,38.389,0,0,0-2.43,4.147l-.266.521c-.416.827-.809,1.665-1.181,2.5-.685,1.541-1.3,3.061-1.822,4.456-1.377,3.644-2.187,6.431-2.187,6.431s-25.758,8.381-41.809,1.483c0,0,9.576-16.856,13.759-22.387s10.25-37.086,11.194-43.7,9.864-19.465,17.417-19.2l9.955,6.989s6.657,17.556,8.548,20.252S2419.725,1309,2416.391,1315.158Z" transform="translate(-2307.668 -1227.367)" fill="#214361"/>
      <rect id="Rectangle_13" data-name="Rectangle 13" width="114.098" height="93.135" transform="translate(0 162.358)" fill="#fff"/>
      <rect id="Rectangle_14" data-name="Rectangle 14" width="61.554" height="4.897" transform="translate(107.986 128.176) rotate(12.47)" fill="#c4b4af"/>
      <rect id="Rectangle_15" data-name="Rectangle 15" width="61.468" height="4.89" transform="matrix(0.541, -0.841, 0.841, 0.541, 165.055, 150.914)" fill="#c4b4af"/>
      <path id="Path_531" data-name="Path 531" d="M2445.7,1417.15l-.062.124c-.416.827-.809,1.665-1.181,2.5-.685,1.542-1.3,3.061-1.822,4.457-6.344-.94-18.281-9.776-18.281-9.776l14.939-24.73-6.347,20.245c1.931.546,6.963,3.145,7.594,4.234S2445.7,1417.15,2445.7,1417.15Z" transform="translate(-2352.524 -1302.111)" fill="#1b374f"/>
      <path id="Path_532" data-name="Path 532" d="M2424.745,1287.31c3.932,1.4,10.9,7.309,6.559,17.738s-6.869,17.636-8.381,20.238-10.432,20.6-10.432,20.6,8.811,2.591,12.859,5.287,21.8,7.492,21.8,7.492l-3.509,11.186s-39.874-8.1-42.931-11.186.087-18.642,1.257-24.756,7.375-30.028,7.463-32.729S2414.491,1283.645,2424.745,1287.31Z" transform="translate(-2336.675 -1236.649)" fill="#214361"/>
      <path id="Path_533" data-name="Path 533" d="M2391.588,1497.085s-2.7,42.428-5.192,43.623c-3.28,1.578-29.689,1.173-36.733-7.714s-7.983-25.142-2.3-34.893S2391.588,1497.085,2391.588,1497.085Z" transform="translate(-2301.237 -1368.068)" fill="#214361"/>
      <path id="Path_534" data-name="Path 534" d="M2630.7,1652.532c-.994,2.248-1.924,4.34-2.736,6.165-3.057-9.838-2.806-26.257-2.806-26.257A93.451,93.451,0,0,0,2630.7,1652.532Z" transform="translate(-2480.16 -1456.389)" fill="#ab3434"/>
      <path id="Path_535" data-name="Path 535" d="M2757.71,1873.122h0v-.022Z" transform="translate(-2564.415 -1609.358)" fill="#454342"/>
      <path id="Path_536" data-name="Path 536" d="M2742.073,1778.92c-5.59,9.838-7.652,12.21-7.63,21.957.033,7.379,5.648,7.39,5.1,9.026s-8.33,1.636-9.7,0c-.364-.47-2.114-.758-4.482-.926-.408-.036-.842-.062-1.286-.084-1.669-.1-3.567-.131-5.491-.157-4.879-.047-9.878.073-11.708.073-3.458,0-14.684,1.345-18.889-.729a3.644,3.644,0,0,1-1.061-.754c-1.261-1.385-3.363-7.9-3.4-15.7-.047-9.951,3.279-21.969,16.105-28.039,0,0,10.931-4.11,16.681-4.518a10.558,10.558,0,0,0,5.863-2.008,5.931,5.931,0,0,0,1.458-1.574h0c.047-.084.073-.12.073-.12h.069l18.948,2.226a9.823,9.823,0,0,0,0,5.768C2743.746,1766.01,2747.648,1769.082,2742.073,1778.92Z" transform="translate(-2517.263 -1534.526)" fill="#87685d"/>
      <path id="Path_537" data-name="Path 537" d="M2790.972,1676.933c3.557,1.913,6.672,8.209,6.672,8.209l-7.418,4.6S2787.419,1675.027,2790.972,1676.933Z" transform="translate(-2584.413 -1484.561)" fill="#87685d"/>
      <path id="Path_538" data-name="Path 538" d="M2854.462,1694.555c4.468.24-4.89,11.412-4.89,11.412l-5.382-6.923S2850,1694.318,2854.462,1694.555Z" transform="translate(-2619.384 -1495.865)" fill="#87685d"/>
      <path id="Path_539" data-name="Path 539" d="M2726.347,1844.755c-.193.805-1.071,1.516-2.955,1.9-5.83,1.177-24.676.062-27.642-2.573l3.833-16.164,3.76-15.887s17.581,5.276,15.3,22.318c0,0-1.093,4.938,2.824,5.888C2724.135,1840.874,2726.733,1843.05,2726.347,1844.755Z" transform="translate(-2525.031 -1570.54)" fill="#87685d"/>
      <path id="Path_540" data-name="Path 540" d="M2809.5,1778.913c-5.59,9.838-7.652,12.21-7.63,21.957.033,7.379,5.648,7.39,5.1,9.026s-8.33,1.636-9.7,0c-.455-.554-2.762-.853-5.768-1.009-1.5-6.118,0-15.264.492-22.136.878-12.21-.306-9.747,4.1-14.575s1.7-10.421-2.153-10.647-4.34-4.485-4.34-4.485a9.657,9.657,0,0,1,1.458-1.574h0l.142-.109,18.948,2.226a9.825,9.825,0,0,0,0,5.768C2811.168,1766,2815.07,1769.075,2809.5,1778.913Z" transform="translate(-2584.685 -1534.519)" fill="#edcfc3"/>
      <path id="Path_541" data-name="Path 541" d="M2813.178,1713.2a23.27,23.27,0,0,1-1.585,4.624h0c-4.208,8.927-12.68,9.649-17.549,6.559a14.969,14.969,0,0,1-6.3-9.6,15.942,15.942,0,0,1-.266-5.71c.565-3.739,2.164-7.379,6.42-8.905a10.607,10.607,0,0,1,4.66-.554C2803.19,1700.1,2815.75,1702.33,2813.178,1713.2Z" transform="translate(-2583.248 -1499.046)" fill="#87685d"/>
      <path id="Path_542" data-name="Path 542" d="M2803.4,1719.132a1.565,1.565,0,1,1-.82,3.006,1.6,1.6,0,0,1-1.093-1.4,1.457,1.457,0,0,1,1.913-1.607Z" transform="translate(-2592.23 -1511.442)" fill="#383635"/>
      <path id="Path_543" data-name="Path 543" d="M2836.791,1727.772a1.644,1.644,0,0,1,1.228,1.982,1.625,1.625,0,0,1-2.048,1.024,1.607,1.607,0,0,1-1.093-1.4,1.458,1.458,0,0,1,1.913-1.607Z" transform="translate(-2613.453 -1516.934)" fill="#383635"/>
      <path id="Path_544" data-name="Path 544" d="M2725.344,1869.92c-.408-.036-.842-.062-1.287-.084-1.668-.1-3.567-.131-5.491-.157-.193.805-1.071,1.516-2.955,1.9-5.83,1.177-24.676.062-27.642-2.573a3.641,3.641,0,0,1-1.06-.754c-1.261-1.385-3.363-7.9-3.4-15.7,3.545-2.081,6.238-1.457,8.293.288,3.064,2.62,4.711,7.765,5.648,10.1,1.862,4.65,10.469.936,16.248,2.223s3.738-11.19,3.738-11.19S2729.141,1859.032,2725.344,1869.92Z" transform="translate(-2517.251 -1595.465)" fill="#edcfc3"/>
      <path id="Path_545" data-name="Path 545" d="M2784.164,1801.087v.095c-.364,5-8.712,27.474-2.416,33.29,6.621,6.118-2.234,5.466-4.216,5.025s-1.589-2.343-2.8-5.794-3.881-33.672-3.881-33.672l6.194.251,7.113.288A1.742,1.742,0,0,1,2784.164,1801.087Z" transform="translate(-2572.767 -1562.913)" fill="#87685d"/>
      <path id="Path_546" data-name="Path 546" d="M2784.164,1794.887v.612c-.364,5-8.712,27.474-2.416,33.29,6.621,6.118-2.234,5.466-4.216,5.025s-1.589-2.343-2.8-5.793-3.881-33.672-3.881-33.672c4.518.105,3.582-3.258,3.582-3.258,2.03.084,2.259,1.512,2.62,3.509a15.543,15.543,0,0,0,.623,2.656C2778.782,1800.509,2784.164,1794.887,2784.164,1794.887Z" transform="translate(-2572.767 -1557.23)" fill="#edcfc3"/>
      <path id="Path_547" data-name="Path 547" d="M2726,1844.662c.408-1.6-2.325-3.367-4.008-3.932-6.7-2.048-2.062-7.16-3.924-13.664-2.033-8.016-8.745-12.957-14.736-15.056,7.287,2.208,14.105,8.319,15.4,15.384a21.364,21.364,0,0,1,.226,7.01c-.339,1.68-.105,3.935,1.337,4.934.973.7,4.543,1.024,6.078,3.852.871,1.822-.179,2.984-2.128,3.564-4.868,1.421-25.142.313-28.513-2.682C2698.786,1846.553,2725.025,1848.6,2726,1844.662Z" transform="translate(-2525.025 -1570.528)" fill="#695148"/>
      <path id="Path_548" data-name="Path 548" d="M2812.3,1732.838c-4.208,8.927-12.68,9.649-17.548,6.559a14.966,14.966,0,0,1-6.3-9.6c1.479,1.02,3.221,2.5,4.194,3.1,1.862,1.17,6.333-10.815,8.487-9.66s2.149,9.474,2.438,12.629S2812.3,1732.838,2812.3,1732.838Z" transform="translate(-2583.96 -1514.049)" fill="#edcfc3"/>
      <path id="Path_549" data-name="Path 549" d="M2813.966,1737.909a8.728,8.728,0,0,1,3.2.816.638.638,0,0,1,.328.9,5.324,5.324,0,0,1-2.842,1.614C2814.5,1741.182,2812.872,1738.048,2813.966,1737.909Z" transform="translate(-2599.934 -1523.42)" fill="#383635"/>
      <path id="Path_550" data-name="Path 550" d="M2775.539,1835.161c.7,2.58.627,3.644,2.062,3.986,1.363.306,4.2.445,5.513-.179,1.64-.761.117-2.605-1.169-3.873-7.539-7.535,2.671-30.608,2.23-34.54.518,3.447-8.071,26.261-2.7,33.118.729.845,3.363,2.915,3,4.7-.5,2.248-5.859,1.822-7.39,1.33s-1.458-1.731-2.78-6.337c-1.384-6.351-2.977-26.833-3.443-33.355C2774.672,1834.823,2774.395,1830.931,2775.539,1835.161Z" transform="translate(-2572.773 -1562.9)" fill="#695148"/>
    </g>
  </g>
</svg>
