<svg xmlns="http://www.w3.org/2000/svg" width="414.73" height="448.52" viewBox="0 0 414.73 448.52">
  <g id="Group_15" data-name="Group 15" transform="translate(-772.994 -337.999)">
    <g id="Floor" transform="translate(772.994 569.875)">
      <path id="Path_551" data-name="Path 551" d="M123.77,448.678c80.963,42.3,212.267,42.3,293.253,0s80.963-110.909,0-153.2-212.279-42.3-293.267,0S42.788,406.377,123.77,448.678Z" transform="translate(-63.024 -263.759)" fill="#f0f0f0"/>
    </g>
    <g id="Cloud" transform="translate(1060.417 348.13)">
      <path id="Path_552" data-name="Path 552" d="M330.287,86l6.244,2.418V74.645c0-10.9,8.706-13.52,18.145-8.063h0c9.449,5.446,17.1,18.708,17.1,29.6v2c2.14-.854,4.913-.532,7.941,1.22h0c6.8,3.926,12.311,13.465,12.311,21.317v.973l8.707,5.024a17.945,17.945,0,0,1,8.107,14.041c0,5.169-3.638,7.265-8.107,4.68l-70.449-40.715a17.945,17.945,0,0,1-8.107-14.082C322.18,85.513,325.818,83.417,330.287,86Z" transform="translate(-322.18 -63.824)" fill="#f0f0f0"/>
    </g>
    <g id="Streetlight" transform="translate(796.811 337.999)">
      <rect id="Rectangle_16" data-name="Rectangle 16" width="9.183" height="244.187" transform="translate(12.122 45.317)" fill="#e6e6e6"/>
      <path id="Path_553" data-name="Path 553" d="M93.3,84.912c-4.026,2.329-4.026,6.089,0,8.418a16.093,16.093,0,0,0,14.585,0c4.026-2.329,4.026-6.089,0-8.418A16.093,16.093,0,0,0,93.3,84.912Z" transform="translate(-83.87 -51.583)" fill="#e0e0e0"/>
      <path id="Path_554" data-name="Path 554" d="M93.755,88.157c-3.727,2.151-3.727,5.645,0,7.764a14.892,14.892,0,0,0,13.52,0c3.727-2.151,3.727-5.645,0-7.764A14.961,14.961,0,0,0,93.755,88.157Z" transform="translate(-83.795 -51.214)" fill="#e0e0e0"/>
      <path id="Path_555" data-name="Path 555" d="M47.772,34.52H27.32l.8,3.494H46.976Z" transform="translate(-20.832 3.766)" fill="#e0e0e0"/>
      <path id="Path_556" data-name="Path 556" d="M115.779,70.54H86.28l4.525,20.707h0a5.634,5.634,0,0,0,2.928,3.46,16.093,16.093,0,0,0,14.585,0,5.634,5.634,0,0,0,2.928-3.46h0S115.649,70.706,115.779,70.54Z" transform="translate(-84.306 -52.961)" fill="#e6e6e6"/>
      <path id="Path_557" data-name="Path 557" d="M117.03,69.354v-.278l.743-4.17h-1.821a10.736,10.736,0,0,0-3.538-3.106c-6.222-3.592-16.3-3.592-22.536,0a10.8,10.8,0,0,0-3.527,3.106H84.59l.743,4.17v.543h0a8.762,8.762,0,0,0,4.436,5.2c6.233,3.592,16.313,3.592,22.536,0a8.751,8.751,0,0,0,4.436-5.2h0Z" transform="translate(-84.49 -54.206)" fill="#e0e0e0"/>
      <path id="Path_558" data-name="Path 558" d="M89.391,57.518c-6.522,3.771-6.522,9.882,0,13.653s17.125,3.771,23.657,0,6.522-9.882,0-13.653S95.924,53.747,89.391,57.518Z" transform="translate(-84.5 -54.689)" fill="#e6e6e6"/>
      <path id="Path_559" data-name="Path 559" d="M44.4,18.47l-3.117,23-1.272.3,1.935-23.3Z" transform="translate(-19.448 2.015)" fill="#e0e0e0"/>
      <path id="Path_560" data-name="Path 560" d="M29.07,18.47l3.128,23,1.265.3-1.931-23.3Z" transform="translate(-20.641 2.015)" fill="#e0e0e0"/>
    </g>
    <g id="Plants" transform="translate(782.726 544.604)">
      <path id="Path_561" data-name="Path 561" d="M123.405,347.752l11.678-6.655s14.086-31.52,11.59-58.261c-3.106-33.273-18.788-44.907-28.016-41.2s-7.309,16.947,2.451,34.7C128.862,290.39,133.776,328.066,123.405,347.752Z" transform="translate(-67.342 -240.974)" fill="#fb6d55"/>
      <path id="Path_562" data-name="Path 562" d="M123.405,347.752l11.678-6.655s14.086-31.52,11.59-58.261c-3.106-33.273-18.788-44.907-28.016-41.2s-7.309,16.947,2.451,34.7C128.862,290.39,133.776,328.066,123.405,347.752Z" transform="translate(-67.342 -240.974)" opacity="0.2"/>
      <path id="Path_563" data-name="Path 563" d="M121.41,244.05c18.733,19.187,22.824,64.848,8.681,99" transform="translate(-66.389 -240.638)" fill="none" stroke="#fff" stroke-linecap="round" stroke-miterlimit="10" stroke-width="1.199"/>
      <path id="Path_564" data-name="Path 564" d="M95.479,363.739c-1.852,1.109-5.645-1.253-7.109-2.218a17.66,17.66,0,0,1-5.856-6.721,16.637,16.637,0,0,1-1.464-9.915,39.521,39.521,0,0,1,1.253-5.268c.488-1.7.987-3.4,1.475-5.113a13.065,13.065,0,0,0,.743-5.157c-.444-3.494-3.549-5.945-6.377-8.063-3.117-2.34-6.366-5.423-6.344-9.638,0-3.239,1.7-6.266,3.7-8.806s4.436-4.8,6.222-7.5a10.37,10.37,0,0,0,2.118-6.543,10.857,10.857,0,0,0-1.422-4.093c-1.486-2.74-3.449-5.246-4.436-8.2s-.876-6.655,1.422-8.717c1.886-1.73,4.691-1.974,7.253-1.808a16.846,16.846,0,0,1,6.735,2.374c6.655,3.715,10.5,11.634,17.6,14.5,2.728,1.109,5.734,1.353,8.584,2.107s5.756,2.218,7.076,4.847c2.606,5.2-2.218,11.612-.4,17.125,1.631,4.891,6.377,6.766,9.039,11.169a10.414,10.414,0,0,1,1.242,6.388,30.344,30.344,0,0,1-2.694,10.813,75.569,75.569,0,0,1-5.933,9.738C127.754,345.14,95.756,363.606,95.479,363.739Z" transform="translate(-71.801 -238.251)" fill="#fb6d55"/>
      <path id="Path_565" data-name="Path 565" d="M84.4,270.73c20.318,18.766,32.1,55.451,28.837,81.44" transform="translate(-70.426 -237.728)" fill="none" stroke="#fff" stroke-linecap="round" stroke-miterlimit="10" stroke-width="1.199"/>
      <path id="Path_566" data-name="Path 566" d="M82.73,306.871s16.7-1.53,27.339,6.455" transform="translate(-70.609 -233.798)" fill="none" stroke="#fff" stroke-linecap="round" stroke-miterlimit="10" stroke-width="1.199"/>
      <path id="Path_567" data-name="Path 567" d="M116.224,288s-9.795,7.675-10.3,20.673" transform="translate(-68.079 -235.844)" fill="none" stroke="#fff" stroke-linecap="round" stroke-miterlimit="10" stroke-width="1.199"/>
    </g>
    <g id="Shadows" transform="translate(871.807 635.223)">
      <ellipse id="Ellipse_6" data-name="Ellipse 6" cx="102.246" cy="48.733" rx="102.246" ry="48.733" transform="translate(0 0)" fill="#e6e6e6"/>
      <path id="Path_568" data-name="Path 568" d="M344.63,387.2c16.392,7.764,42.966,7.764,59.358,0s16.392-20.485,0-28.293-42.966-7.819-59.358,0S328.227,379.38,344.63,387.2Z" transform="translate(-132.462 -319.368)" fill="#e6e6e6"/>
    </g>
    <path id="Path_569" data-name="Path 569" d="M168.281,348.181c-1.785-.92-2.918,1.342-4.536,3.161-1.109,1.272-2.895,3.327-3.161,4.735-.388,2.14,1.553,5.546,3.693,7.387s4.625,3.194,5.413,7.286,2.362,6.51,6.585,8.33c4.647,2.008,10.858,1.364,12.965,0,2.5-1.608.211-3.327-3.327-8.381-4.569-6.533-8.119-11.2-8.119-17.291Z" transform="translate(720.605 315.302)" fill="#263238"/>
    <path id="Path_570" data-name="Path 570" d="M170.375,343l-2.862,5.878a5.268,5.268,0,0,0,1.265,7.32l.111.075a5.667,5.667,0,0,0,7.176-1.109l5.024-6.8Z" transform="translate(721.262 314.76)" fill="#ffa8a7"/>
    <path id="Path_571" data-name="Path 571" d="M202.815,237a176.531,176.531,0,0,0-1.919,28.98c0,12.1-1.819,42.445-1.819,42.445a29.147,29.147,0,0,0-11.091,10.614c-4.7,7.619-19.387,38.1-19.387,38.1s3.971,5.545,10.47,5.712c0,0,30.457-38.164,35.336-44.619s16.2-53.8,16.2-53.8Z" transform="translate(721.484 303.197)" fill="#455a64"/>
    <path id="Path_572" data-name="Path 572" d="M168.4,307.428l9.4-.932-1.475-14.892L166.1,292.611Z" transform="translate(791.117 369.807)" fill="#ffa8a7"/>
    <path id="Path_573" data-name="Path 573" d="M240.328,355.314l-.155-1.464c1.021.333,4.558,8.3,8.584,12.078,4.436,4.137,8.362,6.743,10.327,8.606,2.639,2.5-2.107,6.322-9.294,5.823-3.561-.255-9.871-2.14-11.623-4.281s-2.218-5.089-3.592-6.655-4.148-2.95-5.014-4.824c-.465-1.021-.211-3.882-.224-5.933,0-2.619.374-3.891,1.109-3.9,0,.224.189,1.3.189,1.3a6.876,6.876,0,0,0,4.381,2.484C236.657,358.686,240.8,358.209,240.328,355.314Z" transform="translate(728.103 315.944)" fill="#263238"/>
    <path id="Path_574" data-name="Path 574" d="M246.209,237l-2.961,124.107s-3.083,3.138-10.88,1.109c0,0-7.9-32.926-8.351-40.8a59.525,59.525,0,0,1,1.852-16.325L222.8,277.175,199.45,237Z" transform="translate(724.85 303.197)" fill="#455a64"/>
    <path id="Path_575" data-name="Path 575" d="M220.78,278.151c0-.278,5.313-19.686,5.313-19.686s10.392-1.753,13.9-4.215c0,0-5.922,5.545-11.579,6.533l-5.956,17.967.233,16.747Z" transform="translate(727.177 305.079)" fill="#37474f"/>
    <path id="Path_576" data-name="Path 576" d="M237.757,221.314c-3.117-15.616-1.042-28.837-.732-36.6,0-1.387,2.517,1.708,3.183,2.928l4.436,12.2s2.107,14.063,4.081,23.39c1.608,7.608,5.089,17.291,7.387,23.422,1.2,3.172,3.327,5.956,4.436,9.216a39.02,39.02,0,0,1,2.151,10.315c.156,2.218-.244,4.27-2.761,3.9a8.873,8.873,0,0,1-3.882-1.364c-3.66-2.418-5.756-6.976-7.42-10.858-1.231-2.883-4.325-8.452-5.3-12.311C240.8,235.51,238.977,227.458,237.757,221.314Z" transform="translate(728.844 297.455)" fill="#ffa8a7"/>
    <path id="Path_577" data-name="Path 577" d="M227.66,179.86c7.154.075,14.185,1.686,16.636,9.294,2.362,7.431,5.413,29,5.413,29s-3.005,3.993-13.032,3.327Z" transform="translate(727.927 296.964)" fill="#6a87e6"/>
    <path id="Path_578" data-name="Path 578" d="M227.66,179.86c7.154.075,14.185,1.686,16.636,9.294,2.362,7.431,5.413,29,5.413,29s-3.005,3.993-13.032,3.327Z" transform="translate(727.927 296.964)" opacity="0.2"/>
    <path id="Path_579" data-name="Path 579" d="M184.366,228.118c3.8-20.363,12.555-34.748,13.919-39.838l3.793,25.967a186.231,186.231,0,0,0-6.821,20.03c-1.93,7.553-4.148,17.058-4.248,23.568a4.825,4.825,0,0,0,1.164,3.161c2.029,2.362,2.529,4.292,3.8,6.876,1,2.02,2.14,2.806,1.785,3.239a2.562,2.562,0,0,1-3.483.122,18.353,18.353,0,0,1-2.961-3.061,24.022,24.022,0,0,0,1.685,7.442c2.163,5.434,1.486,8.141-5.657,5.956-4.436-1.364-7.176-5.238-7.442-16.126a85.4,85.4,0,0,1,.343-12.034C181.6,243.18,183.212,234.285,184.366,228.118Z" transform="translate(722.71 297.882)" fill="#ffa8a7"/>
    <path id="Path_580" data-name="Path 580" d="M217.8,180.288c-8.531,2.052-19.3,3.46-23.912,12.145-5.213,9.8-10.5,29.491-10.5,29.491,2.662,3.128,11.568,5.867,16.014,4.514l4.17-11.867L201.2,243.231c6.655,7.253,32.164,10.636,46.759,0V196.869c0-7.408-4.116-16.3-15.527-16.969Z" transform="translate(723.098 296.968)" fill="#6a87e6"/>
    <path id="Path_581" data-name="Path 581" d="M138.624,157.456l6.311-10.027-7.065,19.165Z" transform="translate(788.038 354.082)" fill="#6a87e6"/>
    <path id="Path_582" data-name="Path 582" d="M138.624,157.456l6.311-10.027-7.065,19.165Z" transform="translate(788.038 354.082)" opacity="0.2"/>
    <path id="Path_583" data-name="Path 583" d="M207.27,157.036l3.15,12.444a6.011,6.011,0,0,0,5.823,4.536h3.7V156.67Z" transform="translate(725.703 294.434)" fill="#263238"/>
    <path id="Path_584" data-name="Path 584" d="M244.738,154.209A13.309,13.309,0,1,1,231.429,140.9,13.309,13.309,0,0,1,244.738,154.209Z" transform="translate(726.886 292.714)" fill="#263238"/>
    <path id="Path_585" data-name="Path 585" d="M212.062,146.073a5.036,5.036,0,0,0-4.191,1.475c-1.8,1.841-1.431,5.246,0,13.076l5.545.644Z" transform="translate(725.635 293.275)" fill="#263238"/>
    <path id="Path_586" data-name="Path 586" d="M214.82,161.884c-.823.5-2-1.109-3.016-2.151s-4.348-2.529-6.011.965.954,8.273,3.494,9.317a3.882,3.882,0,0,0,5.136-1.632l1,16.215a14.517,14.517,0,0,0,10.958,8.318c8,1.109,6.355-5.545,3.727-8.751v-4.958a24.81,24.81,0,0,0,6.078.322c2.928-.555,4.359-3.26,5.734-6.735,2.052-5.169,3.327-12.5,1.542-21.782-2.351-12.3-15.971-12.566-23.79-7.652S214.82,161.884,214.82,161.884Z" transform="translate(725.484 292.659)" fill="#ffa8a7"/>
    <path id="Path_587" data-name="Path 587" d="M214.23,163.684c-.41,0-2-2.619-3.016-3.549-1.431-1.3.41-13.042.41-13.042.721-9.627,14.917-10.359,18.858-10.636,8.995-.654,15.116,4.325,12.666,10.592-1.619,2.85-4.946,3.638-8.063,4.015-5.291.644-14.293-2.218-15.427-2.351-1.53-.211-1.852,1.272-2.684,5.335C216.238,157.652,215.631,163.684,214.23,163.684Z" transform="translate(726.073 292.223)" fill="#263238"/>
    <path id="Path_588" data-name="Path 588" d="M212.035,147.308,207,144.625a2.761,2.761,0,0,1,3.782-1.253,2.984,2.984,0,0,1,1.253,3.937Z" transform="translate(725.673 292.949)" fill="#263238"/>
    <path id="Path_589" data-name="Path 589" d="M228.984,176.021s-7.42-1.486-9.982-2.862a8.54,8.54,0,0,1-3.582-3.549,11.8,11.8,0,0,0,2.029,4.182c1.9,2.418,11.556,4.2,11.556,4.2Z" transform="translate(726.592 295.846)" fill="#f28f8f"/>
    <path id="Path_590" data-name="Path 590" d="M228.155,159.685a1.482,1.482,0,1,1-1.486-1.53A1.509,1.509,0,0,1,228.155,159.685Z" transform="translate(727.654 294.595)" fill="#263238"/>
    <path id="Path_591" data-name="Path 591" d="M226.774,154.578l-3.183,1.753a1.907,1.907,0,0,1,.743-2.529,1.763,1.763,0,0,1,2.44.776Z" transform="translate(727.46 294.097)" fill="#263238"/>
    <path id="Path_592" data-name="Path 592" d="M227.01,168.479l3.394,1.272a1.786,1.786,0,0,1-2.307,1.109,1.907,1.907,0,0,1-1.087-2.385Z" transform="translate(727.845 295.724)" fill="#f28f8f"/>
    <path id="Path_593" data-name="Path 593" d="M239.384,155.882l-2.895-2.218a1.753,1.753,0,0,1,2.517-.388,1.93,1.93,0,0,1,.374,2.606Z" transform="translate(728.89 294.024)" fill="#263238"/>
    <path id="Path_594" data-name="Path 594" d="M238.6,158.913a1.5,1.5,0,0,1-1.486,1.53,1.542,1.542,0,1,1,1.486-1.53Z" transform="translate(728.785 294.509)" fill="#263238"/>
    <path id="Path_595" data-name="Path 595" d="M169.787,104.3l-1.4,8.83,4.891-.577Z" transform="translate(791.367 349.378)" fill="#f28f8f"/>
    <path id="Path_596" data-name="Path 596" d="M275.23,183.69l62.053,86.852-1.974,2.02-60.079-84.3Z" transform="translate(803.021 358.037)" fill="#263238"/>
    <path id="Path_597" data-name="Path 597" d="M301.36,175c5.368,0,8.381,4.64,11.834,12.433s20.452,48.8,22.536,50.042,4.58,1.32,6.987,3.6c3.782,3.582,6.4,3.871,4.436,5.024s-4.836-.81-4.836-.81,4.769,5.8,4.359,7.176c-1.675,5.545-13.994,2.473-15.893,0-3.083-4.037-3.571-10.06-5.1-11.878s-23.512-45.348-23.512-45.348Z" transform="translate(735.966 296.434)" fill="#b16668"/>
    <path id="Path_598" data-name="Path 598" d="M339.346,238.66c-3.494-3.8-8.629-3.8-11.036,0C328.31,238.66,332.935,234.834,339.346,238.66Z" transform="translate(738.906 303.067)" fill="#9a4a4d"/>
    <path id="Path_599" data-name="Path 599" d="M327.89,221.929c.465,1.031-3.715,15.415-3.715,15.415a5.088,5.088,0,0,1-2.085-3.649l4.1-15.527a5.457,5.457,0,0,1,1.7,3.76Z" transform="translate(738.228 301.143)" fill="#263238"/>
    <path id="Path_600" data-name="Path 600" d="M328.781,238.953l-4.07-5.837-.743,2.6L328.4,241.9a7.063,7.063,0,0,1,.374-2.95Z" transform="translate(738.433 302.774)" fill="#263238"/>
    <path id="Path_601" data-name="Path 601" d="M307.427,220.185H279.4a7.53,7.53,0,0,1-7.53-7.53V153.019a21.552,21.552,0,0,1,21.552-21.552h0a21.538,21.538,0,0,1,21.538,21.552v59.635a7.531,7.531,0,0,1-7.533,7.531Z" transform="translate(732.75 291.686)" fill="#263238"/>
    <path id="Path_602" data-name="Path 602" d="M247.727,323.02c-1.708-.865-2.784,1.286-4.325,3.017-1.109,1.22-2.773,3.138-3.016,4.525-.366,2.052,1.475,5.279,3.527,7.054s4.436,3.05,5.157,6.954,2.218,6.211,6.3,7.952c4.436,1.907,10.359,1.3,12.366,0,2.384-1.542.211-3.228-3.128-8.007-4.359-6.233-7.764-10.691-7.764-16.5Z" transform="translate(729.309 312.559)" fill="#263238"/>
    <path id="Path_603" data-name="Path 603" d="M250.582,318.42,247,323.666a5.036,5.036,0,0,0,1.209,6.987l.111.067a5.4,5.4,0,0,0,6.854-1.109l5.545-6.089Z" transform="translate(729.937 312.078)" fill="#f28f8f"/>
    <path id="Path_604" data-name="Path 604" d="M314.549,229.228c.224,6.655,1.408,31.055-3.471,43.842a120.312,120.312,0,0,1-10.148,20.862c-1.453,2.484-43.321,43.253-43.321,43.253s-7.109-.524-8.232-7.408c0,0,17.146-29.169,20.862-35.147s16.869-15.116,16.869-15.116l-1.2-56.064Z" transform="translate(730.297 301.72)" fill="#6a87e6"/>
    <path id="Path_605" data-name="Path 605" d="M314.549,229.228c.224,6.655,1.408,31.055-3.471,43.842a120.312,120.312,0,0,1-10.148,20.862c-1.453,2.484-43.321,43.253-43.321,43.253s-7.109-.524-8.232-7.408c0,0,17.146-29.169,20.862-35.147s16.869-15.116,16.869-15.116l-1.2-56.064Z" transform="translate(730.297 301.72)" opacity="0.2"/>
    <rect id="Rectangle_17" data-name="Rectangle 17" width="9.073" height="13.221" transform="translate(1045.854 668.548) rotate(167.19)" fill="#f28f8f"/>
    <path id="Path_606" data-name="Path 606" d="M297.72,249.713a55.878,55.878,0,0,0,8.082-9.327c6.766-9.338,5.723-17.645,5.723-17.645h-2.761l-36.6.754c-3.638,5.945-4.436,14.961-3.194,23.756,2.54,18.234,17.645,49.8,17.645,49.8-.211,2.5-1.265,12.987,1.109,22.281C291.473,333.992,301.7,358.8,301.7,358.8s6.41.92,9.593-2.795c0,0-5.667-50.375-7.184-63.284C302.455,278.76,297.72,249.713,297.72,249.713Z" transform="translate(732.375 301.641)" fill="#6a87e6"/>
    <path id="Path_607" data-name="Path 607" d="M297.72,249.713a55.878,55.878,0,0,0,8.082-9.327c6.766-9.338,5.723-17.645,5.723-17.645h-2.761l-36.6.754c-3.638,5.945-4.436,14.961-3.194,23.756,2.54,18.234,17.645,49.8,17.645,49.8-.211,2.5-1.265,12.987,1.109,22.281C291.473,333.992,301.7,358.8,301.7,358.8s6.41.92,9.593-2.795c0,0-5.667-50.375-7.184-63.284C302.455,278.76,297.72,249.713,297.72,249.713Z" transform="translate(732.375 301.641)" opacity="0.2"/>
    <path id="Path_608" data-name="Path 608" d="M273.53,201.087c.374-.644,11.734-16.57.055-24.777,6.2,3.327,6.522,7.83,6.522,12.255C280.107,192.669,278.41,196.118,273.53,201.087Z" transform="translate(732.93 296.577)" fill="#f28f8f"/>
    <path id="Path_609" data-name="Path 609" d="M309.124,348.915l-.288-1.265c.932.177,4.9,6.777,8.873,9.638,4.314,3.138,8.063,5,9.982,6.411,2.573,1.9-1.109,5.779-7.509,6.122-3.15.166-8.873-.787-10.658-2.473s-3.05-4.436-4.436-5.657-4.247-2.218-5.2-3.816c-.532-.843-.61-2.95-.555-4.758s.111-3.483.673-3.46l.224.965a10.935,10.935,0,0,0,5.388,1.187C307.087,351.743,309.867,351.365,309.124,348.915Z" transform="translate(735.744 315.267)" fill="#263238"/>
    <path id="Path_610" data-name="Path 610" d="M300.108,282.064s-4.27-30.312-5.268-34.459c0,0,7.52-2.862,9.826-5.49,0,0-1.652,3.671-7.034,6.932Z" transform="translate(735.255 303.753)" fill="#6a87e6"/>
    <path id="Path_611" data-name="Path 611" d="M300.108,282.064s-4.27-30.312-5.268-34.459c0,0,7.52-2.862,9.826-5.49,0,0-1.652,3.671-7.034,6.932Z" transform="translate(735.255 303.753)" opacity="0.4"/>
    <path id="Path_612" data-name="Path 612" d="M279.09,277.33s4.536,11.279,6.355,13.764c0,0-.455,8.6-.388,10.337l-2.384,2.074s-.111-7.22,1.109-11.59" transform="translate(733.537 307.596)" fill="#6a87e6"/>
    <path id="Path_613" data-name="Path 613" d="M279.09,277.33s4.536,11.279,6.355,13.764c0,0-.455,8.6-.388,10.337l-2.384,2.074s-.111-7.22,1.109-11.59" transform="translate(733.537 307.596)" opacity="0.4"/>
    <path id="Path_614" data-name="Path 614" d="M310.274,207.434c.577,5.3,2.052,27.128,2.052,27.128-17.511,9.35-39.24,3.15-42.567-.7a37.22,37.22,0,0,1,9.837-16.736l-5.678-15.837s-.673-1.619-.654-1.631c.374-.654,8.3-9.571.776-23.746l10.215-.932,14.972-.433c3.26.177,5.545.5,5.545.5,2.1,1.952,5.388,7.32,7.52,12.788C313.7,191.364,315.188,196.987,310.274,207.434Z" transform="translate(732.52 296.385)" fill="#455a64"/>
    <path id="Path_615" data-name="Path 615" d="M306.671,139.93c2.218,1.353,5.08,7.076,4.8,19.076-.233,10.17-3.527,12.677-5.179,13.409s-4.847.278-7.952-.233v6.1s4.292,4.98,4.015,7.764-6.189,3.471-10.2.732-7.4-8.063-7.4-8.063l.067-14.039s-1.819,1.774-4.925-.932c-2.551-2.218-3.416-6-1.422-8.029a4.436,4.436,0,0,1,7.087,1.422s4.946.177,11.535-3.439a18.544,18.544,0,0,0,9.572-13.764Z" transform="translate(733.351 292.608)" fill="#b16668"/>
    <path id="Path_616" data-name="Path 616" d="M298.128,154.945a1.286,1.286,0,0,1-1.209,1.387,1.331,1.331,0,0,1-.133-2.651,1.3,1.3,0,0,1,1.342,1.265Z" transform="translate(735.339 294.108)" fill="#263238"/>
    <path id="Path_617" data-name="Path 617" d="M298.2,162.6l2.972.943a1.519,1.519,0,0,1-1.93,1.109A1.631,1.631,0,0,1,298.2,162.6Z" transform="translate(735.613 295.081)" fill="#9a4a4d"/>
    <path id="Path_618" data-name="Path 618" d="M307.6,151.527l-2.6-1.8a1.509,1.509,0,0,1,2.151-.433,1.641,1.641,0,0,1,.444,2.229Z" transform="translate(736.364 293.599)" fill="#263238"/>
    <path id="Path_619" data-name="Path 619" d="M307.051,154.12a1.277,1.277,0,1,1-1.336-1.215A1.277,1.277,0,0,1,307.051,154.12Z" transform="translate(736.309 294.023)" fill="#263238"/>
    <path id="Path_620" data-name="Path 620" d="M238.33,98.64l.2,7.7,4.048-1.253Z" transform="translate(798.997 348.76)" fill="#9a4a4d"/>
    <path id="Path_621" data-name="Path 621" d="M297.37,169.494c-3.272-.433-9.982-2.362-11.091-5.024a6.884,6.884,0,0,0,2.351,3.394c2.008,1.721,8.7,3.66,8.7,3.66Z" transform="translate(734.322 295.285)" fill="#9a4a4d"/>
    <path id="Path_622" data-name="Path 622" d="M212.54,149.73l9.86,12.647-6.466-3.194Z" transform="translate(796.183 354.333)" fill="#37474f"/>
    <path id="Path_623" data-name="Path 623" d="M275.491,141.648l-4.991-2.684a2.761,2.761,0,0,1,3.782-1.253,2.984,2.984,0,0,1,1.209,3.937Z" transform="translate(732.6 292.331)" fill="#263238"/>
    <path id="Path_624" data-name="Path 624" d="M275.38,199.526s-6.9,16.426-10.414,27.517c-2.218,7.076-5.357,16.159-4.946,22.382a4.536,4.536,0,0,0,1.387,2.95c2.107,2.074,2.751,3.871,4.17,6.211,1.109,1.841,2.273,2.5,1.985,2.939a2.473,2.473,0,0,1-3.327.41,17.063,17.063,0,0,1-3.072-2.662,22.451,22.451,0,0,0,2.218,6.921c2.507,4.991-1.009,6.555-4.88,6.156-4.436-.477-6.766-4.07-7.919-14.418a64.929,64.929,0,0,1,.144-12.048,214.327,214.327,0,0,1,4.436-25.709,255.874,255.874,0,0,1,11.7-37.5c2.041-4.88,5-6.355,9.294-6.921C284.209,190.5,275.38,199.526,275.38,199.526Z" transform="translate(730.404 296.517)" fill="#b16668"/>
    <path id="Path_625" data-name="Path 625" d="M260.578,251.125c-1.841-.477-3.66-1.6-4.381.288a8.452,8.452,0,0,0,1.542,7.387c1.641,1.721,6.255,2.961,7.353,2S263.872,251.98,260.578,251.125Z" transform="translate(731.009 304.654)" fill="#ffa8a7"/>
    <path id="Path_626" data-name="Path 626" d="M410.647,341.64c-.543,3.56-2.052,13.974-6.555,18.311-1.464,1.422-13.608,5.7-14.507,5.922,0,0,2.551,3.649,1.519,4.8-1.686,1.9-5.545,1.4-8.285-3.327-1.486-2.507,1.464-4.625,2.751-5.457,1.619-1.042,6.211-4.215,8.681-5.889a4.27,4.27,0,0,0,2.151-3.891l-.233-5.945Z" transform="translate(744.808 314.612)" fill="#fb6f58"/>
    <path id="Path_627" data-name="Path 627" d="M410.647,341.64c-.543,3.56-2.052,13.974-6.555,18.311-1.464,1.422-13.608,5.7-14.507,5.922,0,0,2.551,3.649,1.519,4.8-1.686,1.9-5.545,1.4-8.285-3.327-1.486-2.507,1.464-4.625,2.751-5.457,1.619-1.042,6.211-4.215,8.681-5.889a4.27,4.27,0,0,0,2.151-3.891l-.233-5.945Z" transform="translate(744.808 314.612)" opacity="0.2"/>
    <path id="Path_628" data-name="Path 628" d="M410.21,301.588a9.449,9.449,0,0,1,7.675-.673,9.837,9.837,0,0,1,5.268,4.969,22.891,22.891,0,0,1,1.608,9.593c-.81,4.07-5.357,3.649-8.662,1.109S410.21,301.588,410.21,301.588Z" transform="translate(747.84 310.112)" fill="#fb6f58"/>
    <path id="Path_629" data-name="Path 629" d="M410.21,301.588a9.449,9.449,0,0,1,7.675-.673,9.837,9.837,0,0,1,5.268,4.969,22.891,22.891,0,0,1,1.608,9.593c-.81,4.07-5.357,3.649-8.662,1.109S410.21,301.588,410.21,301.588Z" transform="translate(747.84 310.112)" opacity="0.2"/>
    <path id="Path_630" data-name="Path 630" d="M371.244,344.346c-1.453,1.6-5.313,6.2-5.057,8.063A42.956,42.956,0,0,0,368,358.487s3.327,1.652,4.369,2.362.6,3.693-3.538,3.816-6.177-1.22-7.12-3.382c-.6-1.342-2.218-5.634-3.327-8.706a11.634,11.634,0,0,1-.3-7.01,24.178,24.178,0,0,1,2.395-6.255C362.283,336.8,371.244,344.346,371.244,344.346Z" transform="translate(742.11 314.301)" fill="#fb6f58"/>
    <path id="Path_631" data-name="Path 631" d="M371.244,344.346c-1.453,1.6-5.313,6.2-5.057,8.063A42.956,42.956,0,0,0,368,358.487s3.327,1.652,4.369,2.362.6,3.693-3.538,3.816-6.177-1.22-7.12-3.382c-.6-1.342-2.218-5.634-3.327-8.706a11.634,11.634,0,0,1-.3-7.01,24.178,24.178,0,0,1,2.395-6.255C362.283,336.8,371.244,344.346,371.244,344.346Z" transform="translate(742.11 314.301)" opacity="0.2"/>
    <path id="Path_632" data-name="Path 632" d="M344.059,366.589a2.394,2.394,0,0,1-.543-.244,5.912,5.912,0,0,1-2.329-3.727,26.54,26.54,0,0,1-.156-7.764c.211-3.56,8.762-10.891,9.86-14.274.2-18.2,7.675-22.8,13.664-24.954,10.148-3.638,15.527-.7,20.684,2.218,6.022,3.394,13.8,5.545,16.1-1.542,2.218-6.754,4.49-13.309,12.965-14.7,5.79-.909,11.434,1.586,13.309,5.545s1.586,10.736,2.795,13.476,4.215,4.8,3.327,6.932a9.191,9.191,0,0,1-1.342,2.218h-.055a.133.133,0,0,1-.075.133c-.122.155-.255.277-.374.41a7.765,7.765,0,0,1-1.553,1.286,7.3,7.3,0,0,1-2.484,1.042,3.728,3.728,0,0,1-.674.156l-.766.1c-3.449.278-9.394-1.7-9.394-1.7-.177.654-.3,1.32-.421,1.952-1.53,7.586.1,13.164-3.527,17.96a17.257,17.257,0,0,1-17.7,6.932,112.563,112.563,0,0,1,2.651,11.834,77.5,77.5,0,0,1,1.375,11.723s6.932,2.629,5.956,5.823c-.3.973-3.218,1.675-7.483,1s-5.291-3.826-5.546-6.1a97.857,97.857,0,0,0-3.527-13.1l-.4-1.042c-2.828-7.109-6.011-11.723-12.067-16.392-5.357-4.137-8.151-6.2-11.6-7.309a24.785,24.785,0,0,0-2.562,2.6c-.688.644-1.4,1.272-2.14,1.863a23.138,23.138,0,0,1-3.272,2.107c-1,.532-2.02,1.021-2.972,1.631-1.475.943-3.239,1.486-4.514,2.74a6.177,6.177,0,0,0-1.852,5.057V362.7a5.866,5.866,0,0,1-.488,2.906,2.32,2.32,0,0,1-2.876.982Z" transform="translate(740.271 310.225)" fill="#ff8e7b"/>
    <path id="Path_633" data-name="Path 633" d="M426.976,327.464l-.133.156c-.122.156-.255.278-.374.41a7.865,7.865,0,0,1-1.553,1.286,7.3,7.3,0,0,1-2.484,1.042,3.726,3.726,0,0,1-.673.156l-.766.1c-3.449.278-9.394-1.7-9.394-1.7a18.673,18.673,0,0,0-.421,1.952c-1.53,7.586.1,13.164-3.527,17.96a17.257,17.257,0,0,1-17.634,6.9c-1.109-8.928,9.183-11.756,12.2-19.1,2.273-5.545,2.362-10.958,4.159-12.766s6.255-1.331,9.483.954c2.717,1.907,5.856,3.5,7.941,2.163.787-.51,2.562.987,3.094.5A.417.417,0,0,1,426.976,327.464Z" transform="translate(745.626 312.551)" fill="#fb6f58"/>
    <path id="Path_634" data-name="Path 634" d="M426.976,327.464l-.133.156c-.122.156-.255.278-.374.41a7.865,7.865,0,0,1-1.553,1.286,7.3,7.3,0,0,1-2.484,1.042,3.726,3.726,0,0,1-.673.156l-.766.1c-3.449.278-9.394-1.7-9.394-1.7a18.673,18.673,0,0,0-.421,1.952c-1.53,7.586.1,13.164-3.527,17.96a17.257,17.257,0,0,1-17.634,6.9c-1.109-8.928,9.183-11.756,12.2-19.1,2.273-5.545,2.362-10.958,4.159-12.766s6.255-1.331,9.483.954c2.717,1.907,5.856,3.5,7.941,2.163.787-.51,2.562.987,3.094.5A.417.417,0,0,1,426.976,327.464Z" transform="translate(745.626 312.551)" fill="#fff" opacity="0.5"/>
    <path id="Path_635" data-name="Path 635" d="M411.317,329.679c-3.715.2-16.159-4.116-15.939-14.019a5.545,5.545,0,0,0-2.95,3.161s1.608,11.867,18.2,14.263a2.939,2.939,0,0,0,.689-3.4Z" transform="translate(745.902 311.778)" fill="#263238"/>
    <path id="Path_636" data-name="Path 636" d="M409.95,304.748a9.349,9.349,0,0,0-12.2-1.2c-4.215,2.74-4.514,6.777-4.569,9.294-.067,3.05,1.509,8.452,4.569,8.662s5.657-5.546,6.2-8.374a14.174,14.174,0,0,1,6-8.385Z" transform="translate(745.981 310.268)" fill="#fb6d55"/>
    <path id="Path_637" data-name="Path 637" d="M409.95,304.748a9.349,9.349,0,0,0-12.2-1.2c-4.215,2.74-4.514,6.777-4.569,9.294-.067,3.05,1.509,8.452,4.569,8.662s5.657-5.546,6.2-8.374a14.174,14.174,0,0,1,6-8.385Z" transform="translate(745.981 310.268)" opacity="0.2"/>
    <path id="Path_638" data-name="Path 638" d="M356.818,319.007c-1.642-3.748-.524-11.346,4.991-15.239s13.709-3.66,17.479,0c3.382,3.327,5.545,8.951,1.941,14.274s-8.728,3.738-8.418,1.309c.721-5.545-4.048-9.582-8.1-8.773s-4.78,6.4-4.78,6.4a18.161,18.161,0,0,0-3.117,2.029Z" transform="translate(741.941 310.171)" fill="#fb6d55"/>
    <path id="Path_639" data-name="Path 639" d="M356.818,319.007c-1.642-3.748-.524-11.346,4.991-15.239s13.709-3.66,17.479,0c3.382,3.327,5.545,8.951,1.941,14.274s-8.728,3.738-8.418,1.309c.721-5.545-4.048-9.582-8.1-8.773s-4.78,6.4-4.78,6.4a18.161,18.161,0,0,0-3.117,2.029Z" transform="translate(741.941 310.171)" opacity="0.2"/>
    <path id="Path_640" data-name="Path 640" d="M423.062,327.988a5.179,5.179,0,0,1-4.037-2.1,2.218,2.218,0,0,1,1.109-3.039,8.019,8.019,0,0,1,4.093-.444,2.562,2.562,0,0,1,1.442,2.462C425.49,325.293,424.569,327.733,423.062,327.988Z" transform="translate(748.776 312.504)" fill="#263238"/>
    <path id="Path_641" data-name="Path 641" d="M409.69,315.586a1.353,1.353,0,1,1,.636,1.272A1.353,1.353,0,0,1,409.69,315.586Z" transform="translate(747.783 311.637)" fill="#263238"/>
    <circle id="Ellipse_7" data-name="Ellipse 7" cx="1.22" cy="1.22" r="1.22" transform="translate(1168.232 624.82)" fill="#263238"/>
  </g>
</svg>
