<svg xmlns="http://www.w3.org/2000/svg" xmlns:xlink="http://www.w3.org/1999/xlink" width="428.315" height="348.922" viewBox="0 0 428.315 348.922">
  <defs>
    <linearGradient id="linear-gradient" x1="1" y1="0.5" x2="0" y2="0.5" gradientUnits="objectBoundingBox">
      <stop offset="0" stop-color="#2a5580"/>
      <stop offset="1" stop-color="#3e6970"/>
    </linearGradient>
    <linearGradient id="linear-gradient-2" x1="1" y1="0.5" x2="0" y2="0.5" gradientUnits="objectBoundingBox">
      <stop offset="0" stop-color="#a16f44"/>
      <stop offset="1" stop-color="#c99675"/>
    </linearGradient>
    <linearGradient id="linear-gradient-3" x1="0.1" y1="-0.003" x2="0.827" y2="1.085" xlink:href="#linear-gradient-2"/>
    <linearGradient id="linear-gradient-4" x1="1.096" y1="1.017" x2="-0.361" y2="-0.575" xlink:href="#linear-gradient-2"/>
    <linearGradient id="linear-gradient-5" x1="0.025" y1="1.02" x2="1.149" y2="-0.456" xlink:href="#linear-gradient-2"/>
    <linearGradient id="linear-gradient-6" x1="0.535" y1="0.792" x2="0.45" y2="-0.068" gradientUnits="objectBoundingBox">
      <stop offset="0.18" stop-color="#ebd5c8"/>
      <stop offset="1" stop-color="#c99675"/>
    </linearGradient>
    <linearGradient id="linear-gradient-7" x1="0.422" y1="0.188" x2="1.166" y2="1.159" gradientUnits="objectBoundingBox">
      <stop offset="0.18" stop-color="#ebd5c8"/>
      <stop offset="1" stop-color="#ffc4c4"/>
    </linearGradient>
    <linearGradient id="linear-gradient-8" x1="1" y1="0.5" x2="0" y2="0.5" xlink:href="#linear-gradient-7"/>
    <linearGradient id="linear-gradient-9" x1="-1.694" y1="-0.982" x2="1.425" y2="1.144" xlink:href="#linear-gradient-2"/>
    <linearGradient id="linear-gradient-10" x1="1.089" y1="0.608" x2="-5.231" y2="-0.409" gradientUnits="objectBoundingBox">
      <stop offset="0" stop-color="#a47248"/>
      <stop offset="1" stop-color="#c99675"/>
    </linearGradient>
    <linearGradient id="linear-gradient-11" x1="0.227" y1="0.969" x2="1.709" y2="-1.449" xlink:href="#linear-gradient-2"/>
  </defs>
  <g id="Group_10" data-name="Group 10" transform="translate(0 0)">
    <g id="Group_4" data-name="Group 4" transform="translate(9.147 311.665)">
      <ellipse id="Ellipse_3" data-name="Ellipse 3" cx="209.584" cy="18.629" rx="209.584" ry="18.629" opacity="0.17" fill="url(#linear-gradient)"/>
    </g>
    <path id="Path_424" data-name="Path 424" d="M710.356,1353.4a15.575,15.575,0,0,1,10.33-5.676c6.645-.648,12.321-3.62,8.194-13.415,0,0,.965,6.191-1.42,7.289s-10.539-.969-16.01,4.256S710.356,1353.4,710.356,1353.4Z" transform="translate(-511.67 -1237.073)" fill="#b98661"/>
    <path id="Path_425" data-name="Path 425" d="M862.242,1330.22s1.488,6.006,2.092,7.47,1.718,15.913,0,16.09-4.131,0-4.131,2.583,6.71,2.578,7.486,2.063,2.578-13.053,2.751-14.783,2.064-4.743,1.975-6.46S862.306,1326.793,862.242,1330.22Z" transform="translate(-714.75 -1234.153)" fill="url(#linear-gradient-2)"/>
    <path id="Path_426" data-name="Path 426" d="M756.89,1224.105c1.09,4.047,2.6,6.195,1.935,18.621a21.758,21.758,0,0,0,2.064,9.2,39.35,39.35,0,0,0,4.425,7.719,29.2,29.2,0,0,0,9.783,8.882c1.472.752,3.089,1.693,4.8,2.727h0c8.9,5.39,20.362,13.419,27.353,11.11,8.343-2.751,8.447-12.985,6.794-21.5s-10.495-16.859-14.192-18.234-12.643-5.418-13.158-7.052-4.827-3.1-6.11-6.883.949-8.6-.515-14.276-10.278-6.066-11.05-7.615-3.443-2.148-3.443-2.148,1.935,1.677-1.42,2.011-5.229-.591-6.706,2.281C754.006,1215.634,755.945,1220.618,756.89,1224.105Z" transform="translate(-615.09 -1159.575)" fill="url(#linear-gradient-3)"/>
    <path id="Path_427" data-name="Path 427" d="M909.374,1200.937s.5-1.677-2.45-3.741-13.464-5.354-13.721-4,6.867,13.351,13.721,15.736S909.374,1200.937,909.374,1200.937Z" transform="translate(-766.372 -1152.533)" fill="url(#linear-gradient-4)"/>
    <path id="Path_428" data-name="Path 428" d="M819.332,1200.336a4.78,4.78,0,0,1,1.718-2.888c1.549-1.291,12-8.9,13.548-6.646s-7.128,15.833-8.653,17S819.481,1203.868,819.332,1200.336Z" transform="translate(-660.674 -1151.044)" fill="url(#linear-gradient-5)"/>
    <path id="Path_429" data-name="Path 429" d="M861.168,1253.738a2.35,2.35,0,0,1-2.494-1.722c-.257-.945.99-1.416,2.494-1.287s2.414.8,2.414,1.247S863.147,1253.641,861.168,1253.738Z" transform="translate(-705.285 -1187.1)" fill="#473a31"/>
    <path id="Path_430" data-name="Path 430" d="M882.411,1238.383c.177-1.3,0-2.582-2.068-2.711s-2.643,2.064-1.742,2.711S882.263,1239.449,882.411,1238.383Z" transform="translate(-732.032 -1178.109)" fill="#473a31"/>
    <path id="Path_431" data-name="Path 431" d="M848.085,1238.383c-.177-1.3,0-2.582,2.063-2.711s2.647,2.064,1.742,2.711S848.23,1239.449,848.085,1238.383Z" transform="translate(-689.741 -1178.109)" fill="#473a31"/>
    <path id="Path_432" data-name="Path 432" d="M838.435,1287.172a39.362,39.362,0,0,0,4.425,7.719,29.207,29.207,0,0,0,9.783,8.882c1.472.752,3.089,1.693,4.8,2.727h0c-3.866-4.071.8-21.034,1.609-23.806s-1.7-6.066-3.379-8.648.451-3.62.451-3.62a3.525,3.525,0,0,1-2.776-1.287c-1.38-1.384.527-3.435.8-3.713-1.307,1.207-3.725,1.754-8.138,1.207-4.24-.531-5.937-2.816-6.082-3.013,1.513,2.261,1.038,6.762,1.3,9.916s-2.6,1.734-2.707,1.677c.077.048,1.83,1.106.294,4.26C837.441,1282.253,838.391,1284.119,838.435,1287.172Z" transform="translate(-692.637 -1194.818)" fill="url(#linear-gradient-6)"/>
    <path id="Path_433" data-name="Path 433" d="M863.976,1264.441a5.346,5.346,0,0,1-3.375,2.056,7.148,7.148,0,0,1-1.987.048c-.684-.068-1.388-.129-2.076-.185s-1.368-.109-2.044-.205a10.934,10.934,0,0,1-1.975-.427,8.226,8.226,0,0,1-1.83-.849,10.351,10.351,0,0,1-1.609-1.3,7.535,7.535,0,0,0,1.408,1.565,7.343,7.343,0,0,0,1.843,1.074,14.118,14.118,0,0,0,4.147.8l2.072.149A6.914,6.914,0,0,0,860.7,1267a5.155,5.155,0,0,0,1.939-.929,4.642,4.642,0,0,0,1.339-1.633Z" transform="translate(-701.834 -1194.794)" fill="#866d5c"/>
    <path id="Path_434" data-name="Path 434" d="M911.176,1204.539a7.346,7.346,0,0,0-3.789-4.111c-2.771-1.106-9.252-3.592-9.385-2.655s6.862,11.263,11.187,13.09C909.164,1210.862,910.963,1210.21,911.176,1204.539Z" transform="translate(-768.712 -1155.334)" fill="url(#linear-gradient-7)"/>
    <path id="Path_435" data-name="Path 435" d="M823.319,1202.725s8.64-9.324,12.036-9.063-5.539,13.914-6.9,13.838S822.591,1203.489,823.319,1202.725Z" transform="translate(-663.583 -1152.998)" fill="url(#linear-gradient-8)"/>
    <path id="Path_436" data-name="Path 436" d="M829.228,1317.926a31.5,31.5,0,0,0,.837,10c.965,4.127,1.034,12.776,0,12.647s-4.32-.712-4.256,1.806,2.192,2.964,4,3.029,4.968-.129,5.1-4.32,3.805-16.581,4.449-23.158.326-11.356-2.063-12.385S829.936,1313.666,829.228,1317.926Z" transform="translate(-668.14 -1219.828)" fill="url(#linear-gradient-9)"/>
    <path id="Path_437" data-name="Path 437" d="M760.91,1315.2c-1.689,3.319-7.3,6.436-2.711,15.575s9.743,12.828,8.58,12.981-8.58-1.074-10.708,1.312.257,3.162,3.874,3.62,19.413.129,20.833-.9,1.645-4.139,2.872-6.4,2.84-13.476-1.452-22.313S764.265,1308.616,760.91,1315.2Z" transform="translate(-585.116 -1223.241)" fill="#b98661"/>
    <path id="Path_438" data-name="Path 438" d="M897.026,1213.34c0,.129-1.452-.153-1.537.559,0,0,.744-.282.768.47s-2.538,4.948-1.7,6.086,4.284-3.62,3.359-5.153S897.026,1213.34,897.026,1213.34Z" transform="translate(-754.161 -1164.764)" fill="url(#linear-gradient-10)"/>
    <path id="Path_439" data-name="Path 439" d="M847.387,1220.95a1.959,1.959,0,0,0-.708-2.011c-1.066-.965-.519-1.742-.519-1.742s-1.207.092-.74,1.078-1.452.117-1.87-.849-1.388-2.357-2.128-1.742S843.517,1220.315,847.387,1220.95Z" transform="translate(-682.172 -1166.074)" fill="url(#linear-gradient-11)"/>
    <rect id="Rectangle_2" data-name="Rectangle 2" width="81.722" height="7.486" transform="translate(208.749 126.014) rotate(-179.57)" fill="#323657"/>
    <rect id="Rectangle_3" data-name="Rectangle 3" width="77.595" height="7.108" transform="translate(127.795 125.119) rotate(-107)" fill="#323657"/>
    <rect id="Rectangle_4" data-name="Rectangle 4" width="6.376" height="185.4" transform="translate(33.146 135.138)" fill="#706865"/>
    <rect id="Rectangle_5" data-name="Rectangle 5" width="216.362" height="11.171" transform="translate(0 123.963)" fill="#b59074"/>
    <rect id="Rectangle_6" data-name="Rectangle 6" width="6.376" height="185.4" transform="translate(177.58 135.134)" fill="#706865"/>
    <path id="Path_440" data-name="Path 440" d="M768.59,1362.556a54.644,54.644,0,0,1-6.247.917c-2.019.064-11.372-4.175-14.365-3.773s-22.5,8.693-23.387,9.3.4,1.935.4,1.935l44.808.535Z" transform="translate(-557.457 -1252.233)" fill="#eea886"/>
    <path id="Path_441" data-name="Path 441" d="M499.368,1825.21l2.872,6.219s12.1-4.513,12.164-4.662-3.331-8.636-3.331-8.636Z" transform="translate(-211.589 -1526.273)" fill="#515269"/>
    <path id="Path_442" data-name="Path 442" d="M762.061,1835.4l-3.351,9.787s13.274,2.925,15.213,2.768c.169,0,2.514-11.082,2.514-11.082Z" transform="translate(-577.944 -1536.595)" fill="#6a6b8a"/>
    <path id="Path_443" data-name="Path 443" d="M810.653,1851.557s-9.28-2.522-9.558-2.92-3.681-2.7-5.435-2.413-1.915,2.413-3.669,2.816-15.318,4.767-17.2,5.873-10.861-2.156-12.579.169-3.407,8.447,10.692,10.547,29.2,8.4,32.583,7.546S811.164,1855.318,810.653,1851.557Z" transform="translate(-613.189 -1543.05)" fill="#c4c6d1"/>
    <path id="Path_444" data-name="Path 444" d="M511.069,1835.47s-8.6,3.673-9.055,3.532-4.425.157-5.6,1.44,0,2.981-1.1,4.365-7.212,9.5-9.007,11.376c-1.468,1.533-9.517,2.965-12.1,5.664-1.947,2.036.338,10.169,14.039,6.283,13.335-3.785,29.851-10.346,31.911-13.037S513.728,1838.028,511.069,1835.47Z" transform="translate(-207.301 -1536.637)" fill="#c4c6d1"/>
    <path id="Path_445" data-name="Path 445" d="M450.105,1502.531s-37.84,16.826-45.857,22.579-25.572,16.344-26.147,18.938-4.059.065,2.168,13.021,35.664,44.123,38.424,47.515c2.876,3.532,23.295,24.7,23.295,24.7l15.33-11.565s-29.526-43.42-33.79-49.8-6.2-7.333-3.669-10.153,12.619-2.776,64.586-24.3c5.193-2.152,19.682-7.136,21.593-14.107,3.451-12.6.491-28.56-13.476-35.592S450.105,1502.531,450.105,1502.531Z" transform="translate(-155.158 -1325.683)" fill="#34395c"/>
    <path id="Path_446" data-name="Path 446" d="M502.633,1221.858a5.587,5.587,0,0,1,1.07,1.818,44.582,44.582,0,0,1,1.673,4.972c1.714,6,3.274,13.705,3.274,13.705s21.36-17.892,18.3-19.027-5.028-6.557-5.028-6.557S500.348,1219.831,502.633,1221.858Z" transform="translate(-225.679 -1166.814)" fill="#eea886"/>
    <path id="Path_447" data-name="Path 447" d="M423.51,1384.37s17.575,33.6,18.339,46.2,36.69-3.962,36.69-3.962Z" transform="translate(-145.208 -1266.995)" fill="#eddcc5"/>
    <path id="Path_448" data-name="Path 448" d="M423.726,1493.59l-.4,3.134-.628,4.131h0c.543-.032,35.089-2.2,37.591-1.569s-4.759-8.146-4.759-8.146Z" transform="translate(-127.154 -1330.817)" fill="#323657"/>
    <path id="Path_449" data-name="Path 449" d="M488.152,1512.527s-39.091,9.2-48.758,12.285-26.3,8.528-30.765,11.078c-2.377,1.355-6,3.383-10.342,17.51-4.92,16.014-16.155,61.046-18.7,68.062-1.609,4.425-6.207,21.722-6.207,21.722l19.976,3.463s23.781-47.881,25.72-60.624c3.246-21.493,11.577-21.605,14.944-23.564s19.57,1.718,77.233-2.88c5.76-.463,21.513-.748,25.592-6.963,7.365-11.235,14.8-23.994,3.359-35.29S488.152,1512.527,488.152,1512.527Z" transform="translate(-192.609 -1342.49)" fill="#494f80"/>
    <path id="Path_450" data-name="Path 450" d="M504.357,1112.376s-6.766,11.665-5.229,14.883-7.064,10.861-5.652,12.47,4.328,3.62,4.276,4.083,2.5,15.688,5.825,16.046,26.018-.837,27.9-7.937,7.418-22.651,8.721-25.539S528.417,1101.2,504.357,1112.376Z" transform="translate(-235.038 -1102.553)" fill="#eea886"/>
    <path id="Path_451" data-name="Path 451" d="M510.074,1100.13a25.1,25.1,0,0,1,4.638,4.425c1.488.7,10.266,5.06,8.447,9.771-2.454,6.34-12.381,23.331-13.218,25.1-.109.237-.113-.209-.028-1.162-.611-6-7.993-12.719-7.993-12.719l-3.938-1.778a11.525,11.525,0,0,0,1.243-7.39c-4.469-4.8-19.288-9.952-19.288-9.952C482.052,1085.291,500.142,1092.749,510.074,1100.13Z" transform="translate(-212.774 -1092.58)" fill="#403429"/>
    <path id="Path_452" data-name="Path 452" d="M518.851,1160.8c1.05-1.609,6.577-1.335,5.768,3.379s-7.587,8.5-9.063,6.4S517.736,1162.506,518.851,1160.8Z" transform="translate(-228.256 -1132.828)" fill="#eea886"/>
    <path id="Path_453" data-name="Path 453" d="M402.823,1232.7s27.43,15.982,33.621,43.894,17.382,76.924,17.579,82.728c0,0-37.12-17.864-57.225-12.948,0,0-12.659-45.483-19.308-56.224s3.238-36,3.238-36S390.176,1239,402.823,1232.7Z" transform="translate(-101.255 -1176.336)" fill="#fff"/>
    <path id="Path_454" data-name="Path 454" d="M532.94,1230.569a44.582,44.582,0,0,1,1.673,4.972c3.242-1.348,9.425-7.052,9.614-7.241C541.649,1229.31,532.94,1230.569,532.94,1230.569Z" transform="translate(-254.916 -1173.706)" fill="#a77860"/>
    <path id="Path_455" data-name="Path 455" d="M552.743,1255.357a71.457,71.457,0,0,0-6.935,10.33c-4.578,7.949-8.29,15.8-9.284,17.566-2.011,3.588-9.147,7.281-12.329,8.645-2.924,1.255-53.387,2.329-54,2.273s.728,15.326.728,15.326,69.659,1.991,72.7-.8,11.834-13.275,15.527-18.48c3.516-4.964,8.91-13.105,11.77-16.613,3.218-3.922,9.912-17.341,1.38-24.035C561.387,1241.029,555.358,1251.431,552.743,1255.357Z" transform="translate(-261.847 -1184.46)" fill="#fff"/>
    <path id="Path_456" data-name="Path 456" d="M517.983,1327.45s-6.754,19.875-11.46,27.112a97.987,97.987,0,0,0-8.021,15.877l-4.871-12.824S513.3,1333.979,517.983,1327.45Z" transform="translate(-212.859 -1232.972)" fill="#ccc"/>
    <path id="Path_457" data-name="Path 457" d="M346.344,1865l-1.669,4.686-70.395-21.814,3.371-9.489Z" transform="translate(47.015 -1538.377)" fill="#918783"/>
    <rect id="Rectangle_7" data-name="Rectangle 7" width="8.001" height="76.537" transform="translate(318.881 229.616)" fill="#918783"/>
    <rect id="Rectangle_8" data-name="Rectangle 8" width="47.193" height="4.509" transform="translate(299.283 225.549)" fill="#5e5854"/>
    <path id="Path_458" data-name="Path 458" d="M447.09,1864.113l1.669,4.686,70.4-21.814-3.094-10.085Z" transform="translate(-195.309 -1537.492)" fill="#918783"/>
    <path id="Path_459" data-name="Path 459" d="M447.09,1868.3v5.455l22.462-26.766-3.093-10.085Z" transform="translate(-145.707 -1537.492)" fill="#918783"/>
    <circle id="Ellipse_4" data-name="Ellipse 4" cx="6.581" cy="6.581" r="6.581" transform="translate(251.777 342.447) rotate(-135)" fill="#bfb2ac"/>
    <path id="Path_460" data-name="Path 460" d="M471.6,1910.981a6.581,6.581,0,1,0,6.565-6.581A6.581,6.581,0,0,0,471.6,1910.981Z" transform="translate(-170.776 -1577.84)" fill="#bfb2ac"/>
    <ellipse id="Ellipse_5" data-name="Ellipse 5" cx="6.6" cy="6.6" rx="6.6" ry="6.6" transform="matrix(-0.16, -0.987, 0.987, -0.16, 385.665, 340.248)" fill="#bfb2ac"/>
    <rect id="Rectangle_9" data-name="Rectangle 9" width="111.803" height="17.084" rx="8.542" transform="translate(266.668 208.469)" fill="#918783"/>
    <rect id="Rectangle_10" data-name="Rectangle 10" width="62.724" height="106.787" rx="31.362" transform="translate(341.866 89.715)" fill="#918783"/>
    <path id="Path_461" data-name="Path 461" d="M308.437,1548.5c11.368,0,20.588-3.817,27.406-11.344,15.414-17.02,12.643-46.932,12.518-48.2a4.289,4.289,0,0,0-8.536.845c.032.342,2.486,27.454-10.358,41.609-5.193,5.728-12.068,8.512-21.03,8.512a4.288,4.288,0,1,0,0,8.576Z" transform="translate(32.714 -1327.199)" fill="#918783"/>
    <path id="Path_462" data-name="Path 462" d="M1095.487,1316.05s9.232,1.38,22.7,8.536S1107.635,1326.742,1095.487,1316.05Z" transform="translate(-1059.151 -1226.158)" fill="#757d28"/>
    <path id="Path_463" data-name="Path 463" d="M1111.18,1312.21s-6.7-12.768-17.112-18.6c0,0,3.021,8.85,14.007,18.379S1111.18,1312.21,1111.18,1312.21Z" transform="translate(-1050.323 -1212.744)" fill="#5c9e33"/>
    <path id="Path_464" data-name="Path 464" d="M1062.177,1299.192s6.915-8.447,9.682-12.3-5.8,17.977-6.516,20.286S1061.714,1311.489,1062.177,1299.192Z" transform="translate(-995.965 -1208.459)" fill="#4d8b33"/>
    <path id="Path_465" data-name="Path 465" d="M1096.229,1312.962c-3.073-4.614-5.229-25.342-5.229-25.342,5.382,4.457,10.459,24.5,10.459,24.5S1099.307,1317.572,1096.229,1312.962Z" transform="translate(-1036.631 -1209.164)" fill="#b1c265"/>
    <path id="Path_466" data-name="Path 466" d="M1087.651,1307.913c-.925-1.959.306-27.4,1.042-25.093s4.92,11.834,4.92,11.834C1094.24,1300.431,1088.56,1309.872,1087.651,1307.913Z" transform="translate(-1027.353 -1206.207)" fill="#92a05b"/>
    <path id="Path_467" data-name="Path 467" d="M1040.753,1303.372c1.629-2.965,17.74-18.862,17.74-18.862-.157,4.92-10.145,16.6-10.145,16.6S1039.124,1306.336,1040.753,1303.372Z" transform="translate(-973.375 -1207.305)" fill="#c7ca7f"/>
    <path id="Path_468" data-name="Path 468" d="M1014.2,1343.523a73.506,73.506,0,0,1,36.123-3.29c-2.562,3.52-26.9,3.29-26.9,3.29Z" transform="translate(-954.602 -1240.063)" fill="#5c9e33"/>
    <path id="Path_469" data-name="Path 469" d="M1017.525,1328.614c9.453-10.294,31.734-15.254,31.734-15.254-6.585,6.722-16.038,12.619-16.038,12.619S1008.072,1338.907,1017.525,1328.614Z" transform="translate(-954.021 -1224.55)" fill="#518330"/>
    <path id="Path_470" data-name="Path 470" d="M1034.095,1318.234c5.535-10.234,26.6-20.354,26.6-20.354,0,3.218-17.072,18.246-17.072,18.246S1028.551,1328.472,1034.095,1318.234Z" transform="translate(-972.485 -1215.297)" fill="#6c9f44"/>
    <path id="Path_471" data-name="Path 471" d="M1113.589,1327.473c-4.143-.76-19.521-15.833-19.521-15.833,4,.769,19.521,10.6,19.521,10.6S1117.736,1328.233,1113.589,1327.473Z" transform="translate(-1051.839 -1223.522)" fill="#4a8a33"/>
    <path id="Path_472" data-name="Path 472" d="M1123.387,1335.989c-5.229.221-21.979-10.209-21.979-10.209,5.012,0,16.521,3.037,22.144,4.61a8.343,8.343,0,0,1,5,3.922C1131.565,1339.626,1127.945,1335.8,1123.387,1335.989Z" transform="translate(-1069.018 -1231.974)" fill="#689c2f"/>
    <path id="Path_473" data-name="Path 473" d="M1111.362,1339.878c1.561-.125,11.617.322,15.938.523a7.643,7.643,0,0,1,4.646,1.826c1.862,1.609,1.319,2.816-1.207,3.331C1127.344,1346.246,1109.363,1340.035,1111.362,1339.878Z" transform="translate(-1076.354 -1240.388)" fill="#478b33"/>
    <path id="Path_474" data-name="Path 474" d="M1080.031,1302.357a13.372,13.372,0,0,1-.217-4.827c.736-5.475,3.278-22.43,7.007-25,0,0,1.685,21.967-1.842,29.365C1082.332,1307.438,1080.747,1305.386,1080.031,1302.357Z" transform="translate(-1017.846 -1200.144)" fill="#61a23e"/>
    <path id="Path_475" data-name="Path 475" d="M1105.072,1322.127c-2.116-2.011-10.724-21.557-10.724-21.557,8.045,4.714,11.666,14.276,11.666,14.276S1107.192,1324.138,1105.072,1322.127Z" transform="translate(-1042.859 -1216.905)" fill="#5c9b3b"/>
    <path id="Path_476" data-name="Path 476" d="M1084.832,1357.85l-2.659,17.281h-31.364l-2.659-17.281Z" transform="translate(-1002.768 -1251.144)" fill="#31535f"/>
    <path id="Path_477" data-name="Path 477" d="M1048.15,1357.85h36.682l-2.659,17.3h-6.6s-5.632-11.062-26.657-12.281Z" transform="translate(-1002.767 -1251.144)" fill="#27434c"/>
    <rect id="Rectangle_11" data-name="Rectangle 11" width="39.594" height="5.772" transform="translate(43.926 102.99)" fill="#31535f"/>
  </g>
</svg>
