<svg xmlns="http://www.w3.org/2000/svg" xmlns:xlink="http://www.w3.org/1999/xlink" width="423.304" height="357.813" viewBox="0 0 423.304 357.813">
  <defs>
    <linearGradient id="linear-gradient" x1="0.5" y1="1" x2="0.5" gradientUnits="objectBoundingBox">
      <stop offset="0" stop-color="gray" stop-opacity="0.251"/>
      <stop offset="0.54" stop-color="gray" stop-opacity="0.122"/>
      <stop offset="1" stop-color="gray" stop-opacity="0.102"/>
    </linearGradient>
  </defs>
  <g id="Group_4" data-name="Group 4" transform="translate(0.486)">
    <path id="Path_1" data-name="Path 1" d="M269.855,38.721c13.513-12.035,34.712-14.489,54.013-13.53C384.486,28.2,439.21,57.466,486.526,90.566c17.137,11.98,34,24.9,45.127,41.4,22.639,33.592,15.925,80.129-15.575,107.8-10.709,9.413-23.7,16.632-37.044,23.03-23.7,11.366-49.277,20.509-76.193,23.111-19.183,1.852-38.6.345-57.671-2.24-53.285-7.228-105.589-23.207-149.44-50.544-19.229-11.993-37.352-26.9-45.274-46.3s-2.787-43.948,16.847-55.453c8.12-4.748,17.828-6.9,27.333-8.907,13.988-2.947,28.2-5.893,40.833-11.913,13.05-6.222,28.482-18.261,25.9-32.039C258.6,63.73,256.385,50.744,269.855,38.721Z" transform="translate(-126.221 -25.003)" fill="#ff4123" opacity="0.1"/>
    <ellipse id="Ellipse_1" data-name="Ellipse 1" cx="200.102" cy="30.751" rx="200.102" ry="30.751" transform="translate(22.614 296.311)" fill="#ff4123" opacity="0.1"/>
    <path id="Path_2" data-name="Path 2" d="M592.438,396.729s-2.568-.779-5.982-1.76a11.94,11.94,0,0,0-4.816-1.355c-4.029-1.107-8.167-2.16-10.406-2.488-5.3-.779-14.658-3.734-14.658-3.734-3.587.311-7.329-2.336-7.329-2.336s-3.869-7-6.117-8.545a1.681,1.681,0,0,0-.282-.173,5.326,5.326,0,0,1-.884-.644c-2.311-7.535-7.358-8-7.619-8.023h0c-.977-1.107-1.861-2.126-2.526-2.917,2.6-14.068,10.385-29.774,28.271-43.051,0,0,10.625-12.435,4.45-26.823s-7.906-14.628-18.522-11.947l-24,11.463s-6.769,1.608-19.911,2.349a8.089,8.089,0,0,0-5.131-4.572c-4.925-1.187-9.219,3.97-13.946,2.551-3.608-1.082-7.964-5.338-11.509-1.217-.5.581-.842,1.292-1.313,1.89a5.308,5.308,0,0,1-1.162,1.057c-8.057-.53-17-1.414-26.815-2.791l-21.242-12.679s-13.092-6.1-13.584,10-1.73,23.649,3.949,28.04c4.117,3.178,17.562,24.912,22.6,43.6-.741,1.061-1.2,1.73-1.2,1.73s-14.35,19.461-15.441,19.928c-.072.03-.1.135-.1.3-.21.455-.842,1.326-2.867,1.886-2.808.779-15.281,4.513-17,4.513s-9.509.467-10.292,3.582a10.768,10.768,0,0,1,1.478.029l-.375.476c-2.13,2.736-5.717,7.834-5.935,11.324-.316,4.98,1.09,20.391,9.2,20.235s4.365-23.035,4.365-23.035l.951-2.8.025-.067.657,4.6c.143-.08.282-.16.421-.227.737,2.239,3.41,4.433,10.97,4.584,0,0,11.694,1.09,20.429,18.522,7.927,15.828,34.236,30.5,53.487,30.389v25.649l-2.648.779-34.38.589a2.248,2.248,0,0,0-2.214,2.143l-.21,4.428,9.968.939-31.025,7.472s-5.472-.467-4.525,7.316h7.645l.156-1.558,62.066-4.357,3.591.892c-.5,2.622-1.006,4.761-1.137,5.321l-.038.143a1.221,1.221,0,0,1-.05.286c-.366-.126-.573-.211-.573-.211-.842.96-1.326,10.974-1.4,11.989s3.9,2.235,3.9,2.235c1.8.661,8.794,0,8.794,0h0c2.311-.135,8.512-2.307,8.512-2.307l-.547-10.974c-.269.088-.539.168-.808.244q.025-.231.05-.48c.055-.644.1-1.335.143-2.046l27.758,6.883h.779v1.4h8.579s.779-5.914-2.341-7.783-19.494-8.251-19.494-8.251l3.923-.37h0l15.638-1.486v.421h2.336l-.051-.652,4.34-.421,5.144.156s-.156-6.537-4.054-7c-.674-.084-2.888-.307-6.079-.627l-1.014-12.321c2.488-4.21,8.891,8.558,8.891,8.558s.025.1.063.257c.307,1.309,1.743,7.156,2.715,7.826h.029a13.476,13.476,0,0,0,1.684.77,33.728,33.728,0,0,0,7.813,1.873c4.993.627,15.908-2.644,17.962-3.734a2.585,2.585,0,0,0,.876-.724,1.824,1.824,0,0,0-.122-2.05l-2.193-.223c1.928-.871,2.3-4.108-1.3-4.723-.139-.025-.282-.042-.421-.059a5.728,5.728,0,0,1,.648-.9c-1.873.358-6.866-1.907-6.866-1.907a11.527,11.527,0,0,0-2.239-.707l-.055-.1c-.076-.139-.147-.282-.215-.421a28.315,28.315,0,0,1-1.856-7.156c-.779-4.517-9.9-21.949-9.9-21.949S555.8,444.4,553.082,436.7a25.319,25.319,0,0,0,7.156-9.261h0l2.677-4.117a50.091,50.091,0,0,0,4.736-7.278l2.724-4.184h0c5.077-.37,13.424-.951,17.714-1.09,1.229,6.664,2.719,14.384,3.393,16.48,1.263,3.894,7.645-.623,10.137-10.583S592.438,396.729,592.438,396.729ZM496.3,478.853v-21.89c1.334-.21,2.8-.459,4.382-.741-.943,5.586-2.1,10.7-2.1,10.7C498.674,469.651,497.142,475.73,496.3,478.853Zm49.955-6.891.808.269a8.84,8.84,0,0,1,3.435,2.21,27.7,27.7,0,0,0-4.247-2.479Zm-4.963-20.126s1.873,3.582-1.869,9.5c-2.808,4.437-1.141,7.038,2.9,9.046a32.1,32.1,0,0,0-4.066-1.107l.2.114c-3.292-.72-1.684,2.219-1.684,2.219,3.271,3.174,4.786,11.193,5.472,17.554-8.588-.842-22.083-2.16-32.99-3.212a28.78,28.78,0,0,0,.37-3.288c0-1.869,2.029-9.185,2.029-9.185s5.83-13.576,9.046-21.751a132.843,132.843,0,0,0,17.828-6.255c1.5,3.292,2.759,6.365,2.759,6.365Z" transform="translate(-262.467 -172.57)" fill="url(#linear-gradient)"/>
    <rect id="Rectangle_1" data-name="Rectangle 1" width="13.407" height="38.379" transform="translate(220.627 280.622)" fill="#ff4123"/>
    <rect id="Rectangle_2" data-name="Rectangle 2" width="13.407" height="38.379" transform="translate(220.627 280.622)" opacity="0.3"/>
    <path id="Path_3" data-name="Path 3" d="M494.558,767.6l-.211,4.386,9.867.926-30.675,7.4s-5.392-.463-4.466,7.245h7.552l.152-1.541,61.346-4.319,47.627,11.871h.77v1.385H595s.77-5.855-2.315-7.7-19.263-8.171-19.263-8.171l25.893-2.467,5.085.156s-.152-6.474-4.008-6.937-58.286-5.7-58.286-5.7h-8.76l-2.623.787-33.959.56a2.231,2.231,0,0,0-2.206,2.119Z" transform="translate(-312.717 -452.989)" fill="#ff4123"/>
    <path id="Path_4" data-name="Path 4" d="M635.307,691.63v4.45c-4.828.77-7.859,1.1-7.859,1.1a31.042,31.042,0,0,1-5.548.5v-6.05Z" transform="translate(-401.273 -411.008)" opacity="0.1"/>
    <path id="Path_5" data-name="Path 5" d="M879.254,577.175c-2.467,9.863-8.785,14.333-10.023,10.478-1.12-3.515-4.563-22.963-5.148-26.322-.055-.32-.088-.5-.088-.5l-.615-4,5.22.471,1.557.143S881.717,567.308,879.254,577.175Z" transform="translate(-541.1 -332.953)" fill="#ffdcd7"/>
    <path id="Path_6" data-name="Path 6" d="M422.938,562.166s-5.392,9.093,10.174,9.4c0,0,11.559,1.078,20.206,18.341s39.3,33.138,58.416,29.593c0,0,63.986-6.9,71.634-31.9l5.279-13.567s21.89-1.684,24.2-1.389.77-6.314.77-6.314l-5.7-4.159-13.563,2.311L578.943,578.66l-48.107,22.656-46.394-6.63s-36.682-23.573-36.989-24.66-14.8-10.945-14.8-10.945Z" transform="translate(-285.542 -334.256)" fill="#ff4123"/>
    <path id="Path_7" data-name="Path 7" d="M401.438,551.562v2.315l-1.225,3.553-.943,2.766s3.7,22.66-4.315,22.812-9.4-15.108-9.088-20.033c.219-3.456,3.763-8.5,5.868-11.21.9-1.162,1.532-1.894,1.532-1.894Z" transform="translate(-264.577 -328.923)" fill="#ffdcd7"/>
    <path id="Path_8" data-name="Path 8" d="M494.558,767.6l-.211,4.386,9.867.926-30.675,7.4s-5.392-.463-4.466,7.245h7.552l.152-1.541,61.346-4.319,47.627,11.871h.77v1.385H595s.77-5.855-2.315-7.7-19.263-8.171-19.263-8.171l25.893-2.467,5.085.156s-.152-6.474-4.008-6.937-58.286-5.7-58.286-5.7h-8.76l-2.623.787-33.959.56a2.231,2.231,0,0,0-2.206,2.119Z" transform="translate(-312.717 -452.989)" opacity="0.3"/>
    <path id="Path_9" data-name="Path 9" d="M422.938,562.166s-5.392,9.093,10.174,9.4c0,0,11.559,1.078,20.206,18.341s39.3,33.138,58.416,29.593c0,0,63.986-6.9,71.634-31.9l5.279-13.567s21.89-1.684,24.2-1.389.77-6.314.77-6.314l-5.7-4.159-13.563,2.311L578.943,578.66l-48.107,22.656-46.394-6.63s-36.682-23.573-36.989-24.66-14.8-10.945-14.8-10.945Z" transform="translate(-285.542 -334.256)" opacity="0.4"/>
    <path id="Path_10" data-name="Path 10" d="M611.669,400.117,598.484,414.85c-31.5,36.455-90.821,22.934-111.554,20.038s-31.336-34.518-31.336-34.518a7.97,7.97,0,0,0,2.357-.1c3.49-.6,10.031-3.486,13.841-16.321,5.371-18.1-17.823-57.461-23.439-61.8s-4.395-11.829-3.907-27.783,13.412-9.909,13.412-9.909l21,12.553c51.513,7.245,78.858.724,78.858.724l23.679-11.345c10.5-2.656,12.208-2.416,18.312,11.829s-4.4,26.558-4.4,26.558c-35.4,26.314-30.759,62.3-25.148,75.566,3.789,8.945,21.292,5.733,32.325,2.682C607.838,401.561,611.669,400.117,611.669,400.117Z" transform="translate(-298.254 -174.586)" fill="#ff4123"/>
    <path id="Path_11" data-name="Path 11" d="M611.669,400.117,598.484,414.85c-31.5,36.455-90.821,22.934-111.554,20.038s-31.336-34.518-31.336-34.518a7.97,7.97,0,0,0,2.357-.1c3.49-.6,10.031-3.486,13.841-16.321,5.371-18.1-17.823-57.461-23.439-61.8s-4.395-11.829-3.907-27.783,13.412-9.909,13.412-9.909l21,12.553c51.513,7.245,78.858.724,78.858.724l23.679-11.345c10.5-2.656,12.208-2.416,18.312,11.829s-4.4,26.558-4.4,26.558c-35.4,26.314-30.759,62.3-25.148,75.566,3.789,8.945,21.292,5.733,32.325,2.682C607.838,401.561,611.669,400.117,611.669,400.117Z" transform="translate(-298.254 -174.586)" opacity="0.1"/>
    <path id="Path_12" data-name="Path 12" d="M612.885,404.741,600.4,418.831c-29.825,34.91-86.006,21.961-105.66,19.187s-29.669-33.062-29.669-33.062a7.516,7.516,0,0,0,2.227-.093c3.309-.572,9.5-3.338,13.109-15.626,5.085-17.343-16.876-55.027-22.193-59.187s-4.172-11.315-3.7-26.562,12.717-9.48,12.717-9.48l19.882,12.006c48.781,6.933,74.678.7,74.678.7l22.424-10.869c9.943-2.526,11.56-2.311,17.339,11.328S597.4,332.6,597.4,332.6c-33.525,25.19-29.134,59.658-23.8,72.371,3.578,8.566,20.159,5.472,30.608,2.568C609.26,406.126,612.885,404.741,612.885,404.741Z" transform="translate(-304.096 -180.149)" fill="#ff4123"/>
    <path id="Path_13" data-name="Path 13" d="M788.541,510.374s-5.548-.463-6.163,3.389L744,516.987l-9.543.783-10.1-35.466-1.924-6.765,4.778,1.541s1.768,2.1,3.978,4.6c3.107,3.519,7.093,7.876,8.352,8.5a1.847,1.847,0,0,1,.278.173c2.218,1.524,6.041,8.461,6.041,8.461s3.7,2.623,7.249,2.311a127.89,127.89,0,0,0,14.485,3.7C772.814,505.6,788.541,510.374,788.541,510.374Z" transform="translate(-459.484 -285.883)" fill="#3f3d56"/>
    <path id="Path_14" data-name="Path 14" d="M628.01,558.53l-12.481,14.09c-29.825,34.91-86.006,21.961-105.66,19.187S480.2,558.745,480.2,558.745a7.514,7.514,0,0,0,2.227-.093,57.254,57.254,0,0,1,7.48,7.493c21.734,25.742,54.724,24.045,54.724,24.045s47.779,5.7,65.349-21.119a75.733,75.733,0,0,1,9.341-7.758C624.386,559.915,628.01,558.53,628.01,558.53Z" transform="translate(-319.222 -333.938)" opacity="0.1"/>
    <path id="Path_15" data-name="Path 15" d="M788.541,510.374s-5.548-.463-6.163,3.389L744,516.987l-9.543.783-10.1-35.466-1.924-6.765,4.778,1.541s1.768,2.1,3.978,4.6c3.107,3.519,7.093,7.876,8.352,8.5a1.847,1.847,0,0,1,.278.173c2.218,1.524,6.041,8.461,6.041,8.461s3.7,2.623,7.249,2.311a127.89,127.89,0,0,0,14.485,3.7C772.814,505.6,788.541,510.374,788.541,510.374Z" transform="translate(-459.484 -285.883)" fill="#707070" opacity="0.1"/>
    <path id="Path_16" data-name="Path 16" d="M870.62,557.908s-5.548-.463-6.163,3.389l-.375.034c-.055-.32-.088-.5-.088-.5l-.615-4,5.22.471Z" transform="translate(-541.1 -332.953)" opacity="0.1"/>
    <path id="Path_17" data-name="Path 17" d="M581.27,582.9c-9.261,10.212-26.9,22.016-58.749,20.951,0,0-57.334,7.249-78.454-36.371,0,0-8.175-14.986-23.321-6.7l-.421.227-.926-6.474s13.563-18.19,35.293,7.552,54.724,24.045,54.724,24.045,47.783,5.7,65.353-21.119c0,0,24.836-25.119,36.531-9.707l.636,4.677.139,1.027s-12.182-4.012-20.787,6.47Z" transform="translate(-284.017 -328.009)" opacity="0.1"/>
    <path id="Path_18" data-name="Path 18" d="M419.42,552.332s13.563-18.185,35.3,7.552a63.743,63.743,0,0,0,8.175,8.087c20.951,17.276,46.541,15.971,46.541,15.971s47.779,5.7,65.349-21.115c0,0,24.836-25.123,36.531-9.711l.77,5.7s-13.092-4.344-21.73,7.7c0,0-12.485,36.989-67.82,35.141,0,0-57.334,7.245-78.454-36.375,0,0-8.322-15.26-23.734-6.474Z" transform="translate(-284.028 -326.738)" fill="#ff4123"/>
    <path id="Path_19" data-name="Path 19" d="M564.811,345.154l-1.111.088c-1.183-2.332-1.482-12.629-1.052-22.357l-.922-.038c-.2,4.576-.636,18.177,1.082,22.462-10.886.808-59.237,4.1-76.488-.025,5.969-12.6,1.663-23.182,1.616-23.292l-.842.358c.042.105,4.146,10.166-1.478,22.311-2.808-4.395-17.646-26.44-30.856-23.574l.2.9c12.208-2.66,26.541,18.055,29.69,22.866l-.564-.143,1.221,1.179.421.661.08-.16A45.67,45.67,0,0,1,497.4,377.8c-.151,4.9,3.09,9.3,9.375,12.73,7.055,3.848,16.657,5.851,25.291,5.851,6.925,0,13.231-1.288,17.091-3.949a8.55,8.55,0,0,0,4.037-8.541c-2.555-18.813,11.989-37.688,12.233-38,19.911-23.83,36.333-22.121,36.5-22.1l.114-.918C601.324,322.784,585.025,321.046,564.811,345.154ZM552.25,384.013c.421,3.124-.8,5.7-3.641,7.657-8.284,5.7-29.185,4.719-41.418-1.949-4.155-2.269-9.067-6.167-8.891-11.892A46.721,46.721,0,0,0,487.026,346.4c18.379,3.881,66.427.543,76.273-.2a1.188,1.188,0,0,0,.463.366c-3.22,4.574-13.762,21-11.513,37.446Z" transform="translate(-304.491 -196.3)" opacity="0.1"/>
    <path id="Path_20" data-name="Path 20" d="M582.81,760.36,602.254,766l-3.877.37Z" transform="translate(-337.674 -440.282)" opacity="0.1"/>
    <path id="Path_21" data-name="Path 21" d="M450.074,755.329,464.1,751.94l-17.891,3.027Z" transform="translate(-258.577 -435.407)" opacity="0.1"/>
    <path id="Path_22" data-name="Path 22" d="M409.551,551.556v2.315l-1.225,3.553c-1.633-4.479-6.1-5.472-8.487-5.67.9-1.162,1.532-1.894,1.532-1.894Z" transform="translate(-272.69 -328.918)" opacity="0.1"/>
    <path id="Path_23" data-name="Path 23" d="M430.54,529.77l-3.389-.77s-.156,1.385-2.947,2.155-15.1,4.471-16.8,4.471-9.4.463-10.174,3.544c0,0,9.1-.615,10.482,7.4l26.356-1.233Z" transform="translate(-271.179 -316.839)" fill="#3f3d56"/>
    <path id="Path_24" data-name="Path 24" d="M430.54,529.77l-3.389-.77s-.156,1.385-2.947,2.155-15.1,4.471-16.8,4.471-9.4.463-10.174,3.544c0,0,9.1-.615,10.482,7.4l26.356-1.233Z" transform="translate(-271.179 -316.839)" fill="#707070" opacity="0.1"/>
    <path id="Path_25" data-name="Path 25" d="M752.26,728.91s7.741,4.42,10.692,8.7a81.953,81.953,0,0,1,5.473,9.61s5.78,2.526,1.562-6.659S752.26,728.91,752.26,728.91Z" transform="translate(-476.756 -432.595)" fill="#3f3d56"/>
    <path id="Path_26" data-name="Path 26" d="M752.26,728.91s7.741,4.42,10.692,8.7a81.953,81.953,0,0,1,5.473,9.61s5.78,2.526,1.562-6.659S752.26,728.91,752.26,728.91Z" transform="translate(-476.756 -432.595)" fill="#3f3d56"/>
    <path id="Path_27" data-name="Path 27" d="M752.26,728.91s7.741,4.42,10.692,8.7a81.953,81.953,0,0,1,5.473,9.61s5.78,2.526,1.562-6.659S752.26,728.91,752.26,728.91Z" transform="translate(-476.756 -432.595)" fill="#707070" opacity="0.1"/>
    <path id="Path_28" data-name="Path 28" d="M574.444,313.1c-.492.577-.842,1.263-1.292,1.869-1.962,2.437-5.658,2.332-8.47,3.7-3.848,1.873-5.708,6.5-5.6,10.785s1.806,8.335,3.4,12.313,3.124,8.129,2.9,12.4a31.079,31.079,0,0,1-1.629,7.4c-.484,1.566-1.069,3.271-2.475,4.113a79.04,79.04,0,0,0,12.755,1.229c12.275.19,24.554-2.463,36.771-1.242A11.408,11.408,0,0,1,607.3,354.9a42.352,42.352,0,0,1,1.5-4.458,24.212,24.212,0,0,0,.046-15.407c-.5-1.478-1.136-2.909-1.557-4.407-.968-3.486-.711-7.194-1.4-10.743s-2.761-7.262-6.276-8.112c-4.866-1.174-9.109,3.928-13.786,2.526C582.253,313.234,577.951,309.016,574.444,313.1Z" transform="translate(-364.897 -190.812)" fill="#3f3d56"/>
    <g id="Group_1" data-name="Group 1" transform="translate(194.313 137.867)" opacity="0.1">
      <path id="Path_29" data-name="Path 29" d="M675.067,393.03a24.2,24.2,0,0,0,1.263-8.23,24.233,24.233,0,0,1-1.263,7.3,43.017,43.017,0,0,0-1.5,4.458,10.736,10.736,0,0,0-.232,2.791,10.708,10.708,0,0,1,.232-1.865A41.407,41.407,0,0,1,675.067,393.03Z" transform="translate(-625.361 -371.207)"/>
      <path id="Path_30" data-name="Path 30" d="M565.692,376.711c.114-4.13-1.372-8.146-2.913-11.993-1.579-3.949-3.258-7.977-3.389-12.208v.842c.109,4.277,1.806,8.335,3.393,12.309C564.206,369.209,565.582,372.922,565.692,376.711Z" transform="translate(-559.39 -352.51)"/>
      <path id="Path_31" data-name="Path 31" d="M613.116,437.81c-11.892-.989-23.839,1.507-35.781,1.326a79.864,79.864,0,0,1-11.85-1.078,3.723,3.723,0,0,1-.905.77,79.031,79.031,0,0,0,12.755,1.229c12.275.189,24.55-2.467,36.766-1.263A10.57,10.57,0,0,1,613.116,437.81Z" transform="translate(-562.395 -401.768)"/>
    </g>
    <path id="Path_32" data-name="Path 32" d="M641.127,847.12l10.162,1.873-.7,1.212s-6.912.657-8.693,0S641.127,847.12,641.127,847.12Z" transform="translate(-412.241 -501.044)" fill="#707070"/>
    <path id="Path_33" data-name="Path 33" d="M665.389,599.741s42.138-13.286,40.6-21.764-38.96-10.524-40.6-8.348S665.389,599.741,665.389,599.741Z" transform="translate(-426.033 -339.898)" fill="#3f3d56"/>
    <path id="Path_34" data-name="Path 34" d="M665.389,599.741s42.138-13.286,40.6-21.764-38.96-10.524-40.6-8.348S665.389,599.741,665.389,599.741Z" transform="translate(-426.033 -339.898)" opacity="0.2"/>
    <path id="Path_35" data-name="Path 35" d="M601.96,414.881l-8,7.093-10.175,1.848-18.341-2.311-10.326-7.093s1.823-.4,6.937-1.541l4.159-.922c8.327-1.852,4.934-15.575,4.934-15.575s22.812-12.174,19.886,3.237c-1.6,8.4,1.793,12.174,5.211,13.892a13.963,13.963,0,0,0,5.715,1.372Z" transform="translate(-362.604 -237.402)" fill="#ffdcd7"/>
    <circle id="Ellipse_2" data-name="Ellipse 2" cx="17.731" cy="17.731" r="17.731" transform="translate(202.034 132.857)" opacity="0.1"/>
    <circle id="Ellipse_3" data-name="Ellipse 3" cx="17.731" cy="17.731" r="17.731" transform="translate(202.034 132.394)" fill="#ffdcd7"/>
    <path id="Path_36" data-name="Path 36" d="M601.96,443.854l-8,7.093-10.175,1.848-18.341-2.311-10.326-7.093s1.823-.4,6.937-1.541l1.078.619h33.112a13.963,13.963,0,0,0,5.712,1.385Z" transform="translate(-362.604 -266.375)" opacity="0.1"/>
    <path id="Path_37" data-name="Path 37" d="M549.866,442.536h18.143s6.209-2.315,8.213-.926,7.708,1.541,8.478.926,12.174,5.717,16.338,14.641l-14.8,11.7-64.272,25.6s-2.947-5.089-1.852-6.782-2-4.925-2-4.925-1.078-5.7,0-7.4L504.55,458.418s9.4-13.719,11.564-15.1c0,0,.77-2.273,1.541-2.138s14.515.421,14.515.421l1.684.951Z" transform="translate(-333.322 -265.979)" fill="#3f3d56"/>
    <path id="Path_38" data-name="Path 38" d="M549.866,442.536h18.143s6.209-2.315,8.213-.926,7.708,1.541,8.478.926,12.174,5.717,16.338,14.641l-1.537,1.217-13.26,10.486-64.272,25.6s-2.947-5.089-1.852-6.782-2-4.925-2-4.925-1.078-5.7,0-7.4L504.55,458.418s9.4-13.719,11.564-15.1c0,0,.77-2.273,1.541-2.138s14.515.421,14.515.421l1.684.951Z" transform="translate(-333.322 -265.979)" fill="#707070" opacity="0.1"/>
    <path id="Path_39" data-name="Path 39" d="M489.132,478.1l-5.7,1.684s-14.178,19.28-15.255,19.743,6.933,16.337,6.933,16.337,2.774-2.16,4.163-3.545,17.722-15.575,17.722-15.575Z" transform="translate(-312.2 -287.365)" fill="#3f3d56"/>
    <path id="Path_40" data-name="Path 40" d="M489.132,478.1l-5.7,1.684s-14.178,19.28-15.255,19.743,6.933,16.337,6.933,16.337,2.774-2.16,4.163-3.545,17.722-15.575,17.722-15.575Z" transform="translate(-312.2 -287.365)" fill="#707070" opacity="0.1"/>
    <path id="Path_41" data-name="Path 41" d="M746.646,525.43l-9.543.783L727,490.747l6.832-.627c3.107,3.519,7.093,7.876,8.352,8.5a1.845,1.845,0,0,1,.278.173,27.883,27.883,0,0,1,.8,5.165c.926,13.471,2.155,16.11,2.155,16.11S745.943,522.243,746.646,525.43Z" transform="translate(-462.13 -294.325)" opacity="0.1"/>
    <path id="Path_42" data-name="Path 42" d="M766.709,610.875c-.261-.038-.623-.076-1.065-.118l-.421-.038c-5.611-.488-20.993-1.233-20.993-1.233a38.969,38.969,0,0,0-1.107-4.024c-.059-.189-.126-.387-.194-.585-1.448-4.21-4.18-9.985-8.566-11.416-7.089-2.311-11.248-4.934-7.548-10.793s1.848-9.4,1.848-9.4-5.123-12.481-6.874-14.022c-1.036-.914-3.6-6.037-5.561-10.823-.189-.463-.379-.93-.552-1.389a27.058,27.058,0,0,1-1.962-6.6c-.143-3.246-5.965-30.229-6.954-34.792-.088-.421-.139-.657-.139-.657a.909.909,0,0,0-.038-.215c-.269-1.65-1.743-12.54,5.742-13.972l9.463-.871h0c.316.025,7.657.7,8.562,13.892.926,13.471,2.155,16.11,2.155,16.11s3.856,15.575,4.163,23.889,9.476,29.286,9.476,29.286,9.017,17.259,9.791,21.734a28,28,0,0,0,1.831,7.106c.067.143.139.282.21.421a6.256,6.256,0,0,0,6.592,3.57,9.964,9.964,0,0,1,1.574,0,6.174,6.174,0,0,1,.669.08C771.108,606.745,769.676,611.283,766.709,610.875Z" transform="translate(-450.137 -294.215)" fill="#ffdcd7"/>
    <path id="Path_43" data-name="Path 43" d="M719.156,537.869c-.156,12.966-.77,24.222-.77,24.222s-.774,2.884-1.8,6.735c-1.372-3.368-2.454-6.529-2.526-8-.164-3.519-7.11-35.423-7.11-35.423a.909.909,0,0,0-.038-.215l.96.215S719.29,524.9,719.156,537.869Z" transform="translate(-450.497 -314.632)" opacity="0.1"/>
    <path id="Path_44" data-name="Path 44" d="M678.019,536.6c-.156,12.966-.77,24.222-.77,24.222s-.594,2.214-1.427,5.359c-1.827,6.874-4.824,18.2-5.355,20.534-.77,3.368-10.945,27.122-10.945,27.122s-2.008,7.249-2.008,9.1-1.389,9.261-1.389,9.261v6.626s0,6.192-.362,10.326c-.034.333-.067.652-.1.951a6.493,6.493,0,0,1-.619,2.593c-1.073,1.238-5.7,8.634-5.7,8.634s-.6,0-1.515-.021h0c-2.1-.063-5.927-.316-8.146-1.326a3.085,3.085,0,0,1-1.574-1.263c-1.128-2.252-.421-7.653-.118-9.6.067-.455.118-.724.118-.724a.426.426,0,0,1,.038-.143c.358-1.5,3.414-14.523,1.814-17.428-1.684-3.081,3.856-9.707,3.856-9.707s2.926-10.023,2.774-13.719c0,0,4.163-18.19,3.081-23.275-.324-1.537-.063-5.544.459-10.4.678-6.192,1.776-13.765,2.631-19.322.7-4.534,1.229-7.729,1.229-7.729s-.257-.08-.665-.173c-1.069-.244-3.2-.568-4.424.324-1.684,1.233-1.082-13.1-1.082-13.1L661.526,523l5.228,1.137a8.321,8.321,0,0,1,1.061.038C670.656,524.427,678.145,526.081,678.019,536.6Z" transform="translate(-410.303 -313.364)" fill="#ffdcd7"/>
    <path id="Path_45" data-name="Path 45" d="M794.443,751.336a2.491,2.491,0,0,1-.867.716c-2.029,1.082-12.818,4.319-17.752,3.7a33.323,33.323,0,0,1-7.708-1.856,13.19,13.19,0,0,1-1.684-.762h-.025c-.964-.644-2.383-6.453-2.69-7.745-.034-.164-.059-.257-.059-.257s-6.314-12.629-8.785-8.474l1.684,20.656h-2.311s-.307-20.5-6.011-26.053c0,0-1.65-3.023,1.848-2.155s11.871,6.474,12.8,9.711a30.572,30.572,0,0,0,2.526,5.687c.657,1.2,1.162,2.016,1.162,2.016l22.664,2.29,5.081.509a1.778,1.778,0,0,1,.127,2.017Z" transform="translate(-474.201 -432.617)" fill="#707070"/>
    <path id="Path_46" data-name="Path 46" d="M819.976,781.117a2.487,2.487,0,0,1-.867.716c-2.029,1.082-12.818,4.319-17.752,3.7a33.315,33.315,0,0,1-7.708-1.856,13.2,13.2,0,0,1-1.684-.762h-.025c4.955-.884,15.9-2.669,22.938-2.526a14.609,14.609,0,0,1,5.1.728Z" transform="translate(-499.733 -462.399)" opacity="0.1"/>
    <path id="Path_47" data-name="Path 47" d="M815.549,763.677c0,.253,0,.518.025.791-5.611-.488-20.993-1.233-20.993-1.233a40.156,40.156,0,0,0-1.3-4.631c4.049-1.856,9.85-3.856,14.847-2.921a6.332,6.332,0,0,0,6.8,3.991,10.007,10.007,0,0,1,1.574,0A8.73,8.73,0,0,0,815.549,763.677Z" transform="translate(-500.509 -447.96)" opacity="0.1"/>
    <path id="Path_48" data-name="Path 48" d="M816.3,764.8v.366l-.421-.038c-5.611-.488-20.993-1.233-20.993-1.233a38.938,38.938,0,0,0-1.107-4.024c3.991-1.861,9.817-3.932,14.864-3.086a6.256,6.256,0,0,0,6.592,3.57,10,10,0,0,1,1.574,0,6.205,6.205,0,0,1,.669.08A8.663,8.663,0,0,0,816.3,764.8Z" transform="translate(-500.798 -448.621)" opacity="0.1"/>
    <path id="Path_49" data-name="Path 49" d="M811.072,764.818a10.462,10.462,0,0,0,.147,1.785h-.051l-21.22,3.317a13.223,13.223,0,0,1-1.684-.762h-.025c-.964-.644-2.383-6.453-2.69-7.746.488-.265,1.061-.564,1.7-.884,4.6-2.3,12.81-5.569,18.888-2.913,0,0,4.934,2.244,6.782,1.89a7.876,7.876,0,0,0-1.847,5.313Z" transform="translate(-496.033 -448.642)" fill="#707070"/>
    <path id="Path_50" data-name="Path 50" d="M655.647,823.545a6.5,6.5,0,0,1-.619,2.593c-1.073,1.238-5.7,8.634-5.7,8.634s-.606,0-1.536-.021c-.122-1.991-.88-5.275-4.475-5.346-2.842-.055-3.582,2.084-3.671,4.02a3.085,3.085,0,0,1-1.574-1.263c-1.128-2.252-.421-7.653-.118-9.6C639.979,823.263,647.889,825.713,655.647,823.545Z" transform="translate(-410.28 -486.823)" opacity="0.1"/>
    <path id="Path_51" data-name="Path 51" d="M655.744,821.4c-.034.332-.067.652-.1.951a6.5,6.5,0,0,1-.619,2.593c-1.073,1.238-5.7,8.634-5.7,8.634s-.6,0-1.515-.021c.03-1.625-.257-6.184-4.5-6.272-3.309-.063-3.789,2.85-3.671,4.946a3.085,3.085,0,0,1-1.574-1.263c-1.128-2.252-.421-7.653-.118-9.6.067-.455.118-.724.118-.724a.428.428,0,0,1,.038-.143C640.367,821.262,648.146,823.565,655.744,821.4Z" transform="translate(-410.28 -485.63)" opacity="0.1"/>
    <path id="Path_52" data-name="Path 52" d="M635.553,821s9.787,3.928,19.036.922l.556,10.865s-8.882,3.115-9.261,2.1c0,0,.69-6.735-4.471-6.832s-3.393,7.043-3.393,7.043-3.927-1.212-3.852-2.214S634.733,821.947,635.553,821Z" transform="translate(-408.376 -485.919)" fill="#707070"/>
    <path id="Path_53" data-name="Path 53" d="M696.9,490.38c-8.764-2.618-14.119,11.938-15.028,14.633-.093.269-.139.421-.139.421-.265.059-.531.122-.783.194-15.1,3.961-14.2,17.68-13.593,21.675-1.069-.244-3.2-.568-4.424.324-1.684,1.233-1.082-13.1-1.082-13.1l13.719-10.676,5.228,1.137a.915.915,0,0,0-.038-.215c-.269-1.65-1.743-12.54,5.742-13.972l9.463-.871h0Z" transform="translate(-424.342 -294.215)" opacity="0.1"/>
    <path id="Path_54" data-name="Path 54" d="M540.732,502.377l-3.081,7.552s-12.793,17.727-1.078,25.586,51.778,5.759,51.778,5.759l2.947-26.1s-4.479-18.636,14.157-22.972c0,0,5.51-17.937,15.154-15.053l-18.4-9.3-25.257,9.4-21.427,11.56Z" transform="translate(-349.003 -281.43)" fill="#3f3d56"/>
    <path id="Path_55" data-name="Path 55" d="M540.732,502.377l-3.081,7.552s-12.793,17.727-1.078,25.586,51.778,5.759,51.778,5.759l2.947-26.1s-4.479-18.636,14.157-22.972c0,0,5.51-17.937,15.154-15.053l-18.4-9.3-25.257,9.4-21.427,11.56Z" transform="translate(-349.003 -281.43)" fill="#707070" opacity="0.1"/>
    <path id="Path_56" data-name="Path 56" d="M555.08,566.611s3.856-9.13,8.634-11.736S555.08,566.611,555.08,566.611Z" transform="translate(-362.581 -331.638)" opacity="0.1"/>
    <path id="Path_57" data-name="Path 57" d="M594.26,513.88s34.371-22.349,46.857-21.89Z" transform="translate(-385.268 -295.405)" opacity="0.1"/>
    <path id="Path_58" data-name="Path 58" d="M593.4,340.635c6.382.632,11,6.9,17.327,7.927a2.854,2.854,0,0,0,1.608-.088c1.616-.711,1.082-3.115.286-4.689q-1.793-3.544-3.591-7.085a14.746,14.746,0,0,0-3.3-4.8,12.486,12.486,0,0,0-4.349-2.168c-6.087-1.974-12.949-2.471-18.728.269-3.25,1.545-12.006,9.463-7.421,13.273C579.34,346.692,588.584,340.155,593.4,340.635Z" transform="translate(-373.496 -200.508)" opacity="0.1"/>
    <path id="Path_59" data-name="Path 59" d="M593.4,339.537c6.382.631,11,6.908,17.327,7.927a2.854,2.854,0,0,0,1.608-.088c1.616-.711,1.082-3.115.286-4.689q-1.793-3.544-3.591-7.085a14.748,14.748,0,0,0-3.3-4.8,12.486,12.486,0,0,0-4.349-2.168c-6.087-1.97-12.949-2.471-18.728.269-3.25,1.545-12.006,9.463-7.421,13.273C579.34,345.594,588.584,339.057,593.4,339.537Z" transform="translate(-373.496 -199.873)" fill="#3f3d56"/>
    <path id="Path_60" data-name="Path 60" d="M549.38,543.263A26.582,26.582,0,0,0,560.948,542" transform="translate(-359.28 -324.366)" opacity="0.1"/>
    <path id="Path_61" data-name="Path 61" d="M462.59,538.21s2.947.421,2.947,2.441S462.59,538.21,462.59,538.21Z" transform="translate(-309.025 -322.172)" opacity="0.1"/>
    <path id="Path_62" data-name="Path 62" d="M466.07,556.48s.539-.939,1.465.842S466.07,556.48,466.07,556.48Z" transform="translate(-311.04 -332.607)" opacity="0.1"/>
    <path id="Path_63" data-name="Path 63" d="M612.335,362.383a2.9,2.9,0,0,1-1.608.093c-6.314-1.023-10.945-7.3-17.327-7.931-4.824-.48-14.064,6.058-18.177,2.639a3.367,3.367,0,0,1-1.263-2.248,3.414,3.414,0,0,0,1.263,3.174c4.113,3.418,13.353-3.119,18.177-2.639,6.378.631,11,6.908,17.327,7.927a2.858,2.858,0,0,0,1.608-.088,2.1,2.1,0,0,0,1.014-2.383A1.734,1.734,0,0,1,612.335,362.383Z" transform="translate(-373.492 -215.807)" opacity="0.1"/>
    <path id="Path_64" data-name="Path 64" d="M650.17,529.324s18.83-4.924,23.936-3.839Z" transform="translate(-417.642 -314.713)" opacity="0.1"/>
    <path id="Path_65" data-name="Path 65" d="M406.407,786.654l.9-11.18L416.2,765.2a45.093,45.093,0,0,1-21.582-.648l9.341,10.945.358,11.16c-2.841.316-5,1.84-5,3.675,0,2.063,2.728,3.738,6.087,3.738s6.091-1.684,6.091-3.738C411.5,788.482,409.3,786.945,406.407,786.654Z" transform="translate(-269.667 -453.232)" fill="#d4dfec" opacity="0.5"/>
    <path id="Path_66" data-name="Path 66" d="M397.2,765.38l7.493,8.289a3.367,3.367,0,0,0,2.526,1.116h0a3.368,3.368,0,0,0,2.526-1.137l7.114-8a39.757,39.757,0,0,1-19.659-.268Z" transform="translate(-271.162 -453.713)" fill="#ff4123" opacity="0.5"/>
    <ellipse id="Ellipse_4" data-name="Ellipse 4" cx="12.326" cy="4.732" rx="12.326" ry="4.732" transform="translate(123.748 304.734)" fill="#d4dfec" opacity="0.5"/>
    <ellipse id="Ellipse_5" data-name="Ellipse 5" cx="10.941" cy="3.759" rx="10.941" ry="3.759" transform="translate(124.953 306.06)" fill="#ff4123"/>
    <path id="Path_67" data-name="Path 67" d="M328.169,746.07l-1.869,4.9,1.717-4.892" transform="translate(-189.144 -432.008)" fill="#ff4123" opacity="0.5"/>
    <path id="Path_68" data-name="Path 68" d="M428.24,750.135l4.891-13.917a.278.278,0,0,1,.362-.164h0a.274.274,0,0,1,.152.349l-5.233,13.715" transform="translate(-289.135 -436.721)" fill="#3f3d56" opacity="0.5"/>
    <path id="Path_69" data-name="Path 69" d="M433.16,744.246l2.82-8.028a.278.278,0,0,1,.362-.164h0a.273.273,0,0,1,.151.349l-3.01,7.893" transform="translate(-291.984 -436.721)" fill="#3f3d56"/>
    <line id="Line_1" data-name="Line 1" y1="5.889" x2="2.071" transform="translate(139.105 307.525)" fill="#3f3d56" opacity="0.5"/>
    <circle id="Ellipse_6" data-name="Ellipse 6" cx="2.395" cy="2.395" r="2.395" transform="translate(139.606 303.492)" fill="#ff4123"/>
    <circle id="Ellipse_7" data-name="Ellipse 7" cx="2.395" cy="2.395" r="2.395" transform="translate(139.606 303.492)" fill="#fff" opacity="0.5"/>
    <circle id="Ellipse_8" data-name="Ellipse 8" cx="1.01" cy="1.01" r="1.01" transform="translate(141.252 304.57)" fill="#ff4123"/>
    <circle id="Ellipse_9" data-name="Ellipse 9" cx="1.01" cy="1.01" r="1.01" transform="translate(141.252 304.57)" opacity="0.25"/>
    <path id="Path_70" data-name="Path 70" d="M429.56,752.78a2.4,2.4,0,0,0,4.315.994A19.524,19.524,0,0,0,429.56,752.78Z" transform="translate(-289.9 -446.417)" fill="#ff4123" opacity="0.3"/>
    <rect id="Rectangle_3" data-name="Rectangle 3" width="2.391" height="53.84" transform="translate(49.244 219.423)" fill="#535461"/>
    <path id="Path_71" data-name="Path 71" d="M211.5,668.774l-.152,2.425-.21,3.422-.088,1.427-.21,3.427-.093,1.427-.21,3.422-2.416,38.93a6.592,6.592,0,0,1-6.58,6.184h-12.53a6.592,6.592,0,0,1-6.58-6.185l-2.416-38.929-.21-3.422-.088-1.427-.215-3.427-.088-1.427-.21-3.422-.152-2.425a3.414,3.414,0,0,1,3.41-3.624H208.1a3.414,3.414,0,0,1,3.406,3.624Z" transform="translate(-144.84 -395.675)" fill="#707070"/>
    <path id="Path_72" data-name="Path 72" d="M114.258,654.52l-.21,3.422H82.32l-.21-3.422Z" transform="translate(-47.748 -378.996)" fill="#9d9cb5"/>
    <path id="Path_73" data-name="Path 73" d="M114.371,666.04l-.21,3.427H83.035l-.215-3.427Z" transform="translate(-48.159 -385.667)" fill="#9d9cb5"/>
    <path id="Path_74" data-name="Path 74" d="M114.485,677.57l-.21,3.422H83.755l-.215-3.422Z" transform="translate(-48.575 -392.343)" fill="#9d9cb5"/>
    <path id="Path_75" data-name="Path 75" d="M128.5,579.54c13.929,10.078,19.726,25.834,19.726,25.834s-16.779-.577-30.709-10.65S97.79,568.89,97.79,568.89,114.574,569.467,128.5,579.54Z" transform="translate(-97.79 -339.937)" fill="#ff4123"/>
    <path id="Path_76" data-name="Path 76" d="M97.79,568.89s17.419,9.682,23.01,17.68,27.425,18.808,27.425,18.808" transform="translate(-97.79 -339.937)" fill="none" stroke="#535461" stroke-miterlimit="10" stroke-width="2"/>
    <path id="Path_77" data-name="Path 77" d="M169.106,538.027a33.723,33.723,0,0,1,10.734,14.06,30.692,30.692,0,0,1-27.45-19.857,33.913,33.913,0,0,1,16.716,5.8Z" transform="translate(-129.406 -318.709)" fill="#ff4123"/>
    <path id="Path_78" data-name="Path 78" d="M152.39,532.2s9.48,5.262,12.523,9.619,14.927,10.238,14.927,10.238" transform="translate(-129.406 -318.692)" fill="none" stroke="#535461" stroke-miterlimit="10" stroke-width="2"/>
    <path id="Path_79" data-name="Path 79" d="M229.259,561.032c-8.705,9.568-10.549,22.075-10.549,22.075s12.275-3.014,20.985-12.582,10.549-22.075,10.549-22.075S237.969,551.46,229.259,561.032Z" transform="translate(-167.808 -328.101)" fill="#ff4123"/>
    <path id="Path_80" data-name="Path 80" d="M250.244,548.45s-11.345,9.808-14.224,16.569-17.31,18.1-17.31,18.1" transform="translate(-167.808 -328.101)" fill="none" stroke="#535461" stroke-miterlimit="10" stroke-width="2"/>
    <path id="Path_81" data-name="Path 81" d="M954.1,667.11s2.433,3.178-1.124,8-6.487,8.84-5.3,11.85c0,0,5.363-8.916,9.728-9.042S958.908,672.473,954.1,667.11Z" transform="translate(-589.758 -396.81)" opacity="0.1"/>
    <path id="Path_82" data-name="Path 82" d="M954.294,667.11a3.852,3.852,0,0,1,.5,1c4.26,5.005,6.529,9.682,2.433,9.792-3.814.109-8.39,6.929-9.484,8.651a3.026,3.026,0,0,0,.13.391s5.363-8.916,9.728-9.042S959.1,672.473,954.294,667.11Z" transform="translate(-589.948 -396.81)" opacity="0.1"/>
    <path id="Path_83" data-name="Path 83" d="M973.28,675.754c0,1.12-.126,2.025-.282,2.025s-.278-.905-.278-2.025.156-.594.312-.594S973.28,674.634,973.28,675.754Z" transform="translate(-604.412 -401.4)" fill="#3f3d56"/>
    <path id="Path_84" data-name="Path 84" d="M975.1,678.857c-.985.539-1.84.863-1.915.724s.661-.682,1.646-1.217.594-.143.669,0S976.079,678.323,975.1,678.857Z" transform="translate(-604.677 -403.169)" fill="#3f3d56"/>
    <path id="Path_85" data-name="Path 85" d="M925.276,667.11s-2.433,3.178,1.12,8,6.487,8.84,5.3,11.85c0,0-5.363-8.916-9.732-9.042S920.473,672.473,925.276,667.11Z" transform="translate(-573.777 -396.81)" fill="#3f3d56"/>
    <path id="Path_86" data-name="Path 86" d="M954.1,667.11s2.433,3.178-1.124,8-6.487,8.84-5.3,11.85c0,0,5.363-8.916,9.728-9.042S958.908,672.473,954.1,667.11Z" transform="translate(-589.758 -396.81)" fill="#d4dfec"/>
    <path id="Path_87" data-name="Path 87" d="M925.276,667.11s-2.433,3.178,1.12,8,6.487,8.84,5.3,11.85c0,0-5.363-8.916-9.732-9.042S920.473,672.473,925.276,667.11Z" transform="translate(-573.777 -396.81)" opacity="0.1"/>
    <path id="Path_88" data-name="Path 88" d="M925.276,667.11a3.855,3.855,0,0,0-.5,1c-4.26,5.005-6.529,9.682-2.437,9.792,3.814.109,8.39,6.929,9.488,8.651a3.881,3.881,0,0,1-.13.391s-5.363-8.933-9.732-9.042S920.473,672.473,925.276,667.11Z" transform="translate(-573.777 -396.81)" opacity="0.1"/>
    <path id="Path_89" data-name="Path 89" d="M922,675.754c0,1.12.126,2.025.282,2.025s.282-.905.282-2.025-.156-.594-.312-.594S922,674.634,922,675.754Z" transform="translate(-575.043 -401.4)" fill="#d4dfec"/>
    <path id="Path_90" data-name="Path 90" d="M917.534,678.857c.981.539,1.84.863,1.915.724s-.665-.682-1.646-1.217-.6-.143-.669,0S916.54,678.323,917.534,678.857Z" transform="translate(-572.11 -403.169)" fill="#d4dfec"/>
    <path id="Path_91" data-name="Path 91" d="M943.151,701.956l-.122.994-.168,1.4-.071.585-.173,1.406-.071.585-.173,1.4-1.945,15.954c-.173,1.423-2.5,2.526-5.308,2.526H924.991c-2.812,0-5.136-1.111-5.308-2.526l-1.949-15.954-.168-1.4-.072-.585-.177-1.406-.067-.585-.173-1.4-.084-.994c-.1-.8,1.162-1.486,2.753-1.486h20.681C941.989,700.487,943.252,701.169,943.151,701.956Z" transform="translate(-572.141 -416.127)" fill="#707070"/>
    <path id="Path_92" data-name="Path 92" d="M845.869,681.4l-.173,1.4H820.1l-.173-1.4Z" transform="translate(-474.977 -394.561)" fill="#9d9cb5"/>
    <path id="Path_93" data-name="Path 93" d="M845.961,686.12l-.168,1.406h-25.11l-.173-1.406Z" transform="translate(-475.313 -397.294)" fill="#9d9cb5"/>
    <path id="Path_94" data-name="Path 94" d="M846.053,690.85l-.168,1.4H821.258l-.168-1.4Z" transform="translate(-475.649 -400.033)" fill="#9d9cb5"/>
  </g>
</svg>
