<svg xmlns="http://www.w3.org/2000/svg" width="425.99" height="297.369" viewBox="0 0 425.99 297.369">
  <g id="Group_1" data-name="Group 1" transform="translate(-755 -386.01)">
    <g id="page3" transform="translate(755 386.01)">
      <path id="Path_81" data-name="Path 81" d="M561.068,338.58H503.213V326.073a2.993,2.993,0,0,0-2.993-2.993h-16.99V309.755a1.885,1.885,0,0,0-1.885-1.885H459.463a1.885,1.885,0,0,0-1.885,1.885v13.329H437.6a2.993,2.993,0,0,0-2.993,2.993v12.5H379.444a.609.609,0,0,0-.6.608V505.311a.608.608,0,0,0,.6.608h36.665a.608.608,0,0,0,.608-.608V482.962a.613.613,0,0,1,.608-.609h15.488a.613.613,0,0,1,.609.608v22.349a.608.608,0,0,0,.6.608h72.451a.613.613,0,0,0,.609-.608V482.962a.608.608,0,0,1,.6-.608h15.488a.608.608,0,0,1,.608.608v22.349a.613.613,0,0,0,.609.608h36.665a.613.613,0,0,0,.608-.608V339.2a.614.614,0,0,0-.6-.618ZM410.157,474.591a.6.6,0,0,1-.6.6H386.9a.6.6,0,0,1-.609-.6v-7.735a.608.608,0,0,1,.608-.608h22.659a.609.609,0,0,1,.6.608Zm0-19.987a.6.6,0,0,1-.6.609H386.9a.6.6,0,0,1-.609-.609v-7.731a.6.6,0,0,1,.608-.608h22.659a.6.6,0,0,1,.6.608Zm0-19.982a.609.609,0,0,1-.6.608H386.9a.608.608,0,0,1-.608-.608v-7.735a.608.608,0,0,1,.608-.609h22.659a.608.608,0,0,1,.6.608Zm0-19.987a.6.6,0,0,1-.6.608H386.9a.6.6,0,0,1-.609-.608v-7.731a.6.6,0,0,1,.608-.609h22.659a.6.6,0,0,1,.6.608Zm0-19.982a.609.609,0,0,1-.6.608H386.9a.608.608,0,0,1-.608-.608v-7.732a.6.6,0,0,1,.608-.6h22.659a.6.6,0,0,1,.6.6Zm0-19.982a.6.6,0,0,1-.6.6H386.9a.6.6,0,0,1-.609-.6v-7.735a.608.608,0,0,1,.608-.608h22.659a.609.609,0,0,1,.6.608Zm0-19.987a.6.6,0,0,1-.6.609H386.9a.6.6,0,0,1-.609-.609v-7.731a.6.6,0,0,1,.608-.608h22.659a.6.6,0,0,1,.6.608Zm53.684,119.9a.6.6,0,0,1-.609.6H440.589a.609.609,0,0,1-.609-.6v-7.731a.613.613,0,0,1,.608-.608h22.646a.608.608,0,0,1,.608.608Zm0-19.987a.6.6,0,0,1-.609.608H440.589a.608.608,0,0,1-.609-.608v-7.726a.608.608,0,0,1,.608-.608h22.646a.6.6,0,0,1,.608.608Zm0-19.982a.609.609,0,0,1-.609.608H440.589a.613.613,0,0,1-.609-.609v-7.731a.613.613,0,0,1,.608-.609h22.646a.608.608,0,0,1,.608.608Zm0-19.987a.6.6,0,0,1-.609.609H440.589a.609.609,0,0,1-.609-.608v-7.725a.608.608,0,0,1,.608-.608h22.646a.6.6,0,0,1,.608.608Zm0-19.982a.609.609,0,0,1-.609.608H440.589a.613.613,0,0,1-.609-.608v-7.728a.608.608,0,0,1,.608-.6h22.646a.6.6,0,0,1,.608.6Zm0-19.982a.6.6,0,0,1-.609.6H440.589a.609.609,0,0,1-.609-.6v-7.731a.613.613,0,0,1,.608-.609h22.646a.608.608,0,0,1,.608.608Zm0-19.987a.6.6,0,0,1-.609.608H440.589a.608.608,0,0,1-.609-.608v-7.726a.608.608,0,0,1,.608-.608h22.646a.6.6,0,0,1,.608.609Zm36.687,119.9a.6.6,0,0,1-.609.6H477.276a.609.609,0,0,1-.608-.6v-7.725a.613.613,0,0,1,.608-.609h22.646a.608.608,0,0,1,.608.608Zm0-19.987a.6.6,0,0,1-.609.608H477.276a.608.608,0,0,1-.608-.608v-7.721a.608.608,0,0,1,.608-.608h22.646a.6.6,0,0,1,.608.608Zm0-19.982a.609.609,0,0,1-.609.608H477.276a.613.613,0,0,1-.609-.608v-7.726a.613.613,0,0,1,.608-.608h22.646a.608.608,0,0,1,.608.608Zm0-19.987a.6.6,0,0,1-.609.608H477.276a.608.608,0,0,1-.608-.608V406.9a.608.608,0,0,1,.608-.608h22.646a.6.6,0,0,1,.608.608Zm0-19.982a.609.609,0,0,1-.609.608H477.276a.613.613,0,0,1-.609-.609v-7.721a.608.608,0,0,1,.608-.6h22.646a.6.6,0,0,1,.608.6Zm0-19.982a.6.6,0,0,1-.609.6H477.276a.609.609,0,0,1-.608-.6v-7.725a.613.613,0,0,1,.608-.608h22.646a.608.608,0,0,1,.608.608Zm0-19.987a.6.6,0,0,1-.609.608H477.276a.608.608,0,0,1-.608-.608v-7.721a.608.608,0,0,1,.608-.608h22.646a.6.6,0,0,1,.608.608Zm53.69,119.9a.608.608,0,0,1-.608.6H530.966a.6.6,0,0,1-.609-.6v-7.721a.608.608,0,0,1,.609-.608h22.646a.612.612,0,0,1,.608.608Zm0-19.987a.609.609,0,0,1-.608.608H530.966a.6.6,0,0,1-.6-.6v-7.731a.6.6,0,0,1,.608-.608h22.646a.608.608,0,0,1,.608.608Zm0-19.982a.613.613,0,0,1-.608.609H530.966a.609.609,0,0,1-.609-.608v-7.721a.609.609,0,0,1,.609-.608h22.646a.613.613,0,0,1,.608.608Zm0-19.987a.608.608,0,0,1-.608.608H530.966a.6.6,0,0,1-.609-.608V406.9a.6.6,0,0,1,.608-.609h22.646a.609.609,0,0,1,.608.608Zm0-19.982a.613.613,0,0,1-.608.608H530.966a.609.609,0,0,1-.6-.6v-7.729a.6.6,0,0,1,.608-.6h22.646a.608.608,0,0,1,.608.6Zm0-19.982a.608.608,0,0,1-.608.6H530.966a.6.6,0,0,1-.609-.6v-7.721a.608.608,0,0,1,.609-.608h22.646a.612.612,0,0,1,.608.608Zm0-19.987a.609.609,0,0,1-.608.608H530.966a.6.6,0,0,1-.609-.609v-7.717a.6.6,0,0,1,.608-.608h22.646a.608.608,0,0,1,.608.608Z" transform="translate(-258.924 -213.914)" fill="#f2f2f2"/>
      <path id="Path_82" data-name="Path 82" d="M305.1,114.8l-7,4.436,4.246-7.726a6.919,6.919,0,0,0-4.228-1.51H298a8.154,8.154,0,0,1-1.454-.1l-2.371,1.519,1.014-1.848a8.411,8.411,0,0,1-4.147-3.156l-4.242,2.7,2.678-4.873a12.407,12.407,0,0,0-9.506-4.8c-4.413,0-8.343,2.623-10.881,6.712a8.114,8.114,0,0,1-7.213,3.876h-.235c-4.873,0-8.826,5.526-8.826,12.342s3.946,12.337,8.826,12.337a6.635,6.635,0,0,0,3.069-.77,12.716,12.716,0,0,1,10.679-.208,11.111,11.111,0,0,0,9.079,0,12.725,12.725,0,0,1,10.579.208,6.635,6.635,0,0,0,3.042.753c4.873,0,8.826-5.526,8.826-12.337A15.646,15.646,0,0,0,305.1,114.8Z" transform="translate(-189.715 -99.43)" fill="#f2f2f2"/>
      <path id="Path_83" data-name="Path 83" d="M291.933,152.386a13.022,13.022,0,0,0-7.559.82,11.129,11.129,0,0,1-9.073,0,12.733,12.733,0,0,0-10.679.208,6.634,6.634,0,0,1-3.075.766c-4.327,0-7.929-4.361-8.677-10.111a8.352,8.352,0,0,0,2.164-2.33c2.538-4.115,6.46-6.743,10.881-6.743s8.293,2.6,10.818,6.639a8.33,8.33,0,0,0,7.19,3.946h.113C287.5,145.592,290.481,148.356,291.933,152.386Z" transform="translate(-189.737 -118.967)" opacity="0.03"/>
      <path id="Path_84" data-name="Path 84" d="M867.025,295.777l-3.5,2.2,2.118-3.854a3.458,3.458,0,0,0-2.11-.753h-.054a3.877,3.877,0,0,1-.727-.054l-1.181.753.5-.924a4.238,4.238,0,0,1-2.069-1.569l-2.114,1.35,1.35-2.434a6.194,6.194,0,0,0-4.737-2.388,6.455,6.455,0,0,0-5.409,3.349,4.057,4.057,0,0,1-3.606,1.933h-.117c-2.43,0-4.4,2.754-4.4,6.152s1.973,6.152,4.4,6.152a3.3,3.3,0,0,0,1.533-.383,6.347,6.347,0,0,1,5.324-.1,5.557,5.557,0,0,0,4.531,0,6.36,6.36,0,0,1,5.278.1,3.287,3.287,0,0,0,1.514.374c2.43,0,4.4-2.754,4.4-6.152a7.847,7.847,0,0,0-.928-3.746Z" transform="translate(-512.752 -203.056)" fill="#f2f2f2"/>
      <path id="Path_85" data-name="Path 85" d="M860.448,314.538a6.542,6.542,0,0,0-3.772.415,5.535,5.535,0,0,1-2.254.478,5.6,5.6,0,0,1-2.254-.487,6.356,6.356,0,0,0-5.328.1,3.285,3.285,0,0,1-1.533.383c-2.159,0-3.953-2.172-4.327-5.044a4.176,4.176,0,0,0,1.082-1.163,6.057,6.057,0,0,1,10.818-.036,4.154,4.154,0,0,0,3.606,1.973h.058C858.238,311.153,859.723,312.532,860.448,314.538Z" transform="translate(-512.752 -212.816)" opacity="0.03"/>
      <path id="Path_89" data-name="Path 89" d="M994.759,674.121c1.35-2.484-.185-5.526-1.933-7.744s-3.881-4.508-3.836-7.342c.068-4.057,4.373-6.45,7.812-8.6a38.259,38.259,0,0,0,7.014-5.64,10.369,10.369,0,0,0,2.155-2.885,11.707,11.707,0,0,0,.645-5.13q-.221-8.682-.857-17.349" transform="translate(-594.044 -385.037)" fill="none" stroke="#3f3d56" stroke-miterlimit="10" stroke-width="4"/>
      <path id="Path_90" data-name="Path 90" d="M1025.336,611.383a6.31,6.31,0,0,0-3.156-5.183l-1.415,2.8.04-3.394a6.246,6.246,0,0,0-2.082-.248,6.31,6.31,0,1,0,6.618,6.023Z" transform="translate(-607.081 -377.304)" fill="#57b894"/>
      <path id="Path_91" data-name="Path 91" d="M1001.15,702.5a6.31,6.31,0,1,1,.312-5.093l-3.953,3.219,4.35-1.009a6.312,6.312,0,0,1-.7,2.885Z" transform="translate(-594.176 -425.609)" fill="#57b894"/>
      <path id="Path_92" data-name="Path 92" d="M1000.481,671.067a6.31,6.31,0,0,1-2.006-12.414l-.036,2.605,1.433-2.835h0a6.334,6.334,0,0,1,.609,12.643Z" transform="translate(-596.63 -406.447)" fill="#57b894"/>
      <path id="Path_93" data-name="Path 93" d="M1034.755,648.412a6.318,6.318,0,1,1,2.794-11.819l-1.118,3.061,2.3-2.2a6.31,6.31,0,0,1,2.043,4.361,6.207,6.207,0,0,1-.158,1.744,6.31,6.31,0,0,1-5.864,4.857Z" transform="translate(-615.545 -394.018)" fill="#57b894"/>
      <path id="Path_94" data-name="Path 94" d="M1024.513,617.291c-1.46.162-2.88.618-4.346.708a4.729,4.729,0,0,1-4-1.4,19.559,19.559,0,0,1-1.167-2.06,4.507,4.507,0,0,0-1.6-1.5,6.31,6.31,0,1,0,11.828,4.2C1024.991,617.25,1024.752,617.263,1024.513,617.291Z" transform="translate(-607.114 -381.526)" opacity="0.1"/>
      <path id="Path_95" data-name="Path 95" d="M1034.735,652.815a6.31,6.31,0,0,1-6.023-9.015,4.627,4.627,0,0,1,1.271,1.276,20.61,20.61,0,0,0,1.254,2.087,5.152,5.152,0,0,0,4.2,1.469c1.528-.072,3-.5,4.507-.64.208-.023.424-.036.64-.04a6.31,6.31,0,0,1-5.846,4.863Z" transform="translate(-615.526 -398.422)" opacity="0.1"/>
      <path id="Path_96" data-name="Path 96" d="M1000.655,675.629a6.31,6.31,0,0,1-6.072-8.907,4.959,4.959,0,0,1,1.35,1.284c.491.694.8,1.492,1.35,2.132a5.856,5.856,0,0,0,4.476,1.569c1.614-.036,3.079-.415,4.634-.537A6.334,6.334,0,0,1,1000.655,675.629Z" transform="translate(-596.808 -411.01)" opacity="0.1"/>
      <path id="Path_97" data-name="Path 97" d="M1001.113,708.564a17.934,17.934,0,1,0-10.147-3.922,26.76,26.76,0,0,0,1.695,2.253,7.876,7.876,0,0,0,5.243,1.839,27.043,27.043,0,0,0,3.209-.171Z" transform="translate(-594.146 -431.669)" opacity="0.1"/>
      <path id="Path_98" data-name="Path 98" d="M980.62,731.131s4.995-.158,6.5-1.226,7.663-2.353,8.05-.635,7.505,8.565,1.869,8.6-13.072-.9-14.6-1.8S980.62,731.131,980.62,731.131Z" transform="translate(-589.447 -444.904)" fill="#656380"/>
      <path id="Path_99" data-name="Path 99" d="M997.141,740.5c-5.639.045-13.1-.878-14.6-1.8-1.142-.695-1.6-3.2-1.754-4.35h-.167s.312,4.025,1.8,4.958,8.965,1.839,14.6,1.8c1.627,0,2.191-.595,2.159-1.454C998.97,740.182,998.371,740.5,997.141,740.5Z" transform="translate(-589.447 -448.155)" opacity="0.2"/>
      <path id="Path_100" data-name="Path 100" d="M723.79,602.741c0,7.527,3.859,7.97,10.29,13.627s10.286-6.1,10.286-13.627S739.76,589.11,734.08,589.11,723.79,595.214,723.79,602.741Z" transform="translate(-448.386 -368.383)" fill="#915766"/>
      <path id="Path_101" data-name="Path 101" d="M577.872,469.31a3.78,3.78,0,0,0,1.492,4.188,14.3,14.3,0,0,0,4.361,1.9,28.485,28.485,0,0,1,16.155,13.261,22.976,22.976,0,0,1,.623,20.609c-1.69,3.412-4.309,6.31-5.86,9.777-3.115,6.9-1.537,15.358,2.944,21.46s13.257,7.28,20.582,9.173c0,0,18.932,14.875,25.694,10.818" transform="translate(-368.129 -302.584)" fill="none" stroke="#3f3d56" stroke-miterlimit="10" stroke-width="1"/>
      <path id="Path_102" data-name="Path 102" d="M614.366,722.477s-.9,7.663,3.156,8.114a52.211,52.211,0,0,0,5.95.194,6.5,6.5,0,0,0,5.441-9.917l-.122-.189C624.733,714.363,614.366,722.477,614.366,722.477Z" transform="translate(-388.238 -439.325)" fill="#915766"/>
      <path id="Path_103" data-name="Path 103" d="M609.034,694.376s9.917,13.072,24.791,1.35-3.156-17.133-3.156-17.133H611.738l-11.268,4.958Z" transform="translate(-380.653 -417.535)" fill="#b56d7e"/>
      <path id="Path_104" data-name="Path 104" d="M699.571,689.6s4.508,5.409,8.565,4.958c3.254-.36,9.7,2.759,8.632,8.43a6.41,6.41,0,0,1-7.492,5.174,5.133,5.133,0,0,1-3.842-3.237s-14.424.9-13.973-3.156S699.571,689.6,699.571,689.6Z" transform="translate(-430.622 -423.577)" fill="#915766"/>
      <path id="Path_105" data-name="Path 105" d="M592.818,632.4s5.86,9.015,0,14.875a23.767,23.767,0,0,1-12.171,6.761s2.254,4.057-6.31,3.606-11.268-3.156-8.565-7.213,9.466-8.565,8.114-11.72-3.156-9.916-.451-13.973a14.906,14.906,0,0,1-2.84-3.129c-2.393-3.643,2.4-7.744,5.711-4.908l2.538,2.181s7.663-6.31,24.341-3.156c0,0,6.761-.451,8.114-5.409,0,0-7.213-15.776,11.719-27.5a22.665,22.665,0,0,1,10.818-1.8c6.31.451,13.072.9,17.58,10.818,0,0,3.683,6.761,8.01,9.367a9.534,9.534,0,0,1,4.386,6.646c1.3,7.767-.347,20.117-26.82,13.739,0,0-2.028,16.453-14.649,23.214,0,0-.9,4.508,0,5.86s5.409,7.663-1.8,7.213c-3.606-.221-6.387-.225-8.307-.167a4.508,4.508,0,0,1-3.946-6.924c.023-.041.05-.081.077-.122a13.578,13.578,0,0,0-3.156-11.268l-.9-5.409Z" transform="translate(-361.043 -363.897)" fill="#9c5e6d"/>
      <ellipse id="Ellipse_3" data-name="Ellipse 3" cx="5.86" cy="2.253" rx="5.86" ry="2.253" transform="translate(289.458 240.11)" fill="#915766"/>
      <path id="Path_106" data-name="Path 106" d="M407.72,650.773a22.079,22.079,0,0,1-4.2,1.8c-2.605.712-5.409.451-8.028,1.059a3.313,3.313,0,0,0-2.6,1.8,3.681,3.681,0,0,0,.284,2.376c2.907,8.528,4.661,17.58,9.3,25.319a38.287,38.287,0,0,0,7.186,8.722,6.861,6.861,0,0,0,3.66,2.033,3.724,3.724,0,0,0,3.786-5.229c-.415-.9-1.19-1.641-1.69-2.524a9.565,9.565,0,0,1-.935-3.606c-.451-3.647-.9-7.46.366-10.917.847-2.317,2.4-4.292,3.7-6.387s2.376-4.508,2.087-6.957a12.111,12.111,0,0,0-1.875-4.648c-.861-1.446-2.569-5.346-4.305-5.828S409.293,649.967,407.72,650.773Z" transform="translate(-266.591 -400.58)" fill="#fff"/>
      <path id="Path_107" data-name="Path 107" d="M526.929,707.5a7.275,7.275,0,0,1-.338,2.438c-.545,1.433-1.893,2.416-2.588,3.782-.969,1.9-.528,4.2.113,6.23a6.387,6.387,0,0,0,2.006,3.389,6.663,6.663,0,0,0,3.056.978c9.263,1.28,18.666.545,28.01.816a9.546,9.546,0,0,0,4.995-.727c1.488-.831,2.407-2.925,1.392-4.3-.9-1.23-2.7-1.217-4.228-1.294a17.386,17.386,0,0,1-10.737-4.422,7.658,7.658,0,0,1-1.506-1.731,10.4,10.4,0,0,1-.789-1.8,80.774,80.774,0,0,0-4.665-10.327,5.44,5.44,0,0,0-2.006-2.4,5.318,5.318,0,0,0-2.172-.474c-2.33-.154-8.361-.947-10.16.865C525.648,700.192,526.964,705.375,526.929,707.5Z" transform="translate(-338.343 -427.836)" fill="#fff"/>
      <circle id="Ellipse_4" data-name="Ellipse 4" cx="14.875" cy="14.875" r="14.875" transform="translate(188.038 43.129)" fill="#fbbebe"/>
      <path id="Path_108" data-name="Path 108" d="M527.606,246.947a11.214,11.214,0,0,1-4.569,5.86l20.572,4.2a21.713,21.713,0,0,1-.289-9.173,5.356,5.356,0,0,0,.122-2.254c-.387-1.492-2.069-2.213-3.57-2.555-3.755-.857-7.077-1.317-10.565-2.971C528.247,241.875,528.4,244.841,527.606,246.947Z" transform="translate(-338.125 -176.665)" fill="#fbbebe"/>
      <path id="Path_109" data-name="Path 109" d="M499.946,254.26a16.1,16.1,0,0,1,14.018.37,31.741,31.741,0,0,1,6.969,5.557c1.979,1.906,4.088,4.093,4.228,6.838a19.039,19.039,0,0,1-.559,3.946,13.23,13.23,0,0,0,7.077,13.586c1.631,2.7,1.973,6.023,2,9.2.094,12.031-3.7,24.21-.992,35.934.635,2.75,1.623,5.409,2.172,8.186.712,3.606.676,7.28,1.05,10.922a48.867,48.867,0,0,0,2.623,11.549,4.8,4.8,0,0,1-4.436,1.852,12.575,12.575,0,0,1-4.746-1.609c-7.248-3.71-13.892-8.6-21.4-11.755-4.958-2.087-10.259-3.385-15.078-5.8s-9.3-6.23-10.777-11.413a26.907,26.907,0,0,1-.712-6.932c-.144-9.813-.279-19.729,1.857-29.3,1.879-8.447,5.513-16.525,6.31-25.143.256-2.8.262-5.815,1.83-8.15C493.59,258.767,498.373,257.924,499.946,254.26Z" transform="translate(-315.206 -183.685)" fill="#3f3d56"/>
      <path id="Path_110" data-name="Path 110" d="M524.524,200.943a3.847,3.847,0,0,1,3.971-.961c1.4.339,2.7,1.059,4.1,1.35a2.416,2.416,0,0,0,1.925-.27,2.8,2.8,0,0,0,.831-1.835,35,35,0,0,0,.343-8.921,2.664,2.664,0,0,1,.081-1.253c.352-.843,1.419-1.046,2.29-1.317a6.834,6.834,0,0,0,4.629-7,2.763,2.763,0,0,0-.852-1.92,3.52,3.52,0,0,0-2.226-.532q-5.995-.045-11.994,0a8.572,8.572,0,0,0-4.319.789,20.921,20.921,0,0,0-2.507,2.11c-2.218,1.8-5.224,2.155-7.924,3.075a7.861,7.861,0,0,0-3.475,2.077,3.656,3.656,0,0,0-.766,3.8,13.837,13.837,0,0,0,.969,1.492c1.6,2.547.532,5.86.771,8.848.3,3.738,5.833,9.813,9.587,10.7C526.02,212.586,522.522,203.391,524.524,200.943Z" transform="translate(-330.072 -142.733)" fill="#3f3d56"/>
      <path id="Path_111" data-name="Path 111" d="M522.074,560.748a44.4,44.4,0,0,1,.744,8.231c-.185,3.842-1.569,7.555-1.826,11.4-.194,2.871.252,5.774-.148,8.619-.256,1.8-.847,3.579-1.217,5.409a22.276,22.276,0,0,0,3.579,17.048,2.78,2.78,0,0,0,1.038,1.009,2.967,2.967,0,0,0,1.29.171,92.652,92.652,0,0,0,12.924-1.181.9.9,0,0,0,1.009-.857c.793-4.057-1.015-8.159-1.474-12.283-.491-4.4.564-8.817,1.614-13.126a57.891,57.891,0,0,1,1.781-6.275c.5-1.388,1.118-2.732,1.558-4.142a31.547,31.547,0,0,0,1.132-6.761q.451-5.409.483-10.886a46.937,46.937,0,0,0-.852-10.273,54.389,54.389,0,0,0-4.9-12.171,7.892,7.892,0,0,0-2.88,1.35,64.816,64.816,0,0,1-7.883,4.354c-1.83.847-5.409,1.454-6.563,3.227s-.406,5.31-.32,7.24Q521.389,555.826,522.074,560.748Z" transform="translate(-336.019 -338.488)" fill="#3f3d56"/>
      <path id="Path_112" data-name="Path 112" d="M522.074,560.748a44.4,44.4,0,0,1,.744,8.231c-.185,3.842-1.569,7.555-1.826,11.4-.194,2.871.252,5.774-.148,8.619-.256,1.8-.847,3.579-1.217,5.409a22.276,22.276,0,0,0,3.579,17.048,2.78,2.78,0,0,0,1.038,1.009,2.967,2.967,0,0,0,1.29.171,92.652,92.652,0,0,0,12.924-1.181.9.9,0,0,0,1.009-.857c.793-4.057-1.015-8.159-1.474-12.283-.491-4.4.564-8.817,1.614-13.126a57.891,57.891,0,0,1,1.781-6.275c.5-1.388,1.118-2.732,1.558-4.142a31.547,31.547,0,0,0,1.132-6.761q.451-5.409.483-10.886a46.937,46.937,0,0,0-.852-10.273,54.389,54.389,0,0,0-4.9-12.171,7.892,7.892,0,0,0-2.88,1.35,64.816,64.816,0,0,1-7.883,4.354c-1.83.847-5.409,1.454-6.563,3.227s-.406,5.31-.32,7.24Q521.389,555.826,522.074,560.748Z" transform="translate(-336.019 -338.488)" opacity="0.1"/>
      <path id="Path_113" data-name="Path 113" d="M457.172,463.06c-1.973,5.319.928,11.066,3.453,16.146,6.194,12.518,10.521,25.878,14.8,39.18a4.794,4.794,0,0,1,.283,3.065,3.984,3.984,0,0,1-1.446,1.717c-2.961,2.253-6.73,3.052-10.255,4.228a46.457,46.457,0,0,0-9.727,4.557c-2.551,1.582-4.958,3.412-7.334,5.238l-7.6,5.806a5,5,0,0,0-1.271,1.23c-.735,1.149-.451,2.65-.068,3.967a67.164,67.164,0,0,0,3.724,10.161,3.544,3.544,0,0,0,1.35,1.771c1.19.635,2.642-.208,3.547-1.208s1.69-2.254,2.966-2.664,2.682.09,4.011-.094c2.159-.312,3.606-2.29,5.143-3.813,6.347-6.23,16.944-5.779,23.93-11.268a32.116,32.116,0,0,1,3.2-2.5c1.163-.7,2.52-1.077,3.745-1.695,3.724-1.875,6.067-5.756,7.321-9.732s1.614-8.177,2.515-12.253a57.153,57.153,0,0,0,1.284-6.31,34.122,34.122,0,0,0-.127-5.99l-2.52-31.17c-.208-2.538-.415-5.076-.811-7.591-7.483.266-14.961.568-22.448.658C468.892,464.525,462.806,464.945,457.172,463.06Z" transform="translate(-291.207 -299.151)" fill="#3f3d56"/>
      <path id="Path_114" data-name="Path 114" d="M473.978,464.325c1.014,1.636,3.485,1.6,5.184.708s3.025-2.4,4.729-3.286c2.295-1.194,5-1.149,7.586-1.078a49.873,49.873,0,0,1,12.171,1.35c4.057,1.159,8.028,3.389,12.238,2.944a2.527,2.527,0,0,0,1.929-.9,2.908,2.908,0,0,0,.32-1.454l.135-3.678a3.324,3.324,0,0,0-.293-1.858A3.106,3.106,0,0,0,516.584,456c-5.99-2.9-12.815-3.439-19.463-3.67q-5.071-.167-10.147-.14c-2.867,0-6.31-.4-9.106.37C474.114,453.6,472.075,461.273,473.978,464.325Z" transform="translate(-310.78 -293.127)" fill="#3f3d56"/>
      <path id="Path_115" data-name="Path 115" d="M510.555,259.127c-7.848-.068-14.953-5.247-22.8-5.373a5.977,5.977,0,0,0-2.772.478,10.423,10.423,0,0,0-2.642,2.515c-2.317,2.511-5.68,3.854-8.06,6.31a9.3,9.3,0,0,0-2.6,8.8c.884,3.083,4.21,5.445,7.329,4.706a18.887,18.887,0,0,1,7.361-10,36.963,36.963,0,0,1,5.752-3.02c3.53-1.6,7.469-3.227,11.152-2.028a15.691,15.691,0,0,1,3.8,2.077l6.135,4.12a42.639,42.639,0,0,0-2.663-8.591Z" transform="translate(-309.761 -184.183)" fill="#ff4123"/>
      <path id="Path_116" data-name="Path 116" d="M472.976,281.615c-1.038,1.3.451,3.183.229,4.833-.154,1.1-1.055,1.933-1.433,2.975a16.339,16.339,0,0,0-.329,3.408,14.768,14.768,0,0,1-.653,2.43,43.658,43.658,0,0,0-1.379,7.213l-1.375,10.259a38.45,38.45,0,0,0-.451,4.656,13.235,13.235,0,0,1-.235,3.485,23.954,23.954,0,0,1-1.429,3.156,3.7,3.7,0,0,0-.05,3.349,5.849,5.849,0,0,0-1.226,7.307,4,4,0,0,1,.631,1.163A2.966,2.966,0,0,1,465,337.56l-1.388,3.7c-.356.947-.451,2.388.519,2.605a8.694,8.694,0,0,0-1.875,2.961,3.516,3.516,0,0,0,.5,3.34,4.394,4.394,0,0,1,.87,1.055,2.783,2.783,0,0,1-.1,1.661,6.108,6.108,0,0,0,.757,4.791,4.291,4.291,0,0,0,4.323,1.853c2.777-.623,5.274-1.614,8.073-1.1a143.666,143.666,0,0,1,17.922,4.084c6.662,2.128,13.117,5.247,20.085,5.9a1.929,1.929,0,0,0,1.35-.208,2.024,2.024,0,0,0,.623-1.275l2.159-10.092a103.569,103.569,0,0,0,1.979-11.31c.248-2.453.311-4.922.387-7.388l.555-19.625a19.546,19.546,0,0,0-1.118-8.532l-3.191-10.188c-1.8-5.815-6-10.971-7.487-16.881-.942-3.738-1.636-7.753-4.165-10.669-3.606-4.154-9.826-4.8-15.277-4.088a18.549,18.549,0,0,0-7.077,2.159c-2.466,1.473-4.278,3.8-6.036,6.077C475.928,278.261,474.459,279.766,472.976,281.615Z" transform="translate(-304.622 -191.963)" fill="#ff4123"/>
      <path id="Path_117" data-name="Path 117" d="M513.919,410.877c.451,1.939,1.392,3.724,1.973,5.626.965,3.187.9,6.622,1.848,9.809.406,1.35,1,2.623,1.284,3.989.681,3.191-.311,6.487-1.542,9.506s-2.727,5.995-3.129,9.231c-.279,2.276.127,4.85,1.879,6.31,1.825,1.537,4.471,1.433,6.847,1.226a7.278,7.278,0,0,0,2.492-.514c1.8-.861,2.578-3.011,3.011-4.958,1.419-6.581,1.015-13.4.6-20.122l-1.073-17.576a42.056,42.056,0,0,0-1.474-10.084c-.379-1.181-1.038-3.57-2.118-4.327s-4.12-.78-5.445-.843C512.843,397.863,512.916,406.531,513.919,410.877Z" transform="translate(-332.837 -263.497)" fill="#fbbebe"/>
      <path id="Path_118" data-name="Path 118" d="M514.659,281.976a4.257,4.257,0,0,0-4.088.365,12.733,12.733,0,0,0-3.069,2.975c-2.74,3.345-5.639,7.186-5.233,11.49a28.952,28.952,0,0,0,1.19,4.71c1.835,6.865-.194,14.131.036,21.24a66.656,66.656,0,0,0,1.92,12.171c.181.816.451,1.765,1.262,2.041a2.7,2.7,0,0,0,1.8-.284,14.568,14.568,0,0,1,13.329,1.677c1.474-.784.9-3.264.591-4.9-.978-4.854.352-9.865,1.966-14.546s3.547-9.358,3.818-14.3c.3-5.607-1.558-11.075-3.389-16.38a6.9,6.9,0,0,0-1.765-3.156,7.033,7.033,0,0,0-2.669-1.217,33.751,33.751,0,0,1-5.7-1.885Z" transform="translate(-326.693 -199.488)" fill="#3f3d56"/>
      <path id="Path_119" data-name="Path 119" d="M667.47,647.6s13.523,14.875,25.694,10.818" transform="translate(-417.452 -400.508)" fill="none" stroke="#3f3d56" stroke-miterlimit="10" stroke-width="1"/>
      <path id="Path_120" data-name="Path 120" d="M678.722,602.741c0,7.527-3.854,7.97-10.286,13.627s-10.286-6.1-10.286-13.627,4.606-13.631,10.286-13.631S678.722,595.214,678.722,602.741Z" transform="translate(-412.333 -368.383)" fill="#915766"/>
      <path id="Path_121" data-name="Path 121" d="M184.577,616.657A11.13,11.13,0,0,0,186.051,611c0-5.107-3.156-9.242-7.068-9.242s-7.061,4.138-7.061,9.242a11.13,11.13,0,0,0,1.473,5.653,11.576,11.576,0,0,0,0,11.3,11.576,11.576,0,0,0,0,11.3,11.576,11.576,0,0,0,0,11.3,11.142,11.142,0,0,0-1.475,5.653c0,5.107,3.156,9.25,7.061,9.25s7.068-4.142,7.068-9.25a11.143,11.143,0,0,0-1.473-5.653,11.576,11.576,0,0,0,0-11.291,11.576,11.576,0,0,0,0-11.3,11.576,11.576,0,0,0,0-11.3Z" transform="translate(-145.274 -375.331)" fill="#3f3d56"/>
      <ellipse id="Ellipse_5" data-name="Ellipse 5" cx="7.063" cy="9.25" rx="7.063" ry="9.25" transform="translate(26.627 215.124)" fill="#3f3d56"/>
      <ellipse id="Ellipse_6" data-name="Ellipse 6" cx="7.063" cy="9.25" rx="7.063" ry="9.25" transform="translate(26.627 203.818)" fill="#3f3d56"/>
      <path id="Path_122" data-name="Path 122" d="M120.053,333.725a34.412,34.412,0,0,1-2.632-3.872l18.567-3.052-20.081.148a33.906,33.906,0,0,1-.645-26.807l26.932,13.973-24.837-18.269a33.843,33.843,0,1,1,55.894,37.863,33.512,33.512,0,0,1,3.859,6.171l-24.1,12.549,25.694-8.618a33.87,33.87,0,0,1-5.459,31.783,33.843,33.843,0,1,1-53.19,0,33.843,33.843,0,0,1,0-41.846Z" transform="translate(-112.809 -198.02)" fill="#57b894"/>
      <path id="Path_123" data-name="Path 123" d="M180.53,446.311a33.717,33.717,0,0,1-7.244,20.924,33.843,33.843,0,1,1-53.19,0C115.54,461.479,180.53,442.512,180.53,446.311Z" transform="translate(-112.83 -289.678)" opacity="0.1"/>
    </g>
  </g>
</svg>
