<svg xmlns="http://www.w3.org/2000/svg" xmlns:xlink="http://www.w3.org/1999/xlink" width="392.149" height="493.613" viewBox="0 0 392.149 493.613">
  <defs>
    <linearGradient id="linear-gradient" y1="0.5" x2="1" y2="0.5" gradientUnits="objectBoundingBox">
      <stop offset="0" stop-color="#2a5580"/>
      <stop offset="1" stop-color="#3e6970"/>
    </linearGradient>
  </defs>
  <g id="Group_12" data-name="Group 12" transform="translate(-738.308 -260.772)">
    <path id="Path_1" data-name="Path 1" d="M1201.822,1086.8c19.137,74.148,101.265,156.067,232.885,133.41s176.5-164.547,134.615-257.392-189.963-221.2-285.7-116.618S1181.343,1007.454,1201.822,1086.8Z" transform="translate(-454.029 -546.361)" fill="#ffe7e3"/>
    <g id="Group_1" data-name="Group 1" transform="translate(872.104 735.376)">
      <ellipse id="Ellipse_1" data-name="Ellipse 1" cx="126.516" cy="9.505" rx="126.516" ry="9.505" opacity="0.17" fill="url(#linear-gradient)"/>
    </g>
    <rect id="Rectangle_12" data-name="Rectangle 12" width="114.871" height="132.88" transform="translate(904.727 569.817)" fill="#fff"/>
    <path id="Path_478" data-name="Path 478" d="M1744.527,1821.377s.389,5.062,1.559,7.023,4.985,13.593,6.626,16.54,8.18,5.058,7.873,10.252-12.362,6.023-15.716,3.528-14.216-18.1-15.463-20.368-1.709-9.97.547-12.161,4.725-6.719,4.7-7.774S1743.2,1819.263,1744.527,1821.377Z" transform="translate(-761.081 -1125.481)" fill="#e8734d"/>
    <path id="Path_479" data-name="Path 479" d="M1689.446,1460.664s21.717,28.591,25.459,37.049,10.184,20.543,10.184,24.469-3.323,19.936-4.989,22.956-13.093,54.571-13.717,57.895-2.935,12.508-2.935,12.508l-9.9-2.943s-1.03-45.656.734-54.716,7.108-22.213,6.28-26.335-14.135-15.609-23.281-21.747-19.953-15.805-20.577-25.776,4.417-21.248,4.417-21.248S1671.467,1455.427,1689.446,1460.664Z" transform="translate(-720.003 -919.643)" fill="#eea886"/>
    <path id="Path_480" data-name="Path 480" d="M1751.443,1453.736s6.233,9.214,9.351,11.478,24.776,22.956,31.021,33.076,8.364,11.632,7.065,16.01-3.17,16.16-4.57,19.18-19.539,75.131-19.539,75.131-7.471,1.888-9.654-1.435c0,0,4.272-31.256,3.17-42.585s1.115-27.813,5.886-36.122,1.431-13.866-4.024-17.642-35.6-20.842-35.6-20.842S1697.974,1439.391,1751.443,1453.736Z" transform="translate(-757.63 -915.286)" fill="#eea886"/>
    <path id="Path_481" data-name="Path 481" d="M1823.93,1817.434s.158,1.811.7,2.038,9.116,12.913,10.756,14.724,11.922,4.759,12.08,5.98-1.405,8-9.825,8.155-15.433-7.1-18.864-9.825-12.858-5.438-9.432-12.388,5.182-9.748,5.182-9.748Z" transform="translate(-807.049 -1124.48)" fill="#e8734d"/>
    <path id="Path_482" data-name="Path 482" d="M1735.16,1825.049a44.024,44.024,0,0,1,4.374,10.107c1.709,5.891,8.416,13.516,13.016,13.289s3.844-3.593,3.844-3.593-4.882-13.4-6.929-17.7a44.213,44.213,0,0,1-1.034-5.438c-.128-.743-6.86-3.473-9.9-2.943C1738.509,1818.769,1735.844,1824.122,1735.16,1825.049Z" transform="translate(-764.973 -1125.816)" fill="#eea886"/>
    <path id="Path_483" data-name="Path 483" d="M1838.96,1834.529s-1.551,4.1-5.446,3.358-8.266-5.126-10.526-7.617a102.564,102.564,0,0,0-8.808-7.561l3.545-6.339,9.355.572Z" transform="translate(-810.238 -1124.48)" fill="#eea886"/>
    <path id="Path_484" data-name="Path 484" d="M1713.476,1454.091s6.706,8.851,8.889,10.564,21.282,17.249,32.931,36.715c0,0-37.463-1.281-58.322,21.786,0,0-20.231-16.783-22.465-18.462s-16.783-10.252-17.941-23.922,4.417-21.247,4.417-21.247S1701.972,1450.063,1713.476,1454.091Z" transform="translate(-719.863 -916.385)" fill="#383838"/>
    <path id="Path_485" data-name="Path 485" d="M1717.193,1297.294c-4.942,8.36-5.771,37.788-4.52,40.62,0,0-28.407,8.735-53.033,5.237,0,0,1.226-2.674,2.443-6.186.491-1.405,1.03-2.96,1.589-4.549,1.756-4.994,3.7-10.376,4.729-12.815,2.183-5.16,1.4-13.815-.312-16.813s-11.85-25.468-11.85-25.468-5.455-15.98,3.9-20.974a72.131,72.131,0,0,1,18.052-6.689l16.472-1.136s3.588.667,8.42,1.085,9.825,1.247,10.833,9.235,2.008,12.208,3.046,14.319S1722.8,1287.807,1717.193,1297.294Z" transform="translate(-718.86 -799.2)" fill="#e8734d"/>
    <path id="Path_486" data-name="Path 486" d="M1648.7,1260.15s-9.663,1.333-13.922,8.766-3.977,17.454-4.912,21.448-6.651,41.282-5.613,44.5,5.1,8.654,11.226,7.988,30.867-13.537,30.867-13.537-3.328-9.658-3.328-11.653l-23.8,8.321s5.716-38.954,6.442-43.281S1651.069,1263.986,1648.7,1260.15Z" transform="translate(-701.37 -805.862)" fill="#e8734d"/>
    <path id="Path_487" data-name="Path 487" d="M1778.44,1252.74s7.382,1.5,11.534,7.6c2.883,4.246,3.118,13.67,3.533,15.455s5.925,21.875,5.925,21.875l-15.378,10.308Z" transform="translate(-789.765 -801.617)" fill="#e8734d"/>
    <path id="Path_488" data-name="Path 488" d="M1713.72,1322.181l-53.939-15.981-2.183,1.773-4.468,42.4,60.59,22.747Z" transform="translate(-717.984 -832.24)" fill="#1d3b54"/>
    <path id="Path_489" data-name="Path 489" d="M1884.949,1324.72l-.149-.043,9.786-49.928,4.519,1.956v.073Zm9.761-49.74-9.423,48.083,13.635-46.263Z" transform="translate(-850.692 -814.225)" fill="#fff"/>
    <path id="Path_490" data-name="Path 490" d="M1760.977,1183.82s-5.126,24.69-1.474,31.5c0,0-11.154-4.092-13.345-8.633S1760.977,1183.82,1760.977,1183.82Z" transform="translate(-771.162 -762.138)" fill="#1d3b54"/>
    <path id="Path_491" data-name="Path 491" d="M1727.951,1212.947s-.252,2.478-.53,5.745c-.094,1.115-.192,2.324-.282,3.558a96.366,96.366,0,0,0-.393,10.564s-7.954,8.509-17-9.932a26.832,26.832,0,0,0,.944-17.941C1707.832,1194.6,1727.951,1212.947,1727.951,1212.947Z" transform="translate(-750.418 -772.426)" fill="#eea886"/>
    <path id="Path_492" data-name="Path 492" d="M1726.814,1113.051s14.033,1.363,14.669,19.372-7.023,32.807-9.629,35.028-16.386-1.439-18.676-11.042-6.378-16.9-4.789-24.708S1709.642,1110.6,1726.814,1113.051Z" transform="translate(-749.434 -721.429)" fill="#eea886"/>
    <path id="Path_493" data-name="Path 493" d="M1727.25,1135.023s6.168-21.594-11.961-27.865-26.143,6.48-28.8,14.332-3.054,30.863-3.054,30.863,11.107,13.14,18.176,17.087c0,0-3.537-24.99.7-42.042,0,0,14.814,4.417,25.126,3.033C1727.43,1130.414,1727.332,1134.071,1727.25,1135.023Z" transform="translate(-735.347 -717.262)" fill="#1d3b54"/>
    <path id="Path_494" data-name="Path 494" d="M1737.32,1233.6c-.094,1.115-.192,2.324-.282,3.558-8.155-4.323-10.009-9.355-10.009-9.355C1732.468,1233.148,1737.32,1233.6,1737.32,1233.6Z" transform="translate(-760.316 -787.331)" fill="#a77860"/>
    <path id="Path_495" data-name="Path 495" d="M1798.613,1307.05s8.633,14.652,6.711,24.208-8.424,3.951-8.424,3.951S1805.623,1324.393,1798.613,1307.05Z" transform="translate(-800.34 -832.727)" fill="#c46141"/>
    <path id="Path_496" data-name="Path 496" d="M1803,1355.255l35.02-30.406,9.769-49.829-42.452,29.342Z" transform="translate(-803.834 -814.38)" fill="#1d3b54"/>
    <path id="Path_497" data-name="Path 497" d="M1794.97,1394.546h3.43l2.337-50.893-5.767-.043Z" transform="translate(-799.234 -853.67)" fill="#1d3b54"/>
    <path id="Path_498" data-name="Path 498" d="M1878.253,1363.428a27.321,27.321,0,0,0,2.405-4.848c1.021-2.738,4.041-12.96,3.417-13.4s-8.445,1.281-9.543,2.926,1.828,1.418,1.828,1.418-4.144,1.5-3.541,2.623,3.08.158,3.08.158-3.259,1.508-2.482,2.431,2.427.5,2.427.5-2.939,1.136-2.277,2.2,5.733.953,5.327,2.068A22.791,22.791,0,0,0,1878.253,1363.428Z" transform="translate(-843.795 -854.526)" fill="#eea886"/>
    <path id="Path_499" data-name="Path 499" d="M1715.78,1380.22s4.545-1.628,5.024-1.952,1.132-5.1,3.375-6.929,5.177-3.776,5.746-4.643,1.828,1.666-.154,3.845-2.016,3.891,2.892,2.8c2.713-.6,11.619-5.98,11.534-3.93-.06,1.2-8.791,5.98-8.791,5.98s9.705-4.468,10.286-3.994c1.145.944-8.432,5.818-8.855,5.98,0,0,8.544-3.289,8.971-2.52.487.953-8.146,4.383-8.005,4.507,0,0,6.835-2.529,7.014-1.9.231.833-5.579,3.588-6.766,3.964s-13.622,4.814-15.741,5.045-3.875,2.461-3.875,2.461Z" transform="translate(-753.872 -866.794)" fill="#eea886"/>
    <path id="Path_500" data-name="Path 500" d="M1679.351,1394.33s2.755,6.382,3.221,10.987c0,0-15.5,8.086-25.545,12.1l-7.787-16.873,1.662.308,2.614.978S1673.525,1396.047,1679.351,1394.33Z" transform="translate(-715.756 -882.724)" fill="#e8734d"/>
    <path id="Path_501" data-name="Path 501" d="M1842.337,1813.25s.684,6.318,1.709,6.835S1833.7,1817.957,1842.337,1813.25Z" transform="translate(-824.5 -1122.693)" fill="#eea886"/>
    <path id="Path_502" data-name="Path 502" d="M1684.6,1433c-.252.205-8.428,6.672-12.559,9.633.491-1.406,1.029-2.96,1.589-4.55Z" transform="translate(-728.816 -904.875)" fill="#c46141"/>
    <path id="Path_503" data-name="Path 503" d="M1983.216,1563.237s-5.8-13.191-6.655-14.054-5.98,7.031-2.9,17.514S1983.216,1563.237,1983.216,1563.237Z" transform="translate(-901.033 -971.391)" fill="#debca2"/>
    <path id="Path_504" data-name="Path 504" d="M1953.6,1766.938s-.594,12.995-3.507,19.526-4.955,41.222-2.405,42.666,9-1.1,8.932,3.191-.363,8.838-7.407,8.68-9.765-1.38-10.5-13.494-9.312-34.152-9.043-37.13S1953.995,1761.932,1953.6,1766.938Z" transform="translate(-876.392 -1095.792)" fill="#debca2"/>
    <path id="Path_505" data-name="Path 505" d="M1874.42,1600.128c-.53,3.575-6.882,7.6-13.157,10.974h0c-5.818,3.123-11.563,5.682-12.516,6.771-1.982,2.277-6.6,14.2-2.593,18.527s2.375,6.647,2.375,6.647a5.751,5.751,0,0,0-3.541-5.2c.09.171,4.122,8.022-2.29,28.975-3.14,10.252-13.071,19.248-23.725,26.058h-.034c-1.226.786-2.465,1.538-3.7,2.264-10.184,5.95-20.38,9.825-25.413,10.923-9.487,2.033-23.144,10.436-36.844,14.186a53.939,53.939,0,0,1-6.408,1.38c-15.737,2.362-21.154-13.354-19.979-25.049s39.513-38.446,45.319-41.564,11.162-8.142,12.025-12.243-9.876,2.563-10.145,2.721c2.691-2.563,15.733-8.847,21.32-10.961,5.5-2.08,8.543-10.179,8.659-10.432-2.956,3.178-10.538,2-10.538,2,6.536-.38,19.483-11.563,21.068-18.629s6.54-17.561,17.967-23.1,19.043.427,20.568,2.879,2.99,3.9,5.408,4.353c2.665.5,12.576.205,13.131.342S1875.441,1593.234,1874.42,1600.128Z" transform="translate(-759.977 -990.281)" fill="#d19364"/>
    <path id="Path_506" data-name="Path 506" d="M2067.4,1608.934c-.957-.192-3.917-3.768-2.807-4.225s2.871-.427,3.067.359S2069.024,1609.289,2067.4,1608.934Z" transform="translate(-953.539 -1003.064)" fill="#4f3b34"/>
    <path id="Path_507" data-name="Path 507" d="M2012.644,1601.594c-.547-.085-3.537.064-3.8,1.512s3.546,2.713,4.3,1.606S2013.357,1601.705,2012.644,1601.594Z" transform="translate(-921.739 -1001.44)" fill="#4f3b34"/>
    <path id="Path_508" data-name="Path 508" d="M1960.023,1570.059s-11.623-16.532-13.311-20.077-2.969,1.751-3.417,8.091,4.981,19.479,10.137,21.893S1960.023,1570.059,1960.023,1570.059Z" transform="translate(-884.184 -971.233)" fill="#d19364"/>
    <path id="Path_509" data-name="Path 509" d="M1759.929,1780.636c4.818-1.029,30.184,4.673,24.985,24.678s-34.554,27.843-32.384,28.86c0,0,18.595-.692,23.648,1.807s11.35,9.056,3.366,12.038-11.8-3.234-16.489-3.11-44.3,2.213-43.435-3.507,3.887-14.524,2.161-23.417S1738.571,1785.207,1759.929,1780.636Z" transform="translate(-756.064 -1103.945)" fill="#d19364"/>
    <path id="Path_510" data-name="Path 510" d="M1696.253,1823.811c-14.323,2.631-21.136-8.215-23.853-19.77-1.986-8.428-1.785-17.232-.726-21.448,2.5-10,8.83-10.252,9.727-13.007.79-2.439-.923-1.281-1.333-1,4.058-3.255,13.093-1.636,13.093-1.636-10.449,3.691-13.956,11.6-13.81,19.018.137,7.262,3.78,14.1,7.813,15.976,8.142,3.811,9.086-3.768,9.086-3.768S1721.025,1819.257,1696.253,1823.811Z" transform="translate(-728.156 -1095.94)" fill="#d19364"/>
    <path id="Path_511" data-name="Path 511" d="M1785.335,1860.307c14.874-11.534,43.144-5.271,59.654-13.537-10.184,5.95-20.38,9.825-25.412,10.923-9.488,2.033-23.144,10.436-36.844,14.186C1778.821,1871.217,1774.331,1868.833,1785.335,1860.307Z" transform="translate(-789.753 -1141.894)" fill="#ffd8ba"/>
    <path id="Path_512" data-name="Path 512" d="M1960.725,1681.981a5.751,5.751,0,0,0-3.541-5.2c.09.171,4.122,8.022-2.29,28.975-3.14,10.252-13.072,19.248-23.725,26.057,15.6-11.657,25.63-28.851,18-41.248-3.72-6.053-17.621.726-17.621.726s-.53-9.568,1.786-15.31-11-3.289-11-3.289c6.954-8.065,27.4,2.341,30.611-2.247s-1.047-18.825,5.289-17.514c6.151,1.281,14.716-2.644,15.22-2.879-5.818,3.123-11.563,5.681-12.516,6.771-1.982,2.277-6.6,14.195-2.593,18.526S1960.725,1681.981,1960.725,1681.981Z" transform="translate(-872.195 -1029.207)" fill="#ffd8ba"/>
    <path id="Path_513" data-name="Path 513" d="M1937.719,1747.914c-1.448,4.207-1.435,19.65-3.845,25.733s-8.424,16.967-8.411,22.982-3.366,20.218.957,20.581,11.453-1.811,9.338,5.241-9.735,6.164-12.294,6.01-8.185-2.247-9.043-12.08-7.219-33.768-6.493-39.983-3.648-8.014-3.648-8.014,2.593-2.563,4.737,1.128,7.915-11.388,5.647-18.953S1942.482,1734.116,1937.719,1747.914Z" transform="translate(-861.85 -1081.129)" fill="#d19364"/>
    <path id="Path_514" data-name="Path 514" d="M1679.35,1785.958s-4.835.4-3.985,6.224-3.49,9.825-2.964,11.85c-1.986-8.428-1.785-17.232-.726-21.448,2.5-10,8.83-10.252,9.727-13.007.79-2.439-.923-1.281-1.333-1,4.058-3.255,13.093-1.636,13.093-1.636C1682.712,1770.635,1679.2,1778.546,1679.35,1785.958Z" transform="translate(-728.156 -1095.935)" fill="#debca2"/>
  </g>
</svg>
