<svg xmlns="http://www.w3.org/2000/svg" width="422.978" height="304.374" viewBox="0 0 422.978 304.374">
  <g id="Group_3" data-name="Group 3" transform="translate(-315 -444)">
    <g id="page3" transform="translate(315 444)">
      <path id="Path_81" data-name="Path 81" d="M554.333,337.445H498.617V325.4a2.882,2.882,0,0,0-2.882-2.882H479.373V309.685a1.815,1.815,0,0,0-1.815-1.815H456.483a1.815,1.815,0,0,0-1.815,1.815v12.836H435.433a2.882,2.882,0,0,0-2.882,2.882v12.042H379.422a.586.586,0,0,0-.582.586V498.014a.586.586,0,0,0,.582.586h35.31a.586.586,0,0,0,.586-.586V476.491a.59.59,0,0,1,.586-.586h14.916a.59.59,0,0,1,.586.586v21.523a.586.586,0,0,0,.582.586h69.773a.59.59,0,0,0,.586-.586V476.491a.586.586,0,0,1,.582-.586h14.916a.586.586,0,0,1,.586.586v21.523a.59.59,0,0,0,.586.586h35.31a.59.59,0,0,0,.586-.586V338.04a.591.591,0,0,0-.577-.595ZM409,468.43a.582.582,0,0,1-.582.582H386.606a.582.582,0,0,1-.586-.582v-7.449a.586.586,0,0,1,.586-.586h21.822a.586.586,0,0,1,.582.586Zm0-19.248a.582.582,0,0,1-.582.586H386.606a.582.582,0,0,1-.586-.586v-7.445a.582.582,0,0,1,.586-.586h21.822a.582.582,0,0,1,.582.586Zm0-19.244a.586.586,0,0,1-.582.586H386.606a.586.586,0,0,1-.586-.586v-7.449a.586.586,0,0,1,.586-.586h21.822a.586.586,0,0,1,.582.586Zm0-19.248a.582.582,0,0,1-.582.586H386.606a.582.582,0,0,1-.586-.586v-7.445a.582.582,0,0,1,.586-.586h21.822a.582.582,0,0,1,.582.586Zm0-19.244a.586.586,0,0,1-.582.586H386.606a.586.586,0,0,1-.586-.586V384a.582.582,0,0,1,.586-.582h21.822a.582.582,0,0,1,.582.582Zm0-19.244a.582.582,0,0,1-.582.582H386.606a.582.582,0,0,1-.586-.582v-7.449a.586.586,0,0,1,.586-.586h21.822a.586.586,0,0,1,.582.586Zm0-19.248a.582.582,0,0,1-.582.586H386.606a.582.582,0,0,1-.586-.586v-7.445a.582.582,0,0,1,.586-.586h21.822a.582.582,0,0,1,.582.586ZM460.7,468.426a.582.582,0,0,1-.586.582H438.307a.586.586,0,0,1-.586-.582v-7.445a.59.59,0,0,1,.586-.586h21.809a.586.586,0,0,1,.586.586Zm0-19.248a.582.582,0,0,1-.586.586H438.307a.586.586,0,0,1-.586-.586v-7.44a.586.586,0,0,1,.586-.586h21.809a.582.582,0,0,1,.586.586Zm0-19.244a.586.586,0,0,1-.586.586H438.307a.59.59,0,0,1-.586-.586v-7.445a.59.59,0,0,1,.586-.586h21.809a.586.586,0,0,1,.586.586Zm0-19.248a.582.582,0,0,1-.586.586H438.307a.586.586,0,0,1-.586-.586v-7.44a.586.586,0,0,1,.586-.586h21.809a.582.582,0,0,1,.586.586Zm0-19.244a.586.586,0,0,1-.586.586H438.307a.59.59,0,0,1-.586-.586V384a.586.586,0,0,1,.586-.582h21.809a.582.582,0,0,1,.586.582Zm0-19.244a.582.582,0,0,1-.586.582H438.307a.586.586,0,0,1-.586-.582v-7.445a.59.59,0,0,1,.586-.586h21.809a.586.586,0,0,1,.586.586Zm0-19.248a.582.582,0,0,1-.586.586H438.307a.586.586,0,0,1-.586-.586v-7.44a.586.586,0,0,1,.586-.586h21.809a.582.582,0,0,1,.586.586Zm35.331,115.47a.582.582,0,0,1-.586.582H473.638a.586.586,0,0,1-.586-.582v-7.44a.59.59,0,0,1,.586-.586h21.809a.586.586,0,0,1,.586.586Zm0-19.248a.582.582,0,0,1-.586.586H473.638a.586.586,0,0,1-.586-.586v-7.436a.586.586,0,0,1,.586-.586h21.809a.582.582,0,0,1,.586.586Zm0-19.244a.586.586,0,0,1-.586.586H473.638a.59.59,0,0,1-.586-.586v-7.44a.59.59,0,0,1,.586-.586h21.809a.586.586,0,0,1,.586.586Zm0-19.248a.582.582,0,0,1-.586.586H473.638a.586.586,0,0,1-.586-.586v-7.436a.586.586,0,0,1,.586-.586h21.809a.582.582,0,0,1,.586.586Zm0-19.244a.586.586,0,0,1-.586.586H473.638a.59.59,0,0,1-.586-.586V384a.586.586,0,0,1,.586-.582h21.809a.582.582,0,0,1,.586.582Zm0-19.244a.582.582,0,0,1-.586.582H473.638a.586.586,0,0,1-.586-.582v-7.44a.59.59,0,0,1,.586-.586h21.809a.586.586,0,0,1,.586.586Zm0-19.248a.582.582,0,0,1-.586.586H473.638a.586.586,0,0,1-.586-.586v-7.436a.586.586,0,0,1,.586-.586h21.809a.582.582,0,0,1,.586.586Zm51.706,115.47a.586.586,0,0,1-.586.582H525.344a.582.582,0,0,1-.586-.582v-7.436a.586.586,0,0,1,.586-.586h21.809a.59.59,0,0,1,.586.586Zm0-19.248a.586.586,0,0,1-.586.586H525.344a.582.582,0,0,1-.577-.573v-7.445a.582.582,0,0,1,.586-.586h21.809a.586.586,0,0,1,.586.586Zm0-19.244a.59.59,0,0,1-.586.586H525.344a.586.586,0,0,1-.586-.586v-7.436a.586.586,0,0,1,.586-.586h21.809a.59.59,0,0,1,.586.586Zm0-19.248a.586.586,0,0,1-.586.586H525.344a.582.582,0,0,1-.586-.586v-7.432a.582.582,0,0,1,.586-.586h21.809a.586.586,0,0,1,.586.586Zm0-19.244a.59.59,0,0,1-.586.586H525.344a.586.586,0,0,1-.577-.573V384a.582.582,0,0,1,.586-.582h21.809a.586.586,0,0,1,.586.582Zm0-19.244a.586.586,0,0,1-.586.582H525.344a.582.582,0,0,1-.586-.582v-7.436a.586.586,0,0,1,.586-.586h21.809a.59.59,0,0,1,.586.586Zm0-19.248a.586.586,0,0,1-.586.586H525.344a.582.582,0,0,1-.586-.586v-7.432a.582.582,0,0,1,.586-.586h21.809a.586.586,0,0,1,.586.586Z" transform="translate(-263.356 -217.386)" fill="#f2f2f2"/>
      <path id="Path_82" data-name="Path 82" d="M303.164,114.228l-6.737,4.272,4.089-7.44a6.663,6.663,0,0,0-4.072-1.454h-.109a7.853,7.853,0,0,1-1.4-.1l-2.283,1.463.977-1.78a8.1,8.1,0,0,1-3.994-3.039l-4.085,2.6,2.579-4.693a11.949,11.949,0,0,0-9.155-4.627c-4.25,0-8.035,2.526-10.479,6.464a7.814,7.814,0,0,1-6.946,3.733h-.226c-4.693,0-8.5,5.322-8.5,11.886s3.8,11.881,8.5,11.881a6.39,6.39,0,0,0,2.956-.742,12.246,12.246,0,0,1,10.284-.2,10.7,10.7,0,0,0,8.743,0,12.255,12.255,0,0,1,10.188.2,6.39,6.39,0,0,0,2.93.725c4.693,0,8.5-5.322,8.5-11.881A15.068,15.068,0,0,0,303.164,114.228Z" transform="translate(-192.047 -99.43)" fill="#f2f2f2"/>
      <path id="Path_83" data-name="Path 83" d="M290.489,151.743a12.541,12.541,0,0,0-7.28.79,10.718,10.718,0,0,1-8.738,0,12.262,12.262,0,0,0-10.284.2,6.389,6.389,0,0,1-2.961.738c-4.167,0-7.636-4.2-8.356-9.737a8.044,8.044,0,0,0,2.084-2.244c2.444-3.963,6.221-6.494,10.479-6.494s7.987,2.5,10.418,6.394a8.022,8.022,0,0,0,6.924,3.8h.109C286.217,145.2,289.091,147.862,290.489,151.743Z" transform="translate(-192.07 -119.559)" opacity="0.03"/>
      <path id="Path_84" data-name="Path 84" d="M866.062,295.493l-3.369,2.114,2.04-3.712a3.33,3.33,0,0,0-2.032-.725h-.052a3.735,3.735,0,0,1-.7-.052l-1.137.725.486-.89a4.081,4.081,0,0,1-1.993-1.511l-2.036,1.3,1.3-2.344a5.965,5.965,0,0,0-4.562-2.3,6.217,6.217,0,0,0-5.209,3.225,3.907,3.907,0,0,1-3.473,1.862h-.113c-2.34,0-4.237,2.652-4.237,5.925s1.9,5.925,4.237,5.925a3.178,3.178,0,0,0,1.476-.369,6.112,6.112,0,0,1,5.127-.1,5.352,5.352,0,0,0,4.363,0,6.125,6.125,0,0,1,5.083.1,3.165,3.165,0,0,0,1.458.36c2.34,0,4.237-2.652,4.237-5.925A7.557,7.557,0,0,0,866.062,295.493Z" transform="translate(-524.882 -206.199)" fill="#f2f2f2"/>
      <path id="Path_85" data-name="Path 85" d="M859.729,314.218a6.3,6.3,0,0,0-3.633.4,5.331,5.331,0,0,1-2.171.46,5.388,5.388,0,0,1-2.171-.469,6.121,6.121,0,0,0-5.131.1,3.164,3.164,0,0,1-1.476.369c-2.079,0-3.807-2.092-4.167-4.858a4.02,4.02,0,0,0,1.042-1.12,5.833,5.833,0,0,1,10.418-.035,4,4,0,0,0,3.473,1.9h.056C857.6,310.958,859.03,312.286,859.729,314.218Z" transform="translate(-524.882 -216.255)" opacity="0.03"/>
      <path id="Path_86" data-name="Path 86" d="M536,753.536v2.17a8.3,8.3,0,0,1-9.077,8.248c-17-1.615-33.912-4.619-50.963-4.1-31.437.959-63.135,13.817-93.566,5.873-8.582-2.24-17.069-6.134-25.9-5.3-7.922.751-14.972,5.231-22.647,7.332-23.341,6.407-47.1-9.785-71.305-9.133-15.949.434-31.22,8.2-47.152,7.336-9.233-.495-18.028-3.872-27.036-5.952-22.426-5.183-45.52-2.283-68.627-.486a6.077,6.077,0,0,1-6.542-6.043v-1.841a6.077,6.077,0,0,1,6.077-6.077l408.452-.33A8.3,8.3,0,0,1,536,753.536Z" transform="translate(-113.025 -464.895)" fill="#3f3d56"/>
      <path id="Path_87" data-name="Path 87" d="M536,753.536v2.17a8.3,8.3,0,0,1-9.077,8.248c-17-1.615-33.912-4.619-50.963-4.1-31.437.959-63.135,13.817-93.566,5.873-8.582-2.24-17.069-6.134-25.9-5.3-7.922.751-14.972,5.231-22.647,7.332-23.341,6.407-47.1-9.785-71.305-9.133-15.949.434-31.22,8.2-47.152,7.336-9.233-.495-18.028-3.872-27.036-5.952-22.426-5.183-45.52-2.283-68.627-.486a6.077,6.077,0,0,1-6.542-6.043v-1.841a6.077,6.077,0,0,1,6.077-6.077l408.452-.33A8.3,8.3,0,0,1,536,753.536Z" transform="translate(-113.025 -464.895)" opacity="0.1"/>
      <path id="Path_88" data-name="Path 88" d="M536,744.386v2.17a8.869,8.869,0,0,1-.048.9,8.3,8.3,0,0,1-9.029,7.38c-16.995-1.619-33.912-4.623-50.963-4.1-31.437.964-63.135,13.822-93.566,5.873-8.582-2.24-17.069-6.134-25.9-5.3-7.922.751-14.972,5.209-22.647,7.336-23.341,6.373-47.1-9.819-71.305-9.146-15.949.434-31.22,8.2-47.152,7.341-9.233-.5-18.028-3.872-27.036-5.956-22.421-5.179-45.52-2.283-68.627-.486a6.077,6.077,0,0,1-6.451-4.992,5.947,5.947,0,0,1-.091-1.051v-1.858a6.077,6.077,0,0,1,6.077-6.077l102.365-.087,209.153-.174,96.926-.078a8.3,8.3,0,0,1,8.291,8.3Z" transform="translate(-113.025 -459.717)" fill="#3f3d56"/>
      <path id="Path_89" data-name="Path 89" d="M994.546,672.1c1.3-2.392-.178-5.322-1.862-7.458s-3.738-4.341-3.694-7.071c.065-3.907,4.211-6.212,7.523-8.283a36.845,36.845,0,0,0,6.755-5.431,9.986,9.986,0,0,0,2.075-2.778,11.275,11.275,0,0,0,.621-4.94q-.213-8.361-.825-16.708" transform="translate(-608.64 -393.699)" fill="none" stroke="#3f3d56" stroke-miterlimit="10" stroke-width="4"/>
      <path id="Path_90" data-name="Path 90" d="M1024.868,611.16a6.077,6.077,0,0,0-3.039-4.992l-1.363,2.7.039-3.269a6.015,6.015,0,0,0-2.005-.239,6.077,6.077,0,1,0,6.373,5.8Z" transform="translate(-622.072 -385.732)" fill="#57b894"/>
      <path id="Path_91" data-name="Path 91" d="M1000.707,702.164a6.077,6.077,0,1,1,.3-4.905l-3.807,3.1,4.189-.972a6.078,6.078,0,0,1-.677,2.778Z" transform="translate(-608.776 -435.502)" fill="#57b894"/>
      <path id="Path_92" data-name="Path 92" d="M1000.227,670.6a6.077,6.077,0,0,1-1.932-11.955l-.035,2.509,1.38-2.73h0a6.1,6.1,0,0,1,.586,12.176Z" transform="translate(-611.304 -415.759)" fill="#57b894"/>
      <path id="Path_93" data-name="Path 93" d="M1034.505,647.945a6.084,6.084,0,1,1,2.691-11.382l-1.077,2.948,2.218-2.123a6.077,6.077,0,0,1,1.967,4.2,5.973,5.973,0,0,1-.152,1.68A6.077,6.077,0,0,1,1034.505,647.945Z" transform="translate(-630.793 -402.953)" fill="#57b894"/>
      <path id="Path_94" data-name="Path 94" d="M1024.082,617.134c-1.406.156-2.774.595-4.185.682a4.554,4.554,0,0,1-3.855-1.35,18.866,18.866,0,0,1-1.124-1.984,4.34,4.34,0,0,0-1.537-1.441,6.077,6.077,0,1,0,11.391,4.041C1024.542,617.094,1024.312,617.107,1024.082,617.134Z" transform="translate(-622.106 -390.082)" opacity="0.1"/>
      <path id="Path_95" data-name="Path 95" d="M1034.486,652.482a6.077,6.077,0,0,1-5.8-8.682,4.458,4.458,0,0,1,1.224,1.229,19.842,19.842,0,0,0,1.207,2.01,4.962,4.962,0,0,0,4.042,1.415c1.472-.069,2.891-.482,4.341-.616.2-.022.408-.035.616-.039A6.077,6.077,0,0,1,1034.486,652.482Z" transform="translate(-630.773 -407.49)" opacity="0.1"/>
      <path id="Path_96" data-name="Path 96" d="M1000.411,675.3a6.077,6.077,0,0,1-5.847-8.578,4.775,4.775,0,0,1,1.3,1.237c.473.668.768,1.437,1.3,2.053a5.639,5.639,0,0,0,4.311,1.511c1.554-.035,2.965-.4,4.463-.517A6.1,6.1,0,0,1,1000.411,675.3Z" transform="translate(-611.488 -420.46)" opacity="0.1"/>
      <path id="Path_97" data-name="Path 97" d="M1000.495,707.24a17.271,17.271,0,1,0-9.772-3.777,25.76,25.76,0,0,0,1.632,2.17,7.585,7.585,0,0,0,5.049,1.771,26.043,26.043,0,0,0,3.091-.165Z" transform="translate(-608.564 -440.578)" opacity="0.1"/>
      <path id="Path_98" data-name="Path 98" d="M980.62,731.031s4.81-.152,6.26-1.181,7.38-2.266,7.753-.612,7.228,8.248,1.8,8.278-12.589-.868-14.06-1.736S980.62,731.031,980.62,731.031Z" transform="translate(-603.904 -455.382)" fill="#656380"/>
      <path id="Path_99" data-name="Path 99" d="M996.53,740.275c-5.431.043-12.615-.846-14.06-1.736-1.1-.669-1.541-3.078-1.689-4.189h-.161s.3,3.876,1.736,4.775,8.634,1.771,14.06,1.736c1.567,0,2.11-.573,2.079-1.4C998.292,739.967,997.715,740.275,996.53,740.275Z" transform="translate(-603.904 -458.732)" opacity="0.2"/>
      <path id="Path_100" data-name="Path 100" d="M723.79,602.237c0,7.249,3.716,7.675,9.91,13.123s9.906-5.873,9.906-13.123S739.17,589.11,733.7,589.11,723.79,594.988,723.79,602.237Z" transform="translate(-458.564 -376.54)" fill="#915766"/>
      <path id="Path_101" data-name="Path 101" d="M577.866,469.31a3.64,3.64,0,0,0,1.437,4.033,13.768,13.768,0,0,0,4.2,1.828,27.433,27.433,0,0,1,15.558,12.771,22.127,22.127,0,0,1,.6,19.847c-1.628,3.286-4.15,6.077-5.643,9.416-3,6.642-1.48,14.79,2.835,20.667s12.767,7.011,19.821,8.834c0,0,18.232,14.325,24.744,10.418" transform="translate(-375.875 -308.746)" fill="none" stroke="#3f3d56" stroke-miterlimit="10" stroke-width="1"/>
      <path id="Path_102" data-name="Path 102" d="M614.363,722.322s-.868,7.38,3.039,7.814a50.283,50.283,0,0,0,5.73.187,6.255,6.255,0,0,0,5.24-9.55l-.117-.182C624.347,714.508,614.363,722.322,614.363,722.322Z" transform="translate(-396.592 -449.634)" fill="#915766"/>
      <path id="Path_103" data-name="Path 103" d="M608.718,693.793s9.55,12.589,23.875,1.3-3.039-16.5-3.039-16.5H611.322l-10.852,4.775Z" transform="translate(-388.777 -427.183)" fill="#b56d7e"/>
      <path id="Path_104" data-name="Path 104" d="M699.271,689.6s4.341,5.209,8.248,4.775c3.134-.347,9.342,2.657,8.313,8.118a6.173,6.173,0,0,1-7.215,4.983,4.944,4.944,0,0,1-3.7-3.117s-13.891.868-13.457-3.039S699.271,689.6,699.271,689.6Z" transform="translate(-440.261 -433.408)" fill="#915766"/>
      <path id="Path_105" data-name="Path 105" d="M591.781,630.5s5.643,8.682,0,14.325a22.888,22.888,0,0,1-11.721,6.511s2.171,3.907-6.077,3.473-10.852-3.039-8.248-6.946,9.116-8.248,7.814-11.287-3.039-9.55-.434-13.457a14.358,14.358,0,0,1-2.735-3.013c-2.305-3.508,2.309-7.458,5.5-4.727l2.444,2.1s7.38-6.077,23.441-3.039c0,0,6.511-.434,7.814-5.209,0,0-6.946-15.193,11.286-26.48a21.827,21.827,0,0,1,10.418-1.736c6.077.434,12.589.868,16.93,10.418,0,0,3.547,6.511,7.714,9.021a9.181,9.181,0,0,1,4.224,6.4c1.255,7.48-.334,19.374-25.829,13.231,0,0-1.953,15.845-14.108,22.356,0,0-.868,4.341,0,5.643s5.209,7.38-1.736,6.946c-3.473-.213-6.151-.217-8-.161a4.341,4.341,0,0,1-3.8-6.668c.022-.039.048-.078.074-.117a13.077,13.077,0,0,0-3.039-10.852l-.868-5.209Z" transform="translate(-368.572 -371.918)" fill="#9c5e6d"/>
      <ellipse id="Ellipse_3" data-name="Ellipse 3" cx="5.643" cy="2.17" rx="5.643" ry="2.17" transform="translate(278.761 231.236)" fill="#915766"/>
      <path id="Path_106" data-name="Path 106" d="M407.169,650.661a21.269,21.269,0,0,1-4.041,1.736c-2.509.686-5.209.434-7.731,1.02a3.191,3.191,0,0,0-2.5,1.736,3.545,3.545,0,0,0,.273,2.288c2.8,8.213,4.489,16.93,8.96,24.383a36.869,36.869,0,0,0,6.92,8.4,6.608,6.608,0,0,0,3.525,1.958,3.586,3.586,0,0,0,3.646-5.036c-.4-.868-1.146-1.58-1.628-2.431a9.213,9.213,0,0,1-.9-3.473c-.434-3.512-.868-7.184.352-10.514.816-2.231,2.314-4.133,3.56-6.151s2.288-4.341,2.01-6.7a11.663,11.663,0,0,0-1.806-4.476c-.829-1.393-2.474-5.148-4.146-5.613S408.684,649.884,407.169,650.661Z" transform="translate(-271.256 -409.714)" fill="#fff"/>
      <path id="Path_107" data-name="Path 107" d="M526.8,707.124a7.008,7.008,0,0,1-.326,2.348c-.525,1.38-1.823,2.327-2.492,3.642-.933,1.828-.508,4.042.109,6a6.15,6.15,0,0,0,1.932,3.264,6.417,6.417,0,0,0,2.943.942c8.921,1.233,17.976.525,26.975.786a9.192,9.192,0,0,0,4.81-.7c1.433-.8,2.318-2.817,1.341-4.137-.868-1.185-2.6-1.172-4.072-1.246a16.743,16.743,0,0,1-10.34-4.259,7.378,7.378,0,0,1-1.45-1.667,10.02,10.02,0,0,1-.76-1.736,77.8,77.8,0,0,0-4.493-9.945,5.239,5.239,0,0,0-1.932-2.314,5.121,5.121,0,0,0-2.092-.456c-2.244-.148-8.052-.912-9.785.833C525.566,700.087,526.834,705.079,526.8,707.124Z" transform="translate(-345.184 -437.796)" fill="#fff"/>
      <circle id="Ellipse_4" data-name="Ellipse 4" cx="14.325" cy="14.325" r="14.325" transform="translate(181.089 41.535)" fill="#fbbebe"/>
      <path id="Path_108" data-name="Path 108" d="M527.437,246.692a10.8,10.8,0,0,1-4.4,5.643l19.812,4.041a20.91,20.91,0,0,1-.278-8.834,5.157,5.157,0,0,0,.117-2.171c-.373-1.437-1.993-2.131-3.438-2.461-3.616-.825-6.815-1.268-10.175-2.861C528.054,241.808,528.2,244.664,527.437,246.692Z" transform="translate(-344.959 -179.007)" fill="#fbbebe"/>
      <path id="Path_109" data-name="Path 109" d="M499.257,254.207a15.506,15.506,0,0,1,13.5.356,30.57,30.57,0,0,1,6.711,5.352c1.906,1.836,3.937,3.942,4.072,6.585a18.337,18.337,0,0,1-.538,3.8,12.741,12.741,0,0,0,6.815,13.084c1.571,2.6,1.9,5.8,1.923,8.86.091,11.586-3.564,23.315-.955,34.606.612,2.648,1.563,5.209,2.092,7.883.686,3.473.651,7.011,1.011,10.518a47.061,47.061,0,0,0,2.526,11.122,4.619,4.619,0,0,1-4.272,1.784,12.109,12.109,0,0,1-4.571-1.55c-6.98-3.573-13.379-8.283-20.611-11.321-4.775-2.01-9.88-3.26-14.521-5.582s-8.96-6-10.379-10.991a25.913,25.913,0,0,1-.686-6.676c-.139-9.45-.269-19,1.788-28.216,1.81-8.135,5.309-15.914,6.077-24.214.247-2.7.252-5.6,1.762-7.849C493.136,258.548,497.742,257.736,499.257,254.207Z" transform="translate(-321.345 -186.24)" fill="#3f3d56"/>
      <path id="Path_110" data-name="Path 110" d="M523.928,200.105a3.705,3.705,0,0,1,3.824-.925c1.35.326,2.6,1.02,3.95,1.3a2.327,2.327,0,0,0,1.854-.26,2.7,2.7,0,0,0,.8-1.767,33.7,33.7,0,0,0,.33-8.591,2.566,2.566,0,0,1,.078-1.207c.339-.812,1.367-1.007,2.205-1.268a6.581,6.581,0,0,0,4.458-6.737,2.661,2.661,0,0,0-.82-1.849,3.39,3.39,0,0,0-2.144-.512q-5.773-.043-11.551,0a8.255,8.255,0,0,0-4.159.76,20.143,20.143,0,0,0-2.414,2.032c-2.136,1.736-5.031,2.075-7.631,2.961a7.571,7.571,0,0,0-3.347,2,3.521,3.521,0,0,0-.738,3.655,13.319,13.319,0,0,0,.933,1.437c1.537,2.453.512,5.643.742,8.521.286,3.6,5.617,9.45,9.233,10.3C525.369,211.318,522,202.462,523.928,200.105Z" transform="translate(-336.662 -144.046)" fill="#3f3d56"/>
      <path id="Path_111" data-name="Path 111" d="M521.968,559.784a42.764,42.764,0,0,1,.716,7.927c-.178,3.7-1.511,7.276-1.758,10.974-.187,2.765.243,5.561-.143,8.3-.247,1.736-.816,3.447-1.172,5.209a21.453,21.453,0,0,0,3.447,16.418,2.678,2.678,0,0,0,1,.972,2.857,2.857,0,0,0,1.242.165,89.235,89.235,0,0,0,12.446-1.137.868.868,0,0,0,.972-.825c.764-3.907-.977-7.857-1.42-11.829-.473-4.241.543-8.491,1.554-12.641a55.743,55.743,0,0,1,1.715-6.043c.486-1.337,1.077-2.631,1.5-3.989a30.387,30.387,0,0,0,1.09-6.511q.434-5.209.465-10.484a45.2,45.2,0,0,0-.82-9.893,52.38,52.38,0,0,0-4.719-11.721,7.6,7.6,0,0,0-2.774,1.3,62.416,62.416,0,0,1-7.592,4.193c-1.762.816-5.209,1.4-6.32,3.108s-.391,5.114-.308,6.972C521.235,553.446,521.53,556.628,521.968,559.784Z" transform="translate(-342.789 -345.738)" fill="#3f3d56"/>
      <path id="Path_112" data-name="Path 112" d="M521.968,559.784a42.764,42.764,0,0,1,.716,7.927c-.178,3.7-1.511,7.276-1.758,10.974-.187,2.765.243,5.561-.143,8.3-.247,1.736-.816,3.447-1.172,5.209a21.453,21.453,0,0,0,3.447,16.418,2.678,2.678,0,0,0,1,.972,2.857,2.857,0,0,0,1.242.165,89.235,89.235,0,0,0,12.446-1.137.868.868,0,0,0,.972-.825c.764-3.907-.977-7.857-1.42-11.829-.473-4.241.543-8.491,1.554-12.641a55.743,55.743,0,0,1,1.715-6.043c.486-1.337,1.077-2.631,1.5-3.989a30.387,30.387,0,0,0,1.09-6.511q.434-5.209.465-10.484a45.2,45.2,0,0,0-.82-9.893,52.38,52.38,0,0,0-4.719-11.721,7.6,7.6,0,0,0-2.774,1.3,62.416,62.416,0,0,1-7.592,4.193c-1.762.816-5.209,1.4-6.32,3.108s-.391,5.114-.308,6.972C521.235,553.446,521.53,556.628,521.968,559.784Z" transform="translate(-342.789 -345.738)" opacity="0.1"/>
      <path id="Path_113" data-name="Path 113" d="M456.449,463.06c-1.9,5.122.894,10.657,3.325,15.549,5.965,12.055,10.132,24.922,14.256,37.732a4.617,4.617,0,0,1,.273,2.952,3.837,3.837,0,0,1-1.393,1.654c-2.852,2.17-6.481,2.939-9.876,4.072a44.734,44.734,0,0,0-9.368,4.389c-2.457,1.524-4.775,3.286-7.063,5.044l-7.323,5.591a4.819,4.819,0,0,0-1.224,1.185c-.708,1.107-.434,2.552-.065,3.82a64.687,64.687,0,0,0,3.586,9.785,3.413,3.413,0,0,0,1.3,1.706c1.146.612,2.544-.2,3.416-1.163s1.628-2.171,2.856-2.566,2.583.087,3.863-.091c2.079-.3,3.473-2.205,4.953-3.672,6.112-6,16.318-5.565,23.046-10.852a30.917,30.917,0,0,1,3.078-2.409c1.12-.673,2.427-1.037,3.607-1.632,3.586-1.806,5.843-5.543,7.05-9.372s1.554-7.875,2.422-11.8a55.02,55.02,0,0,0,1.237-6.077,32.852,32.852,0,0,0-.122-5.769l-2.427-30.018c-.2-2.444-.4-4.888-.781-7.31-7.206.256-14.408.547-21.618.634C467.736,464.471,461.875,464.875,456.449,463.06Z" transform="translate(-296.618 -305.209)" fill="#3f3d56"/>
      <path id="Path_114" data-name="Path 114" d="M473.951,463.873c.977,1.576,3.356,1.541,4.992.682s2.913-2.314,4.554-3.165c2.21-1.15,4.819-1.107,7.306-1.038a48.032,48.032,0,0,1,11.721,1.3c3.907,1.116,7.731,3.264,11.786,2.835a2.433,2.433,0,0,0,1.858-.868,2.8,2.8,0,0,0,.308-1.4l.13-3.542a3.2,3.2,0,0,0-.282-1.789,2.991,2.991,0,0,0-1.341-1.029c-5.769-2.791-12.341-3.312-18.744-3.534q-4.884-.161-9.772-.135c-2.761,0-6.077-.382-8.769.356C474.082,453.541,472.119,460.934,473.951,463.873Z" transform="translate(-316.785 -299.002)" fill="#3f3d56"/>
      <path id="Path_115" data-name="Path 115" d="M509.11,258.928c-7.558-.065-14.4-5.053-21.957-5.174a5.756,5.756,0,0,0-2.67.46,10.038,10.038,0,0,0-2.544,2.422c-2.231,2.418-5.47,3.712-7.762,6.077a8.952,8.952,0,0,0-2.5,8.478c.851,2.969,4.054,5.244,7.058,4.532a18.189,18.189,0,0,1,7.089-9.628,35.594,35.594,0,0,1,5.539-2.908c3.4-1.541,7.193-3.108,10.74-1.953a15.112,15.112,0,0,1,3.664,2l5.908,3.968A41.062,41.062,0,0,0,509.11,258.928Z" transform="translate(-315.736 -186.754)" fill="#ff4123"/>
      <path id="Path_116" data-name="Path 116" d="M472.572,281.108c-1,1.25.434,3.065.221,4.654-.148,1.055-1.016,1.862-1.38,2.865a15.738,15.738,0,0,0-.317,3.282,14.222,14.222,0,0,1-.629,2.34,42.043,42.043,0,0,0-1.328,6.946l-1.324,9.88a37.039,37.039,0,0,0-.434,4.484,12.744,12.744,0,0,1-.226,3.356,23.079,23.079,0,0,1-1.376,3.039,3.566,3.566,0,0,0-.048,3.225,5.633,5.633,0,0,0-1.181,7.037,3.855,3.855,0,0,1,.608,1.12,2.856,2.856,0,0,1-.269,1.65l-1.337,3.564c-.343.912-.434,2.3.5,2.509a8.374,8.374,0,0,0-1.806,2.852,3.386,3.386,0,0,0,.482,3.217,4.231,4.231,0,0,1,.838,1.016,2.68,2.68,0,0,1-.1,1.6,5.882,5.882,0,0,0,.729,4.614,4.133,4.133,0,0,0,4.163,1.784c2.674-.6,5.079-1.554,7.775-1.059a138.348,138.348,0,0,1,17.26,3.933c6.416,2.049,12.632,5.053,19.343,5.682a1.858,1.858,0,0,0,1.3-.2,1.949,1.949,0,0,0,.6-1.228l2.079-9.719a99.759,99.759,0,0,0,1.906-10.892c.239-2.362.3-4.74.373-7.115l.534-18.9a18.823,18.823,0,0,0-1.077-8.217l-3.073-9.811c-1.736-5.6-5.778-10.566-7.21-16.257-.907-3.6-1.576-7.466-4.011-10.275-3.473-4-9.463-4.623-14.712-3.937a17.863,17.863,0,0,0-6.815,2.079c-2.375,1.419-4.12,3.659-5.813,5.852C475.415,277.878,474,279.328,472.572,281.108Z" transform="translate(-310.44 -194.77)" fill="#ff4123"/>
      <path id="Path_117" data-name="Path 117" d="M513.9,410.406c.434,1.867,1.341,3.586,1.9,5.418.929,3.069.868,6.377,1.78,9.446.391,1.3.959,2.526,1.237,3.842.656,3.073-.3,6.247-1.485,9.155s-2.626,5.773-3.013,8.89c-.269,2.192.122,4.671,1.81,6.077,1.758,1.48,4.306,1.38,6.594,1.181a7.007,7.007,0,0,0,2.4-.495c1.736-.829,2.483-2.9,2.9-4.775,1.367-6.338.977-12.906.577-19.378l-1.033-16.926a40.5,40.5,0,0,0-1.42-9.711c-.365-1.137-1-3.438-2.04-4.167s-3.968-.751-5.244-.812C512.864,397.873,512.934,406.221,513.9,410.406Z" transform="translate(-339.511 -268.473)" fill="#fbbebe"/>
      <path id="Path_118" data-name="Path 118" d="M514.2,281.963a4.1,4.1,0,0,0-3.937.352,12.262,12.262,0,0,0-2.956,2.865c-2.639,3.221-5.431,6.92-5.04,11.065a27.887,27.887,0,0,0,1.146,4.536c1.767,6.611-.187,13.609.035,20.455a64.2,64.2,0,0,0,1.849,11.721c.174.786.434,1.7,1.215,1.966a2.6,2.6,0,0,0,1.736-.273,14.03,14.03,0,0,1,12.836,1.615c1.419-.755.868-3.143.569-4.719-.942-4.675.339-9.5,1.893-14.008s3.416-9.012,3.677-13.774c.291-5.4-1.5-10.666-3.264-15.775a6.645,6.645,0,0,0-1.7-3.039,6.772,6.772,0,0,0-2.57-1.172A32.506,32.506,0,0,1,514.2,281.963Z" transform="translate(-333.18 -202.523)" fill="#3f3d56"/>
      <path id="Path_119" data-name="Path 119" d="M667.47,647.6s13.023,14.325,24.744,10.418" transform="translate(-426.692 -409.64)" fill="none" stroke="#3f3d56" stroke-miterlimit="10" stroke-width="1"/>
      <path id="Path_120" data-name="Path 120" d="M677.962,602.237c0,7.249-3.712,7.675-9.906,13.123s-9.906-5.873-9.906-13.123,4.436-13.127,9.906-13.127S677.962,594.988,677.962,602.237Z" transform="translate(-421.418 -376.54)" fill="#915766"/>
      <path id="Path_121" data-name="Path 121" d="M184.109,616.107a10.718,10.718,0,0,0,1.42-5.444c0-4.918-3.039-8.9-6.807-8.9s-6.8,3.985-6.8,8.9a10.718,10.718,0,0,0,1.419,5.444,11.148,11.148,0,0,0,0,10.887,11.148,11.148,0,0,0,0,10.887,11.148,11.148,0,0,0,0,10.887,10.731,10.731,0,0,0-1.42,5.444c0,4.918,3.039,8.908,6.8,8.908s6.807-3.989,6.807-8.908a10.731,10.731,0,0,0-1.419-5.444,11.148,11.148,0,0,0,0-10.874,11.148,11.148,0,0,0,0-10.887,11.148,11.148,0,0,0,0-10.887Z" transform="translate(-146.259 -383.699)" fill="#3f3d56"/>
      <ellipse id="Ellipse_5" data-name="Ellipse 5" cx="6.802" cy="8.908" rx="6.802" ry="8.908" transform="translate(25.643 207.174)" fill="#3f3d56"/>
      <ellipse id="Ellipse_6" data-name="Ellipse 6" cx="6.802" cy="8.908" rx="6.802" ry="8.908" transform="translate(25.643 196.286)" fill="#3f3d56"/>
      <path id="Path_122" data-name="Path 122" d="M119.785,331.7a33.142,33.142,0,0,1-2.535-3.729l17.881-2.939-19.339.143a32.653,32.653,0,0,1-.621-25.816l25.937,13.457-23.919-17.594a32.592,32.592,0,1,1,53.828,36.464,32.274,32.274,0,0,1,3.716,5.943l-23.207,12.085,24.744-8.3a32.618,32.618,0,0,1-5.257,30.608,32.592,32.592,0,1,1-51.224,0,32.592,32.592,0,0,1,0-40.3Z" transform="translate(-112.809 -201.01)" fill="#57b894"/>
      <path id="Path_123" data-name="Path 123" d="M178.029,446.293a32.471,32.471,0,0,1-6.976,20.151,32.592,32.592,0,1,1-51.224,0C115.441,460.9,178.029,442.634,178.029,446.293Z" transform="translate(-112.831 -295.448)" opacity="0.1"/>
    </g>
  </g>
</svg>
