<svg xmlns="http://www.w3.org/2000/svg" xmlns:xlink="http://www.w3.org/1999/xlink" width="544.066" height="311.257" viewBox="0 0 544.066 311.257">
  <defs>
    <linearGradient id="linear-gradient" x1="-1.796" y1="1" x2="-1.796" gradientUnits="objectBoundingBox">
      <stop offset="0" stop-color="gray" stop-opacity="0.251"/>
      <stop offset="0.54" stop-color="gray" stop-opacity="0.122"/>
      <stop offset="1" stop-color="gray" stop-opacity="0.102"/>
    </linearGradient>
    <linearGradient id="linear-gradient-2" x1="0.735" y1="0.999" x2="0.735" y2="0" xlink:href="#linear-gradient"/>
    <linearGradient id="linear-gradient-3" x1="-3.809" y1="1" x2="-3.809" y2="0" xlink:href="#linear-gradient"/>
    <linearGradient id="linear-gradient-4" x1="-1.672" y1="1" x2="-1.672" y2="0" xlink:href="#linear-gradient"/>
    <linearGradient id="linear-gradient-5" x1="2.777" y1="1" x2="2.777" y2="0" xlink:href="#linear-gradient"/>
    <linearGradient id="linear-gradient-6" x1="5.099" y1="1" x2="5.099" y2="0" xlink:href="#linear-gradient"/>
    <linearGradient id="linear-gradient-7" x1="-3.571" y1="1" x2="-3.571" y2="0" xlink:href="#linear-gradient"/>
    <linearGradient id="linear-gradient-8" x1="0.481" y1="1" x2="0.481" y2="0" xlink:href="#linear-gradient"/>
    <linearGradient id="linear-gradient-9" x1="14.888" y1="1" x2="14.888" y2="0" xlink:href="#linear-gradient"/>
    <linearGradient id="linear-gradient-10" x1="26.652" y1="1" x2="26.652" y2="0" xlink:href="#linear-gradient"/>
    <linearGradient id="linear-gradient-11" x1="3.218" y1="1" x2="3.218" y2="0" xlink:href="#linear-gradient"/>
    <linearGradient id="linear-gradient-12" x1="3.274" y1="1" x2="3.274" y2="-0.001" xlink:href="#linear-gradient"/>
    <linearGradient id="linear-gradient-13" x1="4.097" y1="1" x2="4.097" y2="0" xlink:href="#linear-gradient"/>
    <linearGradient id="linear-gradient-15" x1="7.139" y1="1" x2="7.139" y2="0" xlink:href="#linear-gradient"/>
    <linearGradient id="linear-gradient-17" x1="89.77" y1="0.944" x2="89.77" y2="-0.056" xlink:href="#linear-gradient"/>
    <linearGradient id="linear-gradient-18" x1="-14.076" y1="1" x2="-14.076" y2="0.001" xlink:href="#linear-gradient"/>
    <linearGradient id="linear-gradient-19" x1="-13.78" y1="1.001" x2="-13.78" y2="0.001" xlink:href="#linear-gradient"/>
  </defs>
  <g id="Group_406" data-name="Group 406" transform="translate(-682.731 -228)">
    <g id="Group_17" data-name="Group 17" transform="translate(-3960.833 -1078.937)">
      <path id="Path_563" data-name="Path 563" d="M314.928,41.134c18.466-14.152,47.436-17.038,73.811-15.909,82.837,3.539,157.62,37.951,222.279,76.873,23.419,14.088,46.469,29.274,61.668,48.678,30.937,39.5,21.762,94.223-21.284,126.764-14.634,11.068-32.381,19.557-50.623,27.081-32.393,13.365-67.34,24.116-104.121,27.175-26.214,2.178-52.751.406-78.81-2.633-72.816-8.5-144.292-27.289-204.216-59.434-26.278-14.1-51.042-31.63-61.869-54.45s-3.808-51.678,23.022-65.206c11.1-5.584,24.362-8.108,37.351-10.474,19.116-3.465,38.542-6.93,55.8-14.008,17.833-7.316,38.922-21.473,35.4-37.674C299.54,70.542,296.52,55.271,314.928,41.134Z" transform="translate(4496.675 1285.431)" fill="#ff4123" opacity="0.1"/>
      <g id="undraw_modern_woman_9l0u" transform="translate(4678.046 1306.937)">
        <g id="Group_18" data-name="Group 18" transform="translate(0)">
          <path id="Path_97" data-name="Path 97" d="M195.7,714.407H670.813V652.39H207.554C195.97,671.426,193.958,694.093,195.7,714.407Z" transform="translate(-195.152 -421.382)" fill="#fff" opacity="0.1"/>
          <g id="Group_11" data-name="Group 11" transform="translate(172.093 96.98)" opacity="0.5">
            <path id="Path_98" data-name="Path 98" d="M638.907,372.385c2.1.947,4.261,2.031,5.619,3.891,2.282,3.106,1.709,7.542-.038,10.978s-4.488,6.259-6.59,9.468-3.579,7.257-2.367,10.922,4.592,5.922,7.617,8.223a70.635,70.635,0,0,1,10.832,10.23c2.722,3.172,5.274,7.575,3.39,11.3-1.539,3.049-5.274,4.071-8.413,5.43-5.865,2.542-10.827,7.423-12.744,13.511-1.95,6.2-.729,13.137-3.181,19.154a7.907,7.907,0,0,1-2.93,3.887,8.822,8.822,0,0,1-3.395,1.056c-3.034.45-6.154.431-9.132,1.079-6.249,1.349-11.528,5.449-16.243,9.767a133.374,133.374,0,0,0-12.967,13.667c-2.3-4.332-6.959-6.912-9.743-10.95-5.918-8.6-2.145-21.744-9.151-29.479-3.314-3.659-8.744-5.653-10.349-10.32a11.025,11.025,0,0,1,.312-7.1,18.852,18.852,0,0,1,7.935-9.9c2.585-1.581,5.648-2.609,7.527-4.99a11.861,11.861,0,0,0,2.088-7.343c.066-7.381-2.959-14.837-1.136-21.99a17.19,17.19,0,0,1,14.865-12.546,51.665,51.665,0,0,0,5.425-.336c2.964-.563,5.515-2.419,7.75-4.445,5.359-4.867,9.757-11.225,16.295-14.676C626.13,367.727,633.151,369.786,638.907,372.385Z" transform="translate(-558.667 -369.28)" fill="#ab1700"/>
            <path id="Path_99" data-name="Path 99" d="M665.9,376.34s-64.716,97.4-54.8,125.928" transform="translate(-585.733 -372.997)" fill="#ab1700" stroke="#535461" stroke-miterlimit="10" stroke-width="1" opacity="0.6"/>
            <path id="Path_100" data-name="Path 100" d="M713.827,495.719S695.7,482.554,663.92,483.657" transform="translate(-614.092 -429.475)" fill="#ab1700" stroke="#535461" stroke-miterlimit="10" stroke-width="1" opacity="0.6"/>
            <path id="Path_101" data-name="Path 101" d="M625.865,464.966A57.5,57.5,0,0,0,603.88,424.66" transform="translate(-582.476 -398.442)" fill="#ab1700" stroke="#535461" stroke-miterlimit="10" stroke-width="1" opacity="0.6"/>
            <path id="Path_102" data-name="Path 102" d="M670.706,573.13s-24.329-19.666-40.946-19.017" transform="translate(-596.104 -466.602)" fill="#ab1700" stroke="#535461" stroke-miterlimit="10" stroke-width="1" opacity="0.6"/>
            <path id="Path_103" data-name="Path 103" d="M588.1,557.99S577.612,543.7,558.86,540" transform="translate(-558.769 -459.179)" fill="#ab1700" stroke="#535461" stroke-miterlimit="10" stroke-width="1" opacity="0.6"/>
          </g>
          <g id="Group_12" data-name="Group 12" transform="translate(362.541 99.121)">
            <path id="Path_104" data-name="Path 104" d="M987.425,375c2.173-.772,4.479-1.477,6.746-1.084,3.787.663,6.457,4.261,7.575,7.949s1.094,7.622,1.813,11.409,2.443,7.712,5.842,9.53,7.414,1.1,11.187.663a70.635,70.635,0,0,1,14.9-.137c4.161.4,9.042,1.808,10.264,5.8,1,3.267-.985,6.59-2.31,9.738-2.476,5.885-2.675,12.848.161,18.572,2.883,5.823,8.569,9.989,10.964,16.025a7.932,7.932,0,0,1,.578,4.829,8.819,8.819,0,0,1-1.719,3.115c-1.894,2.424-4.128,4.559-5.842,7.1-3.574,5.3-4.545,11.911-4.961,18.293a133.41,133.41,0,0,0,.1,18.837c-4.658-1.534-9.809-.166-14.61-1.155-10.221-2.107-16.6-14.2-27.013-14.941-4.923-.346-10.221,1.969-14.614-.284a11.048,11.048,0,0,1-4.677-5.331,18.851,18.851,0,0,1-1.131-12.64c.772-2.93,2.273-5.795,1.979-8.81a11.885,11.885,0,0,0-3.574-6.741c-5.07-5.373-12.427-8.659-16.053-15.092a17.192,17.192,0,0,1,2.04-19.344,51.5,51.5,0,0,0,3.683-4c1.747-2.457,2.305-5.563,2.514-8.573.5-7.22-.729-14.856,1.6-21.867C974.993,380.5,981.46,377.12,987.425,375Z" transform="translate(-960.953 -373.803)" fill="#ff4123"/>
            <path id="Path_105" data-name="Path 105" d="M1017.12,376.78s20.721,115.091,47.635,128.816" transform="translate(-990.53 -375.37)" fill="none" stroke="#535461" stroke-miterlimit="10" stroke-width="1" opacity="0.6"/>
            <path id="Path_106" data-name="Path 106" d="M1089.558,444.07s-22.194,3.049-44.368,25.844" transform="translate(-1005.311 -410.805)" fill="none" stroke="#535461" stroke-miterlimit="10" stroke-width="1" opacity="0.6"/>
            <path id="Path_107" data-name="Path 107" d="M1004.758,511.1A57.477,57.477,0,0,0,961,497.237" transform="translate(-960.978 -438.63)" fill="none" stroke="#535461" stroke-miterlimit="10" stroke-width="1" opacity="0.6"/>
            <path id="Path_108" data-name="Path 108" d="M1112,542.22s-31.17,2.646-42.712,14.619" transform="translate(-1018.002 -462.489)" fill="none" stroke="#535461" stroke-miterlimit="10" stroke-width="1" opacity="0.6"/>
            <path id="Path_109" data-name="Path 109" d="M1041.855,596.168s-17.464-3.058-33.565,7.243" transform="translate(-985.88 -490.674)" fill="none" stroke="#535461" stroke-miterlimit="10" stroke-width="1" opacity="0.6"/>
          </g>
          <g id="Group_13" data-name="Group 13" transform="translate(249.972)" opacity="0.5">
            <path id="Path_110" data-name="Path 110" d="M730.032,437.143c4.436-2.627,6.775-11.4,7.475-14.491l5.288-68.337s3.972-22.615,19.055-54.835c.18-19.183.89-79.836,2.609-86.365l10.178-12.389a23.386,23.386,0,0,0-1.666-2.523h0l-2.6,7.362-9.407-1.051,5.075-9.7a16.948,16.948,0,0,1-3.186-22.965,4.171,4.171,0,0,1,.175-5.293,21.692,21.692,0,0,1,5.567-4.625A19.817,19.817,0,0,1,797.5,188.957a4.328,4.328,0,0,0,1.974,1.264,18.066,18.066,0,0,1,8.237,5.6,3.427,3.427,0,0,1-.72,5.165l-1.538.98a3.423,3.423,0,0,1-4.014-.246l-3.182-2.627a.253.253,0,0,0-.345.369,3.091,3.091,0,0,1-1.506,5.118h-.066l.066.033-.09.076A41.789,41.789,0,0,1,804.77,217.8c4.261,5.184,8.138,15.67,7.863,36.723q.474,5.752.63,12.309l4.9,20.229s37.793,69.7,28.414,78.885c0,0-5.681,1.008-13.634,3.115l22.624,29.986-.312.3,14.43,10.548s-2.656,6.741-4.5,7.764-2.452,5.312-2.452,5.312-6.95,14.1-12.058,13.284-1.42-6.538,0-12.669c1.112-4.767-3.091-12.01-5.013-14.993l-.5.473s-26.862-20.177-37.135-31.468a77.038,77.038,0,0,0-15.381,8.782s-7.721-18.8-14.965-49.94h0l-.062.095c-6.344,9.468-17.019,26.076-17.45,31.245-.611,7.357-3.063,34.124-6.741,41.277l-2.656,13.895h-.161l2.462,18.425s-6.708,2.746-8.716,2.126-5.534,1.894-5.534,1.894-14.988,4.734-17.933.473S724.6,440.348,730.032,437.143Z" transform="translate(-720.172 -156.427)" fill="url(#linear-gradient)"/>
          </g>
          <ellipse id="Ellipse_10" data-name="Ellipse 10" cx="18.965" cy="18.965" rx="18.965" ry="18.965" transform="translate(292.275 2.492)"/>
          <path id="Path_111" data-name="Path 111" d="M921.186,591.119,945.8,623.785l-9.97,9.582s-34.559-25.948-38.853-34.507a3.436,3.436,0,0,1-.44-1.468C896.554,590.925,921.186,591.119,921.186,591.119Z" transform="translate(-564.493 -389.117)" fill="#ff7e6a"/>
          <path id="Path_112" data-name="Path 112" d="M804.755,478.553s-20.537,29.309-21.114,36.363-2.93,32.665-6.453,39.492L774.646,567.7H761.94l5.085-65.691s4.5-25.612,22.288-60.8L811.8,453.519Z" transform="translate(-493.615 -310.177)" fill="#ff7e6a"/>
          <rect id="Rectangle_8" data-name="Rectangle 8" width="17.985" height="76.248" transform="translate(313.389 135.828) rotate(180)" fill="#fff"/>
          <path id="Path_113" data-name="Path 113" d="M814.754,342.983l-7.844,11.741s3.153-80.168,5.108-87.581L824.724,251.7l4.3,11.362-9.767,12.081s-6.06,17.99-5.084,35.582S814.754,342.983,814.754,342.983Z" transform="translate(-517.295 -210.384)" opacity="0.1"/>
          <path id="Path_114" data-name="Path 114" d="M621,240.6l-6.647,12.706,8.995.98,4.5-12.711Z" transform="translate(-323.542 -204.775)" fill="#ffc533"/>
          <ellipse id="Ellipse_11" data-name="Ellipse 11" cx="16.229" cy="16.229" rx="16.229" ry="16.229" transform="translate(289.634 10.407)" fill="#fda57d"/>
          <path id="Path_115" data-name="Path 115" d="M834.706,253.8a22.561,22.561,0,0,0-5.866-9.383l15.249-3.91,3.716,8.408Z" transform="translate(-528.843 -204.491)" fill="#fda57d"/>
          <path id="Path_116" data-name="Path 116" d="M840.4,254.993s26.393-1.955,28.154,65.3l4.692,19.353s36.169,66.666,27.174,75.467c0,0-34.02,6.06-51.6,19.552,0,0-13.488-32.845-21.114-83.283,0,0-4.1-54.916,3.911-73.512l-3.911-9.383Z" transform="translate(-527.69 -212.115)" fill="#db1e00"/>
          <path id="Path_117" data-name="Path 117" d="M814.167,342.983l-7.257,11.741s2.566-80.168,4.521-87.581L824.137,251.7l4.3,11.362-9.776,12.119s-6.06,17.99-5.084,35.582S814.167,342.983,814.167,342.983Z" transform="translate(-517.295 -210.384)" fill="#ab1700"/>
          <path id="Path_118" data-name="Path 118" d="M814.167,342.983l-7.257,11.741s2.566-80.168,4.521-87.581L824.137,251.7l4.3,11.362-9.776,12.119s-6.06,17.99-5.084,35.582S814.167,342.983,814.167,342.983Z" transform="translate(-519.189 -207.543)" fill="#ab1700" opacity="0.05"/>
          <ellipse id="Ellipse_12" data-name="Ellipse 12" cx="0.781" cy="0.781" rx="0.781" ry="0.781" transform="translate(301.365 77.078)" fill="#4d8af0"/>
          <ellipse id="Ellipse_13" data-name="Ellipse 13" cx="0.781" cy="0.781" rx="0.781" ry="0.781" transform="translate(301.365 106.401)" fill="#4d8af0"/>
          <path id="Path_119" data-name="Path 119" d="M987.31,658.44l15.249,11.154s-2.542,6.453-4.3,7.428-2.367,5.084-2.367,5.084-6.628,13.488-11.537,12.706-1.368-6.258,0-12.119-5.681-15.623-5.681-15.623Z" transform="translate(-607.742 -424.568)" fill="#707070"/>
          <path id="Path_120" data-name="Path 120" d="M755.914,705.821l2.5,18.719s-6.419,2.627-8.342,2.031-5.293,1.823-5.293,1.823-14.34,4.531-17.157.473,3.57-5.316,8.753-8.384,7.376-14.913,7.376-14.913Z" transform="translate(-475.181 -449.386)" fill="#707070"/>
          <path id="Path_121" data-name="Path 121" d="M662.735,267.434,642.4,285.026l-.582-.388,20.527-17.4Z" transform="translate(-338.008 -218.804)" opacity="0.1"/>
          <path id="Path_122" data-name="Path 122" d="M650.008,264.844,638.57,262.69l-9.97,13.293,5.766,3.484Z" transform="translate(-331.046 -216.408)" fill="#db1e00"/>
          <path id="Path_123" data-name="Path 123" d="M812.551,189.757l7.414,7.859v4.815a24.188,24.188,0,0,0,1.809,9.189l4.98,12.148a3.276,3.276,0,0,0,4.237,1.8l4.2-1.662a3.276,3.276,0,0,0,1.789-4.36l-1.179-2.722a.242.242,0,1,1,.421-.237l2.4,3.409a3.276,3.276,0,0,0,3.475,1.292l2.315-.578a2.959,2.959,0,0,0,1.42-4.9h0a.241.241,0,0,1,.331-.35l3.044,2.514a3.276,3.276,0,0,0,3.839.237l1.472-.947a3.276,3.276,0,0,0,.687-4.942,17.261,17.261,0,0,0-7.878-5.359c-3.574-1-4.853-7.31-5.288-12.527A17.876,17.876,0,0,0,830.551,179.1c-5.326-1.974-11.869-1.813-18.1,5.208a4.005,4.005,0,0,0,.1,5.449Z" transform="translate(-519.675 -171.581)" opacity="0.05"/>
          <path id="Path_124" data-name="Path 124" d="M812.6,188.584l7.414,7.859v4.815a24.183,24.183,0,0,0,1.808,9.173l4.981,12.15a3.276,3.276,0,0,0,4.237,1.8l4.2-1.662a3.276,3.276,0,0,0,1.789-4.36l-1.179-2.684a.242.242,0,0,1,.421-.237l2.4,3.409a3.276,3.276,0,0,0,3.475,1.292l2.315-.578a2.959,2.959,0,0,0,1.42-4.9h0a.241.241,0,0,1,.331-.35l3.044,2.514a3.276,3.276,0,0,0,3.839.237l1.472-.947a3.267,3.267,0,0,0,.71-4.914,17.3,17.3,0,0,0-7.9-5.383c-3.574-1.008-4.852-7.352-5.279-12.579a17.876,17.876,0,0,0-11.835-15.419c-5.245-1.827-11.618-1.52-17.7,5.316A4.024,4.024,0,0,0,812.6,188.584Z" transform="translate(-519.723 -170.981)" fill="#ffc533"/>
          <path id="Path_125" data-name="Path 125" d="M628.94,451.83l.062.985-3.972-.492.208-.492Z" transform="translate(-329.166 -316.006)" opacity="0.1"/>
          <path id="Path_126" data-name="Path 126" d="M827.008,453.4H825.54s4.076,37.717,8.048,38.408l.308-.473S827.4,460.634,827.008,453.4Z" transform="translate(-527.106 -316.596)" opacity="0.1"/>
          <path id="Path_127" data-name="Path 127" d="M812.5,180.6a20.886,20.886,0,0,1,5.321-4.426,18.96,18.96,0,0,1,27.662,25.863c-.705.838-17.464-4.838-17.464-4.838a51.446,51.446,0,0,1-15.429-11.2h0c-.057-.062-.114-.128-.166-.194A4,4,0,0,1,812.5,180.6Z" transform="translate(-519.71 -167.816)" opacity="0.05"/>
          <path id="Path_128" data-name="Path 128" d="M812.5,179.385a20.886,20.886,0,0,1,5.321-4.426,18.96,18.96,0,0,1,27.662,25.863c-.705.838-17.464-4.838-17.464-4.838a51.446,51.446,0,0,1-15.429-11.2h0c-.057-.062-.114-.128-.166-.194a4,4,0,0,1,.076-5.2Z" transform="translate(-519.71 -167.179)" fill="#707070"/>
          <g id="Group_16" data-name="Group 16" transform="translate(89.285 194.809)" opacity="0.5">
            <path id="Path_129" data-name="Path 129" d="M386.3,596.886a14.347,14.347,0,0,0,14.453,13.933h1.084a3.654,3.654,0,0,1,2.561,1.037,3.569,3.569,0,0,1,1.042,1.818,3.4,3.4,0,0,1,.109.862v13.729a13.762,13.762,0,0,0,2.178,7.447,19.68,19.68,0,0,1,3.238,10.6h0a6.627,6.627,0,0,0,6.741,6.628,6.762,6.762,0,0,0,6.49-6.831v-3.437l1.8.208v3.442a6.628,6.628,0,0,0,6.741,6.628,6.762,6.762,0,0,0,6.49-6.831v-1.737c1.8.753,12.029.753,14.87.024l.772-.062v1.993a6.628,6.628,0,0,0,6.741,6.628,6.762,6.762,0,0,0,6.49-6.831v-2.84l.6-.052v3.129a6.709,6.709,0,0,0,.2,1.643,6.628,6.628,0,0,0,6.538,4.975,6.732,6.732,0,0,0,6.429-5.908,7.823,7.823,0,0,0,.062-.947V631.72a22.019,22.019,0,0,0-4.687-13.625,4.081,4.081,0,0,1-.114-4.819c3.371-4.933,8.351-13.256,8.185-19.159a6.472,6.472,0,0,0-1.576-4.37l-.2-.208a7.385,7.385,0,0,0-12.65,5.908,19.579,19.579,0,0,1-.511,6.978,21.365,21.365,0,0,1-1.354,3.74,6.344,6.344,0,0,1-6.491,3.607,22.447,22.447,0,0,0-2.713-.161H432.016a7.817,7.817,0,0,1-7.4-5.3,7.577,7.577,0,0,1-.421-2.518V580.136a4.213,4.213,0,0,0-4.341-4.209,4.1,4.1,0,0,0-2.907,1.354,4.526,4.526,0,0,0-1.174,3.034,2.23,2.23,0,0,1-2.23,2.23H400.434a14.131,14.131,0,0,0-14.136,14.34Z" transform="translate(-385.091 -575.926)" fill="url(#linear-gradient-2)"/>
            <path id="Path_130" data-name="Path 130" d="M560.81,725.939a6.628,6.628,0,0,0,6.538,4.976,6.732,6.732,0,0,0,6.429-5.908C569.772,723.927,564.214,723.179,560.81,725.939Z" transform="translate(-476.987 -653.917)" fill="url(#linear-gradient-3)"/>
            <path id="Path_131" data-name="Path 131" d="M531.58,725.939a6.628,6.628,0,0,0,6.538,4.976,6.732,6.732,0,0,0,6.443-5.908C540.546,723.927,534.993,723.179,531.58,725.939Z" transform="translate(-461.595 -653.917)" fill="url(#linear-gradient-4)"/>
            <path id="Path_132" data-name="Path 132" d="M470.59,725.939a6.628,6.628,0,0,0,6.538,4.976,6.732,6.732,0,0,0,6.438-5.908C479.556,723.927,474,723.179,470.59,725.939Z" transform="translate(-429.479 -653.917)" fill="url(#linear-gradient-5)"/>
            <path id="Path_133" data-name="Path 133" d="M438.83,725.939a6.628,6.628,0,0,0,6.538,4.976,6.732,6.732,0,0,0,6.429-5.908C447.792,723.927,442.224,723.179,438.83,725.939Z" transform="translate(-412.754 -653.917)" fill="url(#linear-gradient-6)"/>
            <path id="Path_134" data-name="Path 134" d="M563.94,615.04a96.509,96.509,0,0,0,14.932-8.294,6.473,6.473,0,0,0-1.576-4.37l-.2-.208a7.381,7.381,0,0,0-12.654,5.894,19.575,19.575,0,0,1-.5,6.978Z" transform="translate(-478.636 -588.541)" fill="url(#linear-gradient-7)"/>
            <path id="Path_135" data-name="Path 135" d="M514.265,647.122s-12.872,16.2-33.925-.043" transform="translate(-434.613 -613.395)" fill="url(#linear-gradient-8)"/>
            <path id="Path_136" data-name="Path 136" d="M462.484,583.55s-7.821,10.226,0,22.861" transform="translate(-423.38 -579.941)" fill="url(#linear-gradient-9)"/>
            <path id="Path_137" data-name="Path 137" d="M427,657.25s6.888,8.559.085,15.358" transform="translate(-406.525 -618.75)" fill="url(#linear-gradient-10)"/>
            <g id="Group_14" data-name="Group 14" transform="translate(19.855 28.989)" opacity="0.1">
              <path id="Path_138" data-name="Path 138" d="M425.69,644.867c.511.473.336.947.473,1.647l22.4-5.861c-1.2-.947-2.694-2.026-3.186-3.494C442.676,639.243,437.379,642.732,425.69,644.867Z" transform="translate(-425.69 -637.16)" fill="url(#linear-gradient-11)"/>
            </g>
            <path id="Path_139" data-name="Path 139" d="M424.53,643.432a3.569,3.569,0,0,1,1.041,1.818l21.777-5.681a7.768,7.768,0,0,1-2.623-3.669C442.065,637.974,436.219,641.3,424.53,643.432Z" transform="translate(-405.224 -607.508)" fill="url(#linear-gradient-12)"/>
            <path id="Path_140" data-name="Path 140" d="M445.231,638.43s-6.822,5.127-18.231,6.718" transform="translate(-406.525 -608.84)" opacity="0.1" fill="url(#linear-gradient-13)"/>
            <path id="Path_141" data-name="Path 141" d="M445.231,637.16s-6.822,5.132-18.231,6.718" transform="translate(-406.525 -608.171)" fill="url(#linear-gradient-13)"/>
            <g id="Group_15" data-name="Group 15" transform="translate(7.22 21.656)" opacity="0.1">
              <path id="Path_142" data-name="Path 142" d="M413.439,629.491S402.011,633.1,399,621.67Z" transform="translate(-399 -621.67)" fill="url(#linear-gradient-15)"/>
            </g>
            <path id="Path_143" data-name="Path 143" d="M413.439,628.221S402.011,631.828,399,620.4Z" transform="translate(-391.78 -599.345)" fill="url(#linear-gradient-15)"/>
            <ellipse id="Ellipse_14" data-name="Ellipse 14" cx="1.202" cy="2.107" rx="1.202" ry="2.107" transform="translate(0 17.442)" fill="url(#linear-gradient-17)"/>
            <path id="Path_144" data-name="Path 144" d="M576.125,687.272,573.72,668s7.22,11.428,2.4,19.249" transform="translate(-483.786 -624.411)" opacity="0.1" fill="url(#linear-gradient-18)"/>
            <path id="Path_145" data-name="Path 145" d="M572.45,668s7.22,11.428,2.4,19.249Z" transform="translate(-483.117 -624.411)" fill="url(#linear-gradient-19)"/>
          </g>
          <path id="Path_146" data-name="Path 146" d="M391,599.645a13.687,13.687,0,0,0,13.791,13.293h1.032a3.488,3.488,0,0,1,2.448.989,3.406,3.406,0,0,1,.994,1.733,3.249,3.249,0,0,1,.1.819v13.1a13.133,13.133,0,0,0,2.078,7.1,18.775,18.775,0,0,1,3.087,10.112h0a6.32,6.32,0,0,0,6.434,6.315,6.449,6.449,0,0,0,6.192-6.519v-3.276l1.723.2V646.8a6.32,6.32,0,0,0,6.434,6.315,6.449,6.449,0,0,0,6.192-6.519v-1.657c1.723.72,11.48.72,14.2,0l.734-.057v1.894a6.32,6.32,0,0,0,6.434,6.315,6.449,6.449,0,0,0,6.192-6.519v-2.727l.573-.052v2.983a6.4,6.4,0,0,0,.194,1.567,6.325,6.325,0,0,0,6.239,4.734,6.424,6.424,0,0,0,6.154-5.638,7.448,7.448,0,0,0,.057-.885V632.826a21.011,21.011,0,0,0-4.478-12.99,3.891,3.891,0,0,1-.109-4.6c3.214-4.706,7.968-12.649,7.811-18.283a6.155,6.155,0,0,0-1.505-4.166l-.19-.2a7.037,7.037,0,0,0-12.067,5.624,18.68,18.68,0,0,1-.473,6.656,20.352,20.352,0,0,1-1.292,3.569,6.055,6.055,0,0,1-6.192,3.442,21.412,21.412,0,0,0-2.59-.156H434.638a7.461,7.461,0,0,1-7.059-5.056,7.244,7.244,0,0,1-.4-2.4v-20.6a4.019,4.019,0,0,0-4.142-4.019,3.91,3.91,0,0,0-2.774,1.292,4.318,4.318,0,0,0-1.117,2.893,2.13,2.13,0,0,1-2.13,2.13H404.5A13.483,13.483,0,0,0,391,599.645Z" transform="translate(-298.281 -383.076)" fill="#ff4123"/>
          <path id="Path_147" data-name="Path 147" d="M557.55,722.792a6.325,6.325,0,0,0,6.24,4.734,6.424,6.424,0,0,0,6.154-5.638C566.1,720.87,560.8,720.155,557.55,722.792Z" transform="translate(-385.986 -457.494)" fill="#ab1700"/>
          <path id="Path_148" data-name="Path 148" d="M529.66,722.792a6.325,6.325,0,0,0,6.24,4.734,6.424,6.424,0,0,0,6.154-5.638C538.214,720.87,532.917,720.155,529.66,722.792Z" transform="translate(-371.299 -457.494)" fill="#ab1700"/>
          <path id="Path_149" data-name="Path 149" d="M471.46,722.792a6.325,6.325,0,0,0,6.24,4.734,6.424,6.424,0,0,0,6.154-5.638C480.015,720.87,474.717,720.155,471.46,722.792Z" transform="translate(-340.652 -457.494)" fill="#ab1700"/>
          <path id="Path_150" data-name="Path 150" d="M441.15,722.792a6.325,6.325,0,0,0,6.24,4.734,6.424,6.424,0,0,0,6.154-5.638C449.7,720.87,444.393,720.155,441.15,722.792Z" transform="translate(-324.691 -457.494)" fill="#ab1700"/>
          <path id="Path_151" data-name="Path 151" d="M560.53,616.973a90.463,90.463,0,0,0,14.245-7.916,6.153,6.153,0,0,0-1.505-4.166l-.189-.2a7.037,7.037,0,0,0-12.067,5.624A18.676,18.676,0,0,1,560.53,616.973Z" transform="translate(-387.555 -395.116)" fill="#ffdcd7"/>
          <path id="Path_152" data-name="Path 152" d="M513.122,647.588s-12.28,15.462-32.372-.038" transform="translate(-345.544 -418.833)" fill="#ffdcd7"/>
          <path id="Path_153" data-name="Path 153" d="M463.722,586.93s-7.461,9.757,0,21.81" transform="translate(-334.831 -386.912)" fill="#ffdcd7"/>
          <path id="Path_154" data-name="Path 154" d="M429.83,657.25s6.571,8.166.08,14.676" transform="translate(-318.73 -423.941)" fill="#ffdcd7"/>
          <path id="Path_155" data-name="Path 155" d="M428.62,645.453c.473.473.322.9.473,1.572l21.342-5.591c-1.146-.885-2.571-1.936-3.044-3.314C444.83,640.085,439.769,643.418,428.62,645.453Z" transform="translate(-318.093 -413.868)" opacity="0.1"/>
          <path id="Path_156" data-name="Path 156" d="M427.51,644.056a3.406,3.406,0,0,1,.994,1.733l20.8-5.425a7.408,7.408,0,0,1-2.5-3.5C444.245,638.848,438.664,642.015,427.51,644.056Z" transform="translate(-317.509 -413.204)" fill="#383f4d"/>
          <path id="Path_157" data-name="Path 157" d="M447.242,639.29s-6.509,4.9-17.412,6.41" transform="translate(-318.73 -414.484)" opacity="0.1"/>
          <path id="Path_158" data-name="Path 158" d="M447.242,638.08s-6.509,4.9-17.412,6.41" transform="translate(-318.73 -413.846)" fill="#ff4123"/>
          <path id="Path_159" data-name="Path 159" d="M409.926,634.761S399.038,638.2,396.15,627.3Z" transform="translate(-300.995 -408.17)" opacity="0.1"/>
          <path id="Path_160" data-name="Path 160" d="M409.926,633.551s-10.888,3.442-13.776-7.461Z" transform="translate(-300.995 -407.533)" fill="#ff4123"/>
          <ellipse id="Ellipse_15" data-name="Ellipse 15" cx="1.146" cy="2.007" rx="1.146" ry="2.007" transform="translate(91.586 213.222)" fill="#383f4d"/>
          <path id="Path_161" data-name="Path 161" d="M572.166,685.919l-2.3-18.369s6.888,10.888,2.3,18.369" transform="translate(-392.473 -429.365)" opacity="0.1"/>
          <path id="Path_162" data-name="Path 162" d="M568.66,667.55s6.888,10.888,2.3,18.369Z" transform="translate(-391.836 -429.365)" fill="#ff4123"/>
          <path id="Path_163" data-name="Path 163" d="M467.41,563.786s33.717,19.045,58.841,9.208a31.5,31.5,0,0,0,19.026-22.553A50.561,50.561,0,0,1,552,534.406a48.849,48.849,0,0,1,41.959-22.165c17.474.246,50.272-2.126,59.891-22.421" transform="translate(-338.519 -335.775)" fill="none" stroke="#383f4d" stroke-miterlimit="10" stroke-width="2" opacity="0.1"/>
          <path id="Path_164" data-name="Path 164" d="M467.41,562.6s33.717,19.045,58.841,9.208a31.5,31.5,0,0,0,19.026-22.553A50.567,50.567,0,0,1,552,533.246a48.849,48.849,0,0,1,41.959-22.165c17.474.246,50.272-2.126,59.891-22.421" transform="translate(-338.519 -335.164)" fill="none" stroke="#383f4d" stroke-miterlimit="10" stroke-width="2"/>
          <path id="Path_165" data-name="Path 165" d="M866.378,455.3s1.387,20.655-12.19,25.006a2.9,2.9,0,0,1-3.787-2.58c-.227-3.513.895-10.747,7.366-25.356Z" transform="translate(-540.183 -316.054)" opacity="0.1"/>
          <path id="Path_166" data-name="Path 166" d="M864.728,454.47s1.387,20.655-12.19,25.006a2.9,2.9,0,0,1-3.787-2.58c-.227-3.513.895-10.746,7.366-25.356Z" transform="translate(-539.314 -315.617)" fill="#fda57d"/>
          <path id="Path_167" data-name="Path 167" d="M867.57,283.789s19.552-3.91,17.2,45.746c0,0-4.692,36.363-12.905,38.711l-12.309-3.129,4.886-34.019-4.886-17.6S855.659,286.919,867.57,283.789Z" transform="translate(-544.699 -227.244)" opacity="0.1"/>
          <path id="Path_168" data-name="Path 168" d="M863.846,283.789s19.552-3.91,17.2,45.746c0,0-4.692,36.363-12.905,38.711l-12.309-3.129,4.886-34.019-4.886-17.6S851.921,286.919,863.846,283.789Z" transform="translate(-542.735 -227.244)" opacity="0.1"/>
          <path id="Path_169" data-name="Path 169" d="M865.916,283.789s19.552-3.91,17.2,45.746c0,0-4.692,36.363-12.905,38.711l-12.309-3.129,4.886-34.019-4.886-17.6S853.991,286.919,865.916,283.789Z" transform="translate(-543.825 -227.244)" fill="#db1e00"/>
          <path id="Path_170" data-name="Path 170" d="M676.266,460.787v-1.25l-9.677-2.457-.45,1.056Z" transform="translate(-350.814 -318.771)" opacity="0.1"/>
        </g>
      </g>
    </g>
  </g>
</svg>
